<svg xmlns="http://www.w3.org/2000/svg" width="766" height="383" viewBox="0 0 766 383"><g fill="none" fill-rule="evenodd"><path fill="#ACACDA" fill-rule="nonzero" d="M9.52,15.028 C9.724,11.152 11.152,8.84 15.028,8.84 C17.884,8.84 19.788,10.608 19.788,13.464 C19.788,17.34 17.68,18.428 13.056,18.428 L9.452,18.428 L9.452,27.54 L18.156,27.54 L18.156,23.868 C23.8,23.868 30.532,21.76 30.532,12.716 C30.532,5.168 24.412,0 15.708,0 C6.392,0 1.7,3.944 0,11.628 L9.52,15.028 Z M7.752,35.632 C7.752,39.032 10.404,41.208 13.804,41.208 C17.34,41.208 19.992,39.032 19.992,35.632 C19.992,32.164 17.34,29.988 13.804,29.988 C10.404,29.988 7.752,32.164 7.752,35.632 Z" transform="translate(276.105 14.48)"/><path fill="#ACACDA" fill-rule="nonzero" d="M442.60482,18.3475139 C529.037384,18.3475139 599.10482,88.4149506 599.10482,174.847514 C599.10482,261.280077 529.037384,331.347514 442.60482,331.347514 L0,331.347514 L0,315.347514 L442.60482,315.347514 C520.200828,315.347514 583.10482,252.443521 583.10482,174.847514 C583.10482,97.2515066 520.200828,34.3475139 442.60482,34.3475139 C365.008813,34.3475139 302.10482,97.2515066 302.10482,174.847514 C302.10482,210.762512 311.391244,239.103664 327.827263,261.650276 L314.897991,271.075451 C296.471971,245.798995 286.10482,214.15958 286.10482,174.847514 C286.10482,88.4149506 356.172257,18.3475139 442.60482,18.3475139 Z"/><line x1="563.105" x2="645.105" y1="324.348" y2="324.348" stroke="#ACACDA" stroke-linecap="square" stroke-width="16"/><g transform="rotate(-6 3240.579 -5963.412)"><rect width="88" height="43" fill="#F4F4FA"/><g fill="#F64C72" fill-rule="nonzero" transform="translate(13.2 16.368)"><polygon points="6.496 7.552 2.4 7.552 2.4 5.856 6 5.856 6 3.856 2.4 3.856 2.4 2.288 6.496 2.288 6.496 .208 0 .208 0 9.632 6.496 9.632"/><polygon points="8.896 .208 8.896 9.632 11.296 9.632 11.296 .208"/><path d="M16.32.208 14.096.208 14.096 9.632 16.496 9.632 16.496 6.288C16.496 4.896 16.4 4.192 16.4 4.192L16.464 4.192C16.464 4.192 16.688 4.672 17.296 5.456L20.496 9.632 22.64 9.632 22.64.208 20.24.208 20.24 3.648C20.24 4.848 20.288 5.584 20.288 5.584L20.224 5.584C20.224 5.584 20.032 5.168 19.52 4.48L16.32.208ZM24.56 7.568C25.104 9.248 26.4 9.824 28.24 9.824 30.32 9.824 32.032 9.088 32.032 6.976 32.032 5.152 31.088 4.464 28.944 3.808 27.904 3.52 27.472 3.264 27.472 2.72 27.472 2.192 27.904 2 28.4 2 28.976 2 29.568 2.304 29.648 3.072L32.048 2.432C31.84.64 30.352 0 28.352 0 26.64 0 24.928.704 24.928 2.896 24.928 4.448 25.696 5.344 28.096 6.08 29.216 6.416 29.536 6.656 29.536 7.2 29.536 7.744 29.056 7.984 28.432 7.984 27.584 7.984 26.912 7.376 26.736 6.528L24.56 7.568ZM40.448 9.632 43.024 9.632 39.584.208 36.656.208 33.248 9.632 35.76 9.632 36.352 7.872 39.824 7.872 40.448 9.632ZM37.28 5.136C37.808 3.6 38.048 2.4 38.048 2.4L38.112 2.4C38.112 2.4 38.304 3.584 38.864 5.152L39.12 5.872 37.024 5.872 37.28 5.136Z"/><polygon points="47.84 9.632 47.84 2.288 50.4 2.288 50.4 .208 42.944 .208 42.944 2.288 45.456 2.288 45.456 9.632"/><path d="M58.72,1.904 L58.72,0.208 L51.52,0.208 L51.52,2.288 L54.48,2.288 C55.264,2.288 55.728,2.208 55.728,2.208 L55.728,2.272 C55.728,2.272 55.264,2.656 54.688,3.44 L51.44,7.84 L51.44,9.632 L58.896,9.632 L58.896,7.552 L55.552,7.552 C54.768,7.552 54.304,7.632 54.304,7.632 L54.304,7.568 C54.304,7.568 54.752,7.184 55.344,6.4 L58.72,1.904 Z"/></g></g><path fill="#FFF" fill-rule="nonzero" d="M421.557101,330.079993 L421.800954,332.065071 C420.366045,332.24134 418.72214,332.4311 416.822576,332.639875 L416.604078,330.651846 C418.495693,330.443945 420.131327,330.255139 421.557101,330.079993 Z M431.161336,328.338728 L431.844153,330.218558 C430.653058,330.651204 429.128677,331.00434 426.791464,331.378185 L426.475573,329.403289 C428.698468,329.04773 430.10903,328.720961 431.161336,328.338728 Z M440.210137,324.110284 L440.907508,325.984763 C439.051933,326.675101 437.616736,327.29093 436.401479,327.895476 L435.510688,326.104808 C436.791164,325.467818 438.290727,324.82437 440.210137,324.110284 Z M449.716853,320.94802 L450.368979,322.838716 C449.30233,323.206617 448.188086,323.570354 447.020821,323.931222 C446.527503,324.083741 446.049731,324.23386 445.587067,324.381668 L444.978431,322.476527 C445.44711,322.326798 445.930842,322.174805 446.430083,322.020455 C447.577064,321.665858 448.670852,321.308799 449.716853,320.94802 Z M458.807157,317.145876 L459.720735,318.925026 C458.291414,319.65897 456.764343,320.364204 455.105452,321.051334 L454.34009,319.203573 C455.949203,318.537061 457.426831,317.854662 458.807157,317.145876 Z M467.091866,311.864316 L468.290403,313.465412 C466.733965,314.63052 465.485757,315.513414 464.140392,316.378729 L463.058489,314.696621 C464.358301,313.860605 465.570215,313.003382 467.091866,311.864316 Z M475.333158,306.026989 L476.369426,307.737587 C474.989894,308.573298 473.697672,309.443088 472.282825,310.471057 L471.107237,308.853036 C472.564536,307.794223 473.902103,306.893912 475.333158,306.026989 Z M484.515143,301.610367 L485.200553,303.489253 C483.610977,304.069124 482.104647,304.702523 480.688766,305.391146 L479.814024,303.592584 C481.293622,302.872972 482.862988,302.213066 484.515143,301.610367 Z M494.292601,298.883867 L494.698154,300.842317 C493.054099,301.182766 491.451882,301.566236 489.899074,301.994746 L489.367045,300.066808 C490.962892,299.626422 492.607178,299.232882 494.292601,298.883867 Z M504.281733,297.369902 L504.482948,299.359755 C502.849285,299.524951 501.207572,299.729154 499.56978,299.975566 L499.272222,297.997825 C500.942932,297.74646 502.61668,297.538273 504.281733,297.369902 Z M514.352133,296.83985 L514.389039,298.83951 C514.171756,298.84352 513.955386,298.845494 513.730695,298.845496 C512.606134,298.845742 511.120998,298.884317 509.416331,298.976498 L509.308338,296.979416 C511.049623,296.885255 512.570559,296.84575 513.730471,296.845496 C513.943145,296.845495 514.147218,296.843632 514.352133,296.83985 Z M523.891907,295.22914 L524.515996,297.129275 C522.887337,297.664199 521.217085,298.0773 519.516237,298.364007 L519.183793,296.39183 C520.785564,296.121824 522.358335,295.732833 523.891907,295.22914 Z M532.543409,290.858396 L533.701654,292.488877 C532.300896,293.483933 530.827685,294.373486 529.29401,295.149222 L528.391308,293.364529 C529.835926,292.633838 531.223733,291.795854 532.543409,290.858396 Z M500.876912,291.393028 C502.367969,291.584426 503.985115,291.678823 505.736191,291.669148 L505.747241,293.669117 C503.909107,293.679274 502.203339,293.579703 500.622273,293.376752 L500.876912,291.393028 Z M515.533564,290.733517 L515.868396,292.705289 C514.115069,293.003026 512.441838,293.23013 510.846198,293.388991 L510.648059,291.39883 C512.197125,291.244606 513.824826,291.023682 515.533564,290.733517 Z M491.978381,288.238081 C493.163827,289.080504 494.545837,289.788473 496.189604,290.345027 L495.548203,292.239388 C493.719312,291.620154 492.163214,290.823004 490.819846,289.868356 L491.978381,288.238081 Z M525.194879,288.577279 L525.716151,290.508153 C524.029268,290.963556 522.398178,291.36802 520.821729,291.722728 L520.382696,289.77151 C521.931212,289.423087 523.534906,289.025416 525.194879,288.577279 Z M544.04636,282.234564 L544.776235,284.096629 C543.178183,284.723018 541.61387,285.317309 540.082895,285.879944 L540.949327,285.558861 L540.640768,285.95211 C539.871615,286.908256 539.052084,287.823081 538.185961,288.692477 L537.660727,289.20863 L536.274107,287.767351 C537.441198,286.644521 538.523618,285.436276 539.51154,284.153292 L539.468327,284.207861 L539.393005,284.002698 C540.531109,283.584444 541.688066,283.148439 542.86404,282.694495 L544.04636,282.234564 Z M534.688063,285.667487 L535.331164,287.561271 C533.694365,288.117104 532.099809,288.633448 530.546853,289.110992 L529.959006,287.199334 C531.493254,286.727543 533.069401,286.21716 534.688063,285.667487 Z M485.816474,280.990617 C486.64705,282.380358 487.58059,283.706502 488.608465,284.957842 L487.063006,286.227313 C485.972144,284.899291 484.981327,283.491784 484.09971,282.016638 L485.816474,280.990617 Z M553.244853,278.432822 L554.039933,280.267992 C552.472326,280.947151 550.932717,281.599306 549.420831,282.224763 L548.656285,280.376665 C550.157878,279.755465 551.687312,279.10762 553.244853,278.432822 Z M544.226669,275.64487 L546.101789,276.340517 C545.503382,277.953526 544.784935,279.517512 543.953349,281.020561 L542.203336,280.052338 C542.986559,278.636702 543.663158,277.163816 544.226669,275.64487 Z M562.333304,274.337149 L563.179676,276.149235 C561.637169,276.869695 560.118522,277.566883 558.623537,278.241024 L557.80139,276.417819 C559.288221,275.747355 560.798794,275.053873 562.333304,274.337149 Z M482.144915,272.014734 C482.526604,273.591627 483.025648,275.133306 483.636976,276.629101 L481.785627,277.385743 C481.136405,275.79723 480.606405,274.159917 480.201049,272.485251 L482.144915,272.014734 Z M571.15784,269.817761 L572.162846,271.546912 C570.715278,272.388258 569.234169,273.19409 567.719541,273.964412 L566.812887,272.181723 C568.294363,271.428263 569.742673,270.640275 571.15784,269.817761 Z M546.196609,266.1539 L548.19359,266.263736 C548.098676,267.989427 547.876184,269.694748 547.529441,271.369624 L545.57097,270.964168 C545.897567,269.386612 546.107166,267.780102 546.196609,266.1539 Z M579.395927,264.359815 L580.598372,265.957979 C579.256276,266.967761 577.87892,267.940337 576.46633,268.875697 L575.362138,267.208136 C576.741362,266.294869 578.08595,265.345432 579.395927,264.359815 Z M479.296773,262.235693 L481.293164,262.355793 C481.253769,263.010641 481.23389,263.668468 481.233683,264.328403 C481.233683,265.302233 481.275539,266.26145 481.359085,267.214923 L479.366719,267.3895 C479.278081,266.377913 479.233683,265.360447 479.233683,264.328088 C479.233903,263.627983 479.254986,262.930314 479.296773,262.235693 Z M586.906993,257.947846 L588.297296,259.385572 C587.085162,260.557724 585.836926,261.691947 584.552611,262.788222 L583.254149,261.267039 C584.507006,260.197617 585.724613,259.091225 586.906993,257.947846 Z M547.256233,256.099485 C547.66357,257.761896 547.947217,259.458239 548.103471,261.178122 L546.111674,261.35908 C545.964468,259.738781 545.697309,258.141049 545.313697,256.575461 L547.256233,256.099485 Z M481.400399,252.278307 L483.274227,252.977426 C482.709605,254.490768 482.258426,256.047054 481.925409,257.635806 L479.967948,257.225504 C480.321599,255.538313 480.800764,253.885492 481.400399,252.278307 Z M593.584626,250.636266 L595.141532,251.891672 C594.079075,253.209291 592.980777,254.489422 591.846652,255.732041 L590.369421,254.383788 C591.476004,253.171345 592.547734,251.92218 593.584626,250.636266 Z M543.337566,246.590247 C544.222649,248.063109 544.996804,249.600625 545.652669,251.19081 L543.803757,251.953386 C543.186094,250.455826 542.456968,249.007741 541.623282,247.620408 L543.337566,246.590247 Z M486.437526,243.235304 L488.019074,244.459521 C487.027929,245.739966 486.133315,247.092485 485.343535,248.505802 L483.59764,247.530174 C484.436018,246.029891 485.385584,244.594293 486.437526,243.235304 Z M599.306653,242.609253 L600.999745,243.673885 C600.096184,245.110824 599.158104,246.511785 598.185507,247.876743 L596.556702,246.716143 C597.506878,245.382651 598.423527,244.013696 599.306653,242.609253 Z M536.803116,238.671989 C538.080772,239.820752 539.271762,241.063177 540.365402,242.388236 L538.822922,243.661325 C537.792322,242.412646 536.669948,241.2418 535.465912,240.159229 L536.803116,238.671989 Z M493.836821,236.148008 L494.99169,237.780883 C493.6698,238.715804 492.418834,239.748301 491.249697,240.868934 L489.865751,239.425086 C491.106402,238.235907 492.433931,237.140218 493.836821,236.148008 Z M604.113195,233.941782 L605.911318,234.817427 C605.167342,236.345171 604.390989,237.839241 603.582256,239.299621 L601.832627,238.330706 C602.624304,236.901126 603.384495,235.438157 604.113195,233.941782 Z M528.188634,232.99454 C529.749702,233.715292 531.253915,234.552043 532.689261,235.496914 L531.589569,237.167446 C530.237428,236.277348 528.820553,235.489181 527.350269,234.810344 L528.188634,232.99454 Z M503.038854,231.524544 L503.658575,233.426108 C502.117546,233.92833 500.618822,234.545312 499.173457,235.271072 L498.275987,233.483742 C499.810745,232.713095 501.4023,232.057898 503.038854,231.524544 Z M518.227591,230.122051 C519.939284,230.34441 521.623906,230.693805 523.270742,231.166102 L522.719387,233.088602 C521.168624,232.643858 519.582174,232.314824 517.969944,232.105386 L518.227591,230.122051 Z M513.205661,229.836848 L513.236037,231.836618 C511.605185,231.861391 509.990922,232.006384 508.402146,232.26879 L508.076236,230.295523 C509.762637,230.016993 511.475681,229.863127 513.205661,229.836848 Z M608.016072,224.808788 L609.890287,225.506871 C609.296652,227.100662 608.673141,228.663403 608.019746,230.195083 L606.180137,229.410329 C606.821259,227.907421 607.43324,226.373577 608.016072,224.808788 Z M611.082729,215.338782 L613.009329,215.875634 C612.553039,217.513126 612.069505,219.122301 611.558719,220.703154 L609.655595,220.08824 C610.157976,218.533398 610.63369,216.950247 611.082729,215.338782 Z M613.369304,205.767463 L615.329842,206.162796 C614.994025,207.82818 614.633436,209.467797 614.248068,211.081645 L612.30276,210.617128 C612.68261,209.026388 613.038127,207.409834 613.369304,205.767463 Z M615.016621,195.955974 L616.998358,196.225641 C616.769581,197.906885 616.518339,199.564739 616.244626,201.199204 L614.272093,200.868877 C614.542408,199.254705 614.790586,197.617071 615.016621,195.955974 Z M616.079729,186.053116 L618.073342,186.212835 C617.937978,187.902439 617.782194,189.570761 617.605984,191.217801 L615.617332,191.005043 C615.791642,189.375763 615.945776,187.72512 616.079729,186.053116 Z M616.630578,176.10845 L618.629566,176.172076 C618.575702,177.864351 618.50322,179.537204 618.412115,181.190636 L616.415144,181.080602 C616.505392,179.442719 616.577204,177.785334 616.630578,176.10845 Z"/><g transform="rotate(-6 2407.55 -6267.629)"><polygon fill="#F64C72" points="0 0 52 0 32.733 18.273 52 35.88 0 35.88"/><polygon fill="#ACACDA" fill-rule="nonzero" points="2.991 34.991 3 35.991 3.5 93.491 3.509 94.491 1.509 94.509 1.5 93.509 1 36.009 .991 35.009"/></g><g opacity=".226" transform="translate(342.105 71.348)"><polygon points="0 0 203 0 203 203 0 203"/><path fill="#ACACDA" fill-rule="nonzero" d="M161.404795,110.93125 C161.743198,108.4 161.912399,105.784375 161.912399,103 C161.912399,100.3 161.743198,97.6 161.320195,95.06875 L178.494107,81.7375 C180.016917,80.55625 180.43992,78.278125 179.509314,76.590625 L163.266008,48.578125 C162.250801,46.721875 160.135787,46.13125 158.274575,46.721875 L138.055043,54.821875 C133.825015,51.615625 129.341186,48.915625 124.349753,46.890625 L121.304133,25.459375 C120.965731,23.434375 119.27372,22 117.243306,22 L84.7566937,22 C82.7262804,22 81.1188698,23.434375 80.7804676,25.459375 L77.7348477,46.890625 C72.743415,48.915625 68.1749851,51.7 64.029558,54.821875 L43.8100256,46.721875 C41.9488134,46.046875 39.8337996,46.721875 38.8185929,48.578125 L22.6598871,76.590625 C21.6446805,78.3625 21.9830827,80.55625 23.6750938,81.7375 L40.8490062,95.06875 C40.4260034,97.6 40.0876012,100.384375 40.0876012,103 C40.0876012,105.615625 40.2568023,108.4 40.6798051,110.93125 L23.5058927,124.2625 C21.9830827,125.44375 21.5600799,127.721875 22.490686,129.409375 L38.7339924,157.421875 C39.749199,159.278125 41.8642128,159.86875 43.725425,159.278125 L63.9449574,151.178125 C68.1749851,154.384375 72.6588145,157.084375 77.6502471,159.109375 L80.6958671,180.540625 C81.1188698,182.565625 82.7262804,184 84.7566937,184 L117.243306,184 C119.27372,184 120.965731,182.565625 121.219532,180.540625 L124.265152,159.109375 C129.256585,157.084375 133.825015,154.384375 137.970442,151.178125 L158.189974,159.278125 C160.051187,159.953125 162.1662,159.278125 163.181407,157.421875 L179.424713,129.409375 C180.43992,127.553125 180.016917,125.44375 178.409507,124.2625 L161.404795,110.93125 Z M101,133.375 C84.2490903,133.375 70.5438006,119.70625 70.5438006,103 C70.5438006,86.29375 84.2490903,72.625 101,72.625 C117.75091,72.625 131.456199,86.29375 131.456199,103 C131.456199,119.70625 117.75091,133.375 101,133.375 Z"/></g><path fill="#FFF" fill-rule="nonzero" d="M573.028707,182.954477 C573.076104,184.626059 573.099844,186.300735 573.099844,187.978185 L571.099844,187.978185 C571.099844,186.319634 571.076372,184.663855 571.029511,183.011163 L573.028707,182.954477 Z M225.132006,184.598966 L227.131643,184.637059 C227.110497,185.747113 227.099889,186.858503 227.099844,187.971133 L225.099844,187.971053 C225.099889,186.845751 225.110618,185.721689 225.132006,184.598966 Z M225.610466,174.54848 L227.604664,174.700712 C227.478689,176.350964 227.376204,178.005062 227.297307,179.662669 L225.299569,179.567583 C225.379373,177.890909 225.483038,176.217761 225.610466,174.54848 Z M572.456588,172.912071 C572.599507,174.578327 572.718713,176.248596 572.814102,177.922534 L570.817342,178.03632 C570.723039,176.381447 570.605193,174.730224 570.463904,173.082989 L572.456588,172.912071 Z M226.665655,164.535525 L228.64776,164.802467 C228.426836,166.442881 228.229377,168.088087 228.055503,169.737729 L226.066521,169.528088 C226.242412,167.859308 226.442163,166.195 226.665655,164.535525 Z M571.306661,162.90557 C571.545678,164.561681 571.761003,166.222781 571.952513,167.888504 L569.965602,168.116942 C569.77629,166.470342 569.563439,164.828328 569.32717,163.191258 L571.306661,162.90557 Z M228.298385,154.599279 L230.26167,154.980738 C229.945819,156.606357 229.653325,158.237766 229.384328,159.87459 L227.410801,159.550259 C227.682937,157.894338 227.978845,156.243884 228.298385,154.599279 Z M569.582897,153.000742 C569.917745,154.641468 570.229016,156.288204 570.516564,157.940567 L568.546177,158.283459 C568.261947,156.650165 567.954271,155.022443 567.62329,153.40067 L569.582897,153.000742 Z M230.504778,144.778761 L232.442542,145.273806 C232.032679,146.878138 231.645937,148.489291 231.282476,150.106873 L229.331129,149.668417 C229.698844,148.031901 230.090115,146.401883 230.504778,144.778761 Z M567.285018,143.205235 C567.714958,144.824435 568.121552,146.450704 568.504633,148.083643 L566.557496,148.540433 C566.178849,146.926395 565.776962,145.318953 565.352001,143.718501 L567.285018,143.205235 Z M233.276438,135.112524 L235.182096,135.719539 C234.679254,137.298155 234.199224,138.88466 233.742193,140.47865 L231.819658,139.927417 C232.282046,138.314745 232.767702,136.709643 233.276438,135.112524 Z M564.415508,133.544446 C564.939032,135.135308 565.43958,136.734318 565.916961,138.341063 L563.99979,138.910674 C563.52794,137.322544 563.033191,135.742059 562.515732,134.169628 L564.415508,133.544446 Z M236.576875,125.700369 L238.444307,126.416397 C237.851177,127.963304 237.280431,129.519178 236.73228,131.0836 L234.84479,130.42225 C235.399364,128.839498 235.976797,127.265396 236.576875,125.700369 Z M561.003142,124.107843 C561.619085,125.667916 562.212437,127.237266 562.782978,128.815464 L560.902113,129.495423 C560.338178,127.935499 559.751696,126.38432 559.142882,124.842305 L561.003142,124.107843 Z M240.440289,116.438138 L242.263035,117.2613 C241.581278,118.77093 240.921374,120.290621 240.283562,121.819945 L238.437663,121.050104 C239.082937,119.502888 239.750559,117.965421 240.440289,116.438138 Z M557.035495,114.856418 C557.740814,116.377292 558.42411,117.90855 559.085135,119.449758 L557.247064,120.238108 C556.59368,118.714716 555.918282,117.201155 555.221113,115.697854 L557.035495,114.856418 Z M244.851219,107.382526 L246.623055,108.31021 C245.854786,109.77757 245.107757,111.256096 244.382232,112.745357 L242.584247,111.869431 C243.31824,110.362785 244.073987,108.867005 244.851219,107.382526 Z M552.536038,105.849518 C553.328219,107.326424 554.099022,108.814829 554.848174,110.314295 L553.059042,111.208168 C552.318531,109.725996 551.556615,108.254752 550.773566,106.79487 L552.536038,105.849518 Z M249.786663,98.5874605 L251.501678,99.6164024 C250.649462,101.036856 249.817796,102.469585 249.006974,103.914156 L247.262921,102.935237 C248.083185,101.473847 248.92453,100.024442 249.786663,98.5874605 Z M547.512738,97.1037089 C548.39032,98.5339068 549.247189,99.976754 550.083044,101.43181 L548.348819,102.428034 C547.522579,100.989717 546.675564,99.5634627 545.808071,98.1497073 L547.512738,97.1037089 Z M255.216569,90.1034455 L256.869231,91.2298152 C255.93587,92.5992855 255.022312,93.9821401 254.128875,95.3779468 L252.444398,94.299736 C253.348211,92.8877193 254.272376,91.4888103 255.216569,90.1034455 Z M541.995041,88.6691348 C542.953429,90.0455852 543.891912,91.4357816 544.810163,92.8392875 L543.136537,93.9342657 C542.228823,92.5468653 541.301106,91.172617 540.35371,89.8119525 L541.995041,88.6691348 Z M261.124316,81.9510394 L262.709291,83.1708165 C261.698189,84.4846383 260.706069,85.8129321 259.733271,87.1552718 L258.113822,85.9816522 C259.097891,84.6237586 260.101505,83.2800774 261.124316,81.9510394 Z M536.053988,80.6368538 C537.089179,81.9557932 538.105326,83.289547 539.102079,84.6376862 L537.493899,85.8267014 C536.508559,84.4939995 535.504045,83.1755147 534.480703,81.8716715 L536.053988,80.6368538 Z M267.50379,74.1386433 L269.015799,75.4477766 C267.930794,76.7009237 266.863867,77.9695929 265.815382,79.2533683 L264.266358,77.9882501 C265.326971,76.6896243 266.406238,75.406282 267.50379,74.1386433 Z M529.610507,72.8969232 C530.719241,74.1533497 531.809867,75.4256307 532.882013,76.7133486 L531.345012,77.9930466 C530.285123,76.7200513 529.206965,75.4623143 528.110903,74.2202487 L529.610507,72.8969232 Z M274.305993,66.7241804 L275.74028,68.1180316 C274.585355,69.3064607 273.447551,70.5114219 272.327253,71.7325134 L270.853525,70.380432 C271.98677,69.1452285 273.137722,67.9263426 274.305993,66.7241804 Z M522.73752,65.5456338 C523.916568,66.7362145 525.078474,67.9436693 526.222846,69.1675953 L524.761951,70.5335334 C523.630652,69.3235896 522.48202,68.129928 521.316441,66.9529476 L522.73752,65.5456338 Z M281.521783,59.7138023 L282.873639,61.1877373 C281.65279,62.3074699 280.448057,63.444699 279.259842,64.5990402 L277.866224,63.164527 C279.068169,61.9968467 280.286824,60.8464756 281.521783,59.7138023 Z M515.455176,58.602923 C516.700954,59.7240568 517.930593,60.8630512 519.143683,62.0195204 L517.763656,63.4671135 C516.564425,62.3238562 515.348835,61.1978749 514.11729,60.0895512 L515.455176,58.602923 Z M289.144707,53.1162861 L290.409428,54.6656353 C289.125609,55.7136053 287.856887,56.7800156 286.603676,57.8645014 L285.294939,56.3521502 C286.562642,55.2551231 287.846038,54.1763788 289.144707,53.1162861 Z M507.773518,52.0802631 C509.081295,53.1274074 510.373991,54.1933279 511.651185,55.2776601 L510.356778,56.8022943 C509.094187,55.7303607 507.816274,54.67663 506.523456,53.6414631 L507.773518,52.0802631 Z M297.117741,46.9817066 L298.291195,48.601276 C296.950374,49.5727642 295.623562,50.563531 294.311186,51.5732345 L293.091625,49.9880934 C294.419201,48.9666958 295.761383,47.9644517 297.117741,46.9817066 Z M499.730328,46.0121829 C501.097293,46.9828813 502.450234,47.9732556 503.78872,48.9829632 L502.584263,50.5796112 C501.261107,49.5814673 499.923664,48.6024382 498.572363,47.6428624 L499.730328,46.0121829 Z M305.376944,41.3512015 L306.455665,43.0353512 C305.059742,43.9294595 303.676783,44.8436959 302.307223,45.7777417 L301.18034,44.1254298 C302.565796,43.1805434 303.964809,42.2556932 305.376944,41.3512015 Z M491.356578,40.4223727 C492.776503,41.3120209 494.18352,42.2221286 495.577191,43.1523785 L494.466852,44.8158531 C493.089177,43.8962803 491.698314,42.9966217 490.294697,42.1171908 L491.356578,40.4223727 Z M314.024286,36.1595702 L315.00358,37.9034117 C313.559024,38.7146352 312.126317,39.5467035 310.705892,40.399324 L309.676576,38.684533 C311.113528,37.8219918 312.562911,36.9802389 314.024286,36.1595702 Z M482.662706,35.3199633 C484.132868,36.1264098 485.591219,36.9540808 487.03732,37.8026846 L486.025091,39.5276172 C484.59563,38.6887781 483.154066,37.870634 481.700832,37.0734732 L482.662706,35.3199633 Z M322.943437,31.4858112 L323.819914,33.283529 C322.330569,34.0096582 320.851969,34.7572979 319.384546,35.5261821 L318.45631,33.7546352 C319.940852,32.9767812 321.436707,32.2204168 322.943437,31.4858112 Z M473.693479,30.7335406 C475.207924,31.4532323 476.711681,32.1948023 478.204313,32.9579856 L477.293823,34.7387182 C475.818411,33.9843392 474.332007,33.2513269 472.835044,32.5399429 L473.693479,30.7335406 Z M332.126538,27.3348726 L332.896902,29.1805538 C331.368372,29.8185432 329.849472,30.4786045 328.34063,31.1604991 L327.516973,29.3379764 C329.043459,28.648108 330.580124,27.9803262 332.126538,27.3348726 Z M464.481255,26.6797224 C466.035593,27.3103844 467.580354,27.9635109 469.115107,28.6388641 L468.309567,30.4694668 C466.79256,29.8019223 465.265665,29.1563494 463.729307,28.5329829 L464.481255,26.6797224 Z M341.520857,23.7312098 L342.182473,25.6186057 C340.619642,26.1664479 339.065345,26.7368407 337.52,27.3295723 L336.80376,25.4622211 C338.367207,24.8625464 339.939714,24.2854711 341.520857,23.7312098 Z M455.085535,23.1814054 C456.673509,23.7207135 458.253015,24.2829519 459.82363,24.8679099 L459.125594,26.7421418 C457.573166,26.1639578 456.011954,25.6082312 454.442374,25.0751699 L455.085535,23.1814054 Z M351.086922,20.6871514 L351.637717,22.6098124 C350.04437,23.0662667 348.458495,23.5456991 346.880499,24.0479231 L346.273944,22.1421185 C347.870436,21.6340076 349.4749,21.1489556 351.086922,20.6871514 Z M445.526219,20.2408281 C447.143195,20.6873943 448.752783,21.1572817 450.354573,21.6503052 L449.766222,23.5618079 C448.182989,23.0744962 446.592047,22.6100525 444.993802,22.1686592 L445.526219,20.2408281 Z M360.85044,18.1959178 L361.288197,20.147422 C359.67086,20.5102197 358.059942,20.89629 356.455835,21.3054715 L355.961497,19.3675268 C357.58439,18.9535532 359.21417,18.5629623 360.85044,18.1959178 Z M435.765482,17.8484411 C437.405535,18.2002172 439.039264,18.5755897 440.666275,18.9743989 L440.190135,20.9168948 C438.581952,20.5227009 436.967124,20.1516713 435.346041,19.8039637 L435.765482,17.8484411 Z M370.724319,16.2805384 L371.048046,18.2541647 C369.413357,18.5222969 367.784064,18.8138629 366.160539,19.1287248 L365.77976,17.1653076 C367.422246,16.8467685 369.070559,16.5517989 370.724319,16.2805384 Z M425.852952,16.0222979 C427.511017,16.2781748 429.163789,16.5578344 430.810888,16.8611403 L430.448687,18.8280695 C428.82059,18.5282627 427.186876,18.2518278 425.547918,17.9988996 L425.852952,16.0222979 Z M380.702527,14.9393062 L380.911564,16.9283522 C379.260031,17.1019182 377.612939,17.2991207 375.970646,17.5198422 L375.704244,15.537664 C377.365621,15.3143778 379.031836,15.1148857 380.702527,14.9393062 Z M415.877871,14.7767537 C417.548675,14.9366206 419.215167,15.1203632 420.876989,15.3278668 L420.629183,17.3124555 C418.986429,17.1073328 417.339043,16.9256967 415.687376,16.767661 L415.877871,14.7767537 Z M390.729006,14.1760212 L390.823641,16.173781 C389.165544,16.2523255 387.510955,16.3544711 385.860209,16.4801205 L385.708415,14.4858892 C387.378193,14.3587911 389.051837,14.2554691 390.729006,14.1760212 Z M405.831772,14.1060304 C407.50912,14.1698462 409.183095,14.2575103 410.853359,14.3689276 L410.720242,16.3644926 C409.068987,16.2543434 407.414041,16.1676758 405.755735,16.1045845 L405.831772,14.1060304 Z M399.109637,13.9781849 C399.671987,13.9782159 400.23403,13.980915 400.795752,13.986279 L400.776654,15.9861879 C400.221261,15.9808842 399.665548,15.9782156 399.109581,15.9781849 C397.997646,15.9781849 396.895441,15.9885509 395.793352,16.0093274 L395.755655,14.0096827 C396.870321,13.988669 397.985093,13.9781849 399.109637,13.9781849 Z" transform="rotate(-30 399.1 100.978)"/><g transform="translate(510.105 3.348)"><polygon points="0 0 63 0 63 63 0 63"/><path fill="#F64C72" fill-rule="nonzero" d="M50.2331328,34.4479167 C50.3380803,33.6666667 50.3905541,32.859375 50.3905541,32 C50.3905541,31.1666667 50.3380803,30.3333333 50.2068959,29.5520833 L55.5329827,25.4375 C56.0052465,25.0729167 56.1364309,24.3697917 55.8478252,23.8489583 L50.8103441,15.203125 C50.4955016,14.6302083 49.8395796,14.4479167 49.2623682,14.6302083 L42.9917537,17.1302083 C41.6799097,16.140625 40.289355,15.3072917 38.7413791,14.6822917 L37.7968514,8.06770833 C37.6919038,7.44270833 37.1671662,7 36.5374811,7 L26.4625189,7 C25.8328338,7 25.3343331,7.44270833 25.2293855,8.06770833 L24.2848578,14.6822917 C22.7368819,15.3072917 21.3200903,16.1666667 20.0344832,17.1302083 L13.7638687,14.6302083 C13.1866573,14.421875 12.5307353,14.6302083 12.2158927,15.203125 L7.20464854,23.8489583 C6.88980597,24.3958333 6.99475349,25.0729167 7.5194911,25.4375 L12.8455779,29.5520833 C12.7143935,30.3333333 12.6094459,31.1927083 12.6094459,32 C12.6094459,32.8072917 12.6619197,33.6666667 12.7931041,34.4479167 L7.46701734,38.5625 C6.99475349,38.9270833 6.86356909,39.6302083 7.15217477,40.1510417 L12.1896559,48.796875 C12.5044984,49.3697917 13.1604204,49.5520833 13.7376318,49.3697917 L20.0082463,46.8697917 C21.3200903,47.859375 22.710645,48.6927083 24.2586209,49.3177083 L25.2031486,55.9322917 C25.3343331,56.5572917 25.8328338,57 26.4625189,57 L36.5374811,57 C37.1671662,57 37.6919038,56.5572917 37.7706145,55.9322917 L38.7151422,49.3177083 C40.2631181,48.6927083 41.6799097,47.859375 42.9655168,46.8697917 L49.2361313,49.3697917 C49.8133427,49.578125 50.4692647,49.3697917 50.7841073,48.796875 L55.8215883,40.1510417 C56.1364309,39.578125 56.0052465,38.9270833 55.5067458,38.5625 L50.2331328,34.4479167 Z M31.5,41.375 C26.3050976,41.375 22.054723,37.15625 22.054723,32 C22.054723,26.84375 26.3050976,22.625 31.5,22.625 C36.6949024,22.625 40.945277,26.84375 40.945277,32 C40.945277,37.15625 36.6949024,41.375 31.5,41.375 Z"/></g><g transform="rotate(-8 1085.16 -3587.408)"><rect width="135" height="43" fill="#F4F4FA"/><g fill="#F64C72" fill-rule="nonzero" transform="translate(13.2 16.384)"><polygon points="6.496 7.536 2.4 7.536 2.4 5.84 6 5.84 6 3.84 2.4 3.84 2.4 2.272 6.496 2.272 6.496 .192 0 .192 0 9.616 6.496 9.616"/><path d="M11.12,0.192 L8.896,0.192 L8.896,9.616 L11.296,9.616 L11.296,6.272 C11.296,4.88 11.2,4.176 11.2,4.176 L11.264,4.176 C11.264,4.176 11.488,4.656 12.096,5.44 L15.296,9.616 L17.44,9.616 L17.44,0.192 L15.04,0.192 L15.04,3.632 C15.04,4.832 15.088,5.568 15.088,5.568 L15.024,5.568 C15.024,5.568 14.832,5.152 14.32,4.464 L11.12,0.192 Z"/><polygon points="24.096 9.616 24.096 2.272 26.656 2.272 26.656 .192 19.2 .192 19.2 2.272 21.712 2.272 21.712 9.616"/><path d="M35.984,0.192 L33.088,0.192 L32.08,5.152 C31.824,6.432 31.68,7.84 31.68,7.84 L31.616,7.84 C31.616,7.84 31.472,6.448 31.216,5.136 L30.24,0.192 L27.696,0.192 L29.648,9.616 L33.04,9.616 L34.064,5.28 C34.368,3.968 34.448,2.576 34.448,2.576 L34.512,2.576 C34.512,2.576 34.576,3.984 34.864,5.264 L35.824,9.616 L39.328,9.616 L41.28,0.192 L38.832,0.192 L37.904,5.152 C37.664,6.416 37.536,7.84 37.536,7.84 L37.472,7.84 C37.472,7.84 37.312,6.448 37.04,5.136 L35.984,0.192 Z"/><polygon points="43.2 .192 43.2 9.616 45.6 9.616 45.6 .192"/><path d="M54.272,6.384 C53.936,7.248 53.264,7.68 52.512,7.68 C51.04,7.68 50.304,6.672 50.304,4.944 C50.304,3.184 51.12,2.128 52.448,2.128 C53.456,2.128 53.856,2.688 54.112,3.568 L56.448,2.432 C55.76,0.912 54.528,0 52.512,0 C49.552,0 47.84,1.744 47.84,4.88 C47.84,8.016 49.632,9.808 52.224,9.808 C54.4,9.808 55.504,9.072 56.368,7.584 L54.272,6.384 Z"/><polygon points="66.464 9.616 63.28 4.752 66.16 .192 63.408 .192 61.216 3.792 60.688 3.792 60.688 .192 58.288 .192 58.288 9.616 60.688 9.616 60.688 5.872 61.2 5.872 63.6 9.616"/><polygon points="68.224 .192 68.224 9.616 74.144 9.616 74.144 7.536 70.624 7.536 70.624 .192"/><path d="M81.216.192 81.216 5.728C81.216 6.976 81.008 7.808 79.648 7.808 78.272 7.808 78.064 6.976 78.064 5.76L78.064.192 75.664.192 75.664 6.448C75.664 9.008 77.472 9.808 79.648 9.808 81.824 9.808 83.616 9.008 83.616 6.448L83.616.192 81.216.192ZM88.4.192 86.176.192 86.176 9.616 88.576 9.616 88.576 6.272C88.576 4.88 88.48 4.176 88.48 4.176L88.544 4.176C88.544 4.176 88.768 4.656 89.376 5.44L92.576 9.616 94.72 9.616 94.72.192 92.32.192 92.32 3.632C92.32 4.832 92.368 5.568 92.368 5.568L92.304 5.568C92.304 5.568 92.112 5.152 91.6 4.464L88.4.192ZM101.44 4.528 101.44 6.416 103.312 6.416 103.312 6.608C103.312 7.248 102.896 7.856 101.632 7.856 99.968 7.856 99.424 6.528 99.424 4.992 99.424 2.624 100.768 2.128 101.568 2.128 102.4 2.128 102.96 2.608 103.232 3.568L105.568 2.432C104.944.912 103.568-1.13686838e-13 101.632-1.13686838e-13 98.672-1.13686838e-13 96.96 1.792 96.96 4.944 96.96 8.304 98.752 9.808 101.2 9.808 102.368 9.808 103.28 9.44 103.792 8.608L104.192 9.616 105.6 9.616 105.6 4.528 101.44 4.528Z"/></g></g><g transform="rotate(3 -1965.543 5062.77)"><rect width="60" height="43" fill="#F4F4FA"/><g fill="#F64C72" fill-rule="nonzero" transform="translate(12.16 16.368)"><polygon points="4.896 9.632 4.896 2.288 7.456 2.288 7.456 .208 0 .208 0 2.288 2.512 2.288 2.512 9.632"/><polygon points="15.712 7.552 11.616 7.552 11.616 5.856 15.216 5.856 15.216 3.856 11.616 3.856 11.616 2.288 15.712 2.288 15.712 .208 9.216 .208 9.216 9.632 15.712 9.632"/><path d="M17.232,7.568 C17.776,9.248 19.072,9.824 20.912,9.824 C22.992,9.824 24.704,9.088 24.704,6.976 C24.704,5.152 23.76,4.464 21.616,3.808 C20.576,3.52 20.144,3.264 20.144,2.72 C20.144,2.192 20.576,2 21.072,2 C21.648,2 22.24,2.304 22.32,3.072 L24.72,2.432 C24.512,0.64 23.024,0 21.024,0 C19.312,0 17.6,0.704 17.6,2.896 C17.6,4.448 18.368,5.344 20.768,6.08 C21.888,6.416 22.208,6.656 22.208,7.2 C22.208,7.744 21.728,7.984 21.104,7.984 C20.256,7.984 19.584,7.376 19.408,6.528 L17.232,7.568 Z"/><polygon points="30.816 9.632 30.816 2.288 33.376 2.288 33.376 .208 25.92 .208 25.92 2.288 28.432 2.288 28.432 9.632"/></g></g><g transform="matrix(-1 0 0 1 274.105 42.348)"><polygon points="0 0 60 0 60 55 0 55"/><path fill="#F64C72" fill-rule="nonzero" d="M49,5 L9,5 C6.25,5 4,7.07 4,9.6 L4,51 L14,41.8 L49,41.8 C51.75,41.8 54,39.73 54,37.2 L54,9.6 C54,7.07 51.75,5 49,5 Z"/><ellipse cx="16.5" cy="24.167" fill="#FFF" fill-rule="nonzero" rx="3.333" ry="3.067"/><ellipse cx="41.5" cy="24.167" fill="#FFF" fill-rule="nonzero" rx="3.333" ry="3.067"/><ellipse cx="29" cy="19.567" fill="#FFF" fill-rule="nonzero" rx="3.333" ry="3.067"/></g><path fill="#FFF" fill-rule="nonzero" d="M624.1975 366.438218C625.836195 366.458552 627.495903 366.46209 629.177313 366.448645L629.193304 368.448581C627.498342 368.462134 625.825031 368.458567 624.172684 368.438064L624.1975 366.438218ZM639.138348 366.180613 639.228304 368.178589C637.536287 368.25477 635.864827 368.315168 634.213397 368.359941L634.159193 366.360676C635.798655 366.316227 637.458198 366.25626 639.138348 366.180613ZM614.247283 366.09546C615.882085 366.189449 617.538526 366.265273 619.217533 366.322724L619.149138 368.321554C617.454706 368.263575 615.782797 368.187043 614.132487 368.092163L614.247283 366.09546ZM649.081364 365.567683 649.236086 367.561689C647.549056 367.692592 645.88142 367.808927 644.232766 367.910831L644.10938 365.914641C645.747542 365.813385 647.404733 365.697779 649.081364 365.567683ZM604.319861 365.275122C605.94801 365.452449 607.597841 365.610151 609.270639 365.748016L609.106364 367.741258C607.416162 367.601959 605.748905 367.442591 604.103316 367.263365L604.319861 365.275122ZM659.017942 364.650554 659.229618 366.63932C657.548516 366.81825 655.885661 366.983701 654.240725 367.135792L654.056589 365.144287C655.692303 364.993048 657.345978 364.828511 659.017942 364.650554ZM594.470764 363.92252C596.087553 364.192443 597.724915 364.441266 599.384699 364.668814L599.113049 366.65028C597.434009 366.420092 595.777414 366.168346 594.141423 365.895217L594.470764 363.92252ZM668.924277 363.467094 669.18481 365.450052C668.824787 365.497288 668.824787 365.497288 668.46362 365.544413 667.035402 365.730509 665.61971 365.907465 664.216377 366.075344L663.978812 364.089504C665.375168 363.922459 666.78391 363.746372 668.205206 363.561178 668.565316 363.514191 668.565316 363.514191 668.924277 363.467094ZM584.738453 361.990383C586.339823 362.360598 587.95861 362.708226 589.597613 363.033246L589.208582 364.995045C587.548989 364.665942 585.909713 364.313914 584.287962 363.938987L584.738453 361.990383ZM678.808416 362.090028 679.100656 364.068562C677.473967 364.308833 675.822552 364.545659 674.146249 364.779026L673.870478 362.798129C675.54132 362.565523 677.187246 362.329484 678.808416 362.090028ZM688.667443 360.541121 688.997081 362.513768C687.377266 362.784447 685.729822 363.051278 684.054547 363.314243L683.744407 361.338436C685.413219 361.076485 687.054165 360.810707 688.667443 360.541121ZM575.128507 359.441782C576.710418 359.916082 578.302869 360.366183 579.910438 360.792536L579.397731 362.725702C577.769386 362.293839 576.156374 361.837927 574.554115 361.357526L575.128507 359.441782ZM698.497545 358.786668 698.87215 360.751273C697.261747 361.058339 695.620082 361.36105 693.946894 361.659385L693.595824 359.690438C695.261215 359.393494 696.895037 359.092229 698.497545 358.786668ZM565.692539 356.289392C567.256465 356.864676 568.817029 357.41317 570.382764 357.936756L569.748482 359.833513C568.163674 359.303548 566.584396 358.748478 565.002078 358.166429L565.692539 356.289392ZM708.259063 356.787907 708.688836 358.741185C707.090514 359.092858 705.456225 359.439512 703.785625 359.781122L703.384949 357.821669C705.045914 357.482028 706.670507 357.137431 708.259063 356.787907ZM717.963789 354.477017 718.463475 356.41359C716.88112 356.821879 715.256446 357.224237 713.588978 357.620639L713.126415 355.674865C714.781598 355.281384 716.393901 354.882089 717.963789 354.477017ZM556.449119 352.608223C558.009008 353.273188 559.534678 353.903767 561.046926 354.507134L560.305766 356.364736C558.778661 355.75544 557.238659 355.118938 555.664828 354.448029L556.449119 352.608223ZM727.538412 351.77446 728.129697 353.685057C726.574566 354.166334 724.968474 354.640409 723.310727 355.107256L722.768584 353.182138C724.410074 352.719869 725.999791 352.250628 727.538412 351.77446ZM547.360506 348.546901C548.99297 349.302249 550.46976 349.976296 551.900358 350.617287L551.082577 352.442454C549.643994 351.797885 548.160006 351.120553 546.520645 350.362013L547.360506 348.546901ZM736.931783 348.541855 737.649207 350.408752C736.134845 350.990701 734.556672 351.563476 732.913595 352.127067L732.264688 350.235264C733.885088 349.679451 735.440432 349.114962 736.931783 348.541855ZM746.000984 344.561935 746.903115 346.346917C745.46192 347.075297 743.936802 347.791173 742.325858 348.494606L741.525514 346.661726C743.102658 345.973051 744.593859 345.273097 746.000984 344.561935ZM538.292279 344.313075C539.509009 344.878127 540.062152 345.136875 542.826403 346.432088L541.977819 348.243139C540.005131 347.318819 539.159669 346.922892 538.395247 346.566679L538.053196 346.407415C537.862283 346.318592 537.666628 346.227669 537.449882 346.127012L538.292279 344.313075ZM529.142889 340.215275C530.611163 340.838637 532.125833 341.502628 533.741715 342.229273L532.921456 344.053328C531.317815 343.332187 529.815889 342.673783 528.361303 342.056233L529.142889 340.215275ZM754.395179 339.47952 755.585151 341.086993C754.289855 342.045868 752.876526 342.985765 751.341404 343.907065L750.312226 342.192191C751.793158 341.303413 753.152847 340.399188 754.395179 339.47952ZM519.741856 336.563734C521.297311 337.104221 522.867136 337.684369 524.469274 338.308955L523.742834 340.172362C522.16332 339.556595 520.616762 338.985047 519.085401 338.452931L519.741856 336.563734ZM761.28493 332.700908 762.912948 333.862612C761.959504 335.198773 760.830197 336.502501 759.51671 337.775338L758.124896 336.339073C759.353073 335.148908 760.40312 333.936682 761.28493 332.700908ZM510.072253 333.675311C511.698501 334.078964 513.318249 334.523235 514.940654 335.009128L514.366857 336.92505C512.774563 336.448175 511.185468 336.012312 509.59045 335.61641L510.072253 333.675311ZM764.804218 323.925353 766.787886 324.180425C766.564011 325.921473 766.127211 327.613605 765.458949 329.265448L763.604922 328.515391C764.208041 327.024573 764.601891 325.498826 764.804218 323.925353ZM765.959437 313.862047C766.400128 315.642062 766.699691 317.306786 766.852232 318.933056L764.860973 319.119834C764.718415 317.600008 764.436182 316.031583 764.01805 314.342691L765.959437 313.862047ZM762.044726 304.387752C762.933298 305.912284 763.702793 307.448378 764.34352 308.975267L762.499311 309.74915C761.892736 308.303647 761.162201 306.845325 760.316804 305.394869L762.044726 304.387752ZM755.962577 296.185811C757.127164 297.455881 758.21459 298.770153 759.216504 300.116284L757.612119 301.310415C756.651021 300.019123 755.607092 298.757421 754.488475 297.537486L755.962577 296.185811ZM748.364965 289.373528C749.739113 290.38411 751.059718 291.457802 752.32033 292.587105L750.98583 294.076772C749.772936 292.990217 748.502234 291.957098 747.180048 290.98473L748.364965 289.373528ZM739.614053 284.165522C741.154592 284.887998 742.657178 285.686269 744.117023 286.555616L743.093715 288.273999C741.69005 287.438108 740.245547 286.670694 738.764849 285.976282L739.614053 284.165522ZM729.947973 280.77611C731.606944 281.173384 733.239685 281.654354 734.842729 282.215962L734.181459 284.103479C732.642272 283.564243 731.074768 283.10249 729.482202 282.721119L729.947973 280.77611ZM714.789859 279.514779 714.922161 281.510398C713.30879 281.617358 711.683603 281.802485 710.048028 282.067124L709.728578 280.092801C711.42609 279.81814 713.113728 279.6259 714.789859 279.514779ZM719.884289 279.426776C721.596557 279.481988 723.291844 279.623092 724.967711 279.848087L724.701587 281.830303C723.092487 281.614272 721.464507 281.478769 719.819833 281.425737L719.884289 279.426776ZM168.280285 381.694471C169.978372 381.806091 171.621101 381.859177 173.207893 381.852529L173.216273 383.852511C171.581824 383.859359 169.892644 383.804772 168.149102 383.690164L168.280285 381.694471ZM182.952868 380.908252 183.361888 382.865981C181.752234 383.202279 180.065756 383.451183 178.303496 383.614943L178.118441 381.623522C179.807224 381.46659 181.419076 381.228701 182.952868 380.908252ZM158.460188 380.509996C160.1359 380.793341 161.769764 381.032792 163.361707 381.227486L163.118917 383.212694C161.496026 383.014216 159.83199 382.770343 158.126743 382.482004L158.460188 380.509996ZM148.73894 378.493967C150.388171 378.892972 152.003822 379.257667 153.586324 379.587484L153.178262 381.545413C151.574547 381.211174 149.938178 380.841803 148.268641 380.437886L148.73894 378.493967ZM191.993053 377.539115 193.007174 379.262936C191.552363 380.118799 189.988389 380.851281 188.317815 381.463465L187.629661 379.585582C189.189279 379.014058 190.644137 378.33268 191.993053 377.539115ZM139.124237 375.896967C140.748389 376.377429 142.343817 376.830089 143.911612 377.254697L143.388784 379.18515C141.805834 378.756438 140.195587 378.299574 138.556895 377.814811L139.124237 375.896967ZM129.619589 372.882905C131.224853 373.423277 132.80324 373.9401 134.356972 374.433601L133.751532 376.33976C132.186691 375.842731 130.597443 375.322351 128.981521 374.778391L129.619589 372.882905ZM199.386491 371.234628 200.845538 372.60254C199.664638 373.862114 198.454073 375.050955 197.214597 376.166537L195.876632 374.679981C197.073523 373.602727 198.243763 372.453487 199.386491 371.234628ZM120.217899 369.566202C121.80962 370.151154 123.372396 370.714695 124.910901 371.258035L124.244892 373.143885C122.698244 372.59767 121.127523 372.031263 119.528018 371.443451L120.217899 369.566202ZM198.486868 368.118074C200.03999 368.205001 201.684627 368.244638 203.424545 368.236686L203.433686 370.236665C201.654437 370.244797 199.969588 370.20419 198.375105 370.114949L198.486868 368.118074ZM213.290437 367.769773 213.456195 369.762892C211.712595 369.907899 210.039028 370.019523 208.433122 370.097995L208.33551 368.100378C209.918193 368.023041 211.56908 367.912929 213.290437 367.769773ZM110.880775 366.023593C112.469396 366.643166 114.017872 367.239572 115.538082 367.816898L114.828026 369.68661C113.302099 369.107112 111.748091 368.508576 110.154073 367.886898L110.880775 366.023593ZM188.794017 366.668237C190.248523 367.07016 191.83713 367.39506 193.5676 367.642766L193.2842 369.622585C191.472165 369.363203 189.800574 369.021332 188.261322 368.595991L188.794017 366.668237ZM223.166724 366.68841 223.431419 368.670817C222.804971 368.754461 222.171723 368.836075 221.529596 368.915911 220.480236 369.04637 219.452392 369.167052 218.445677 369.278011L218.226566 367.29005C219.223964 367.180118 220.2426 367.060516 221.282843 366.931191 221.919008 366.852096 222.546278 366.771253 223.166724 366.68841ZM205.581017 363.569874 207.217975 364.718946C206.231869 366.123744 205.217649 367.473734 204.176088 368.766323L202.618762 367.511437C203.632262 366.253673 204.61997 364.938973 205.581017 363.569874ZM232.982865 365.103651 233.3619 367.067406C231.765883 367.375462 230.11489 367.666667 228.406705 367.941044L228.089521 365.966356C229.777277 365.69526 231.407662 365.407689 232.982865 365.103651ZM180.359631 362.295099C181.466995 363.317752 182.759641 364.203303 184.258055 364.957198L183.359158 366.743811C181.697062 365.907562 180.249909 364.916163 179.002734 363.764395L180.359631 362.295099ZM101.608351 362.334678C103.230922 362.990572 104.760032 363.604536 106.246527 364.196446L105.506643 366.054556C104.016746 365.461291 102.484451 364.846049 100.858811 364.188913L101.608351 362.334678ZM242.639076 362.847282 243.179686 364.772831C241.616339 365.21175 239.988309 365.628165 238.29177 366.022316L237.839171 364.0742C239.506576 363.686818 241.105276 363.277905 242.639076 362.847282ZM251.988379 359.634546 252.760398 361.479536C251.255777 362.10913 249.677984 362.706568 248.019571 363.272974L247.373162 361.380316C248.989638 360.828233 250.525546 360.246655 251.988379 359.634546ZM92.3509424 358.563866C92.5430975 358.642353 92.921329 358.796884 93.3159959 358.958138L93.6543502 359.096386C94.0445606 359.255822 94.4027375 359.402175 94.5592402 359.466122L94.640039 359.499136C95.5649161 359.876998 96.2788001 360.168468 96.9794144 360.454192L96.2241669 362.30611C95.523099 362.020201 94.8088582 361.728586 93.8836258 361.350579 93.8130282 361.321736 92.0886508 360.617135 91.5946858 360.415373L92.3509424 358.563866ZM210.783879 355.157413 212.539273 356.115845C211.720691 357.615099 210.874889 359.072861 210.002668 360.486337L208.300637 359.436055C209.154052 358.053056 209.982086 356.625918 210.783879 355.157413ZM175.682021 354.210026C176.135023 355.849352 176.723249 357.31251 177.461852 358.619842L175.720541 359.60363C174.898174 358.148035 174.249185 356.533731 173.754269 354.742731L175.682021 354.210026ZM260.697314 355.118989 261.773256 356.804916C260.373269 357.698373 258.907373 358.542006 257.358715 359.341172L256.441557 357.563864C257.935918 356.792718 259.34883 355.979578 260.697314 355.118989ZM83.0648486 354.809236C84.4670899 355.365273 85.9795495 355.972741 87.7112438 356.674489L86.9601009 358.528076C85.2327194 357.828076 83.7247512 357.222412 82.3276241 356.668402L83.0648486 354.809236ZM73.661749 351.271099C75.0854628 351.762394 76.6500778 352.332475 78.3891311 352.991658L77.6802523 354.861816C75.9588195 354.209312 74.4126376 353.645947 73.0093422 353.161699L73.661749 351.271099ZM268.448354 349.079334 269.809073 350.545091C268.53033 351.732198 267.259847 352.822457 265.944819 353.851148L264.712545 352.27587C265.981457 351.283253 267.209444 350.229462 268.448354 349.079334ZM63.6426837 348.873278C64.9568495 348.873278 66.6682355 349.172678 68.8298071 349.757837L68.3071986 351.68835C66.3012441 351.145318 64.7462487 350.873278 63.6426837 350.873278L63.6426837 348.873278ZM215.123214 346.219721 216.959956 347.011163C216.28749 348.57179 215.587975 350.102534 214.862234 351.60027L213.062401 350.728145C213.775128 349.257268 214.462351 347.753422 215.123214 346.219721ZM174.465727 344.532464C174.508885 346.311553 174.613336 347.932662 174.785906 349.430393L172.799051 349.659319C172.619144 348.097911 172.510864 346.417365 172.466315 344.580967L174.465727 344.532464ZM275.397746 341.974887 276.855232 343.344462C276.599023 343.617117 275.680751 344.596205 275.722595 344.551615 274.735932 345.603038 274.087925 346.287592 273.412624 346.987729L271.973109 345.599277C272.640592 344.907246 273.283289 344.228302 274.264181 343.183029 274.221741 343.228255 275.140764 342.248365 275.397746 341.974887ZM218.663324 336.984582 220.557463 337.626641C220.014832 339.227455 219.444536 340.809139 218.84741 342.368077L216.979731 341.652692C217.567501 340.118182 218.128983 338.560942 218.663324 336.984582ZM282.5578 334.884412 283.880363 336.384687C282.690209 337.433864 281.521127 338.540824 280.291364 339.772788L278.875886 338.35984C280.134169 337.099304 281.333709 335.963505 282.5578 334.884412ZM172.693831 334.505869 174.691039 334.61151C174.592946 336.466017 174.524906 338.081942 174.484732 339.582745L172.485449 339.529228C172.526134 338.009299 172.594883 336.376545 172.693831 334.505869ZM290.721234 328.80292 291.776738 330.501717C290.358981 331.382604 289.01151 332.302251 287.714365 333.269195L286.51905 331.665692C287.861107 330.665269 289.255194 329.713807 290.721234 328.80292ZM221.501019 327.463018 223.437265 327.963966C223.016459 329.59045 222.566508 331.208875 222.088238 332.814935L220.171424 332.244125C220.64277 330.661316 221.086246 329.066182 221.501019 327.463018ZM173.296923 324.517364 175.293338 324.637054C175.251719 325.331255 175.207641 326.049554 175.154507 326.902639 175.12757 327.335132 175.037996 328.763722 174.998187 329.400075L174.983756 329.63101 172.987632 329.50656C173.01286 329.101899 173.127328 327.276785 173.158375 326.778311 173.211421 325.926653 173.255408 325.209827 173.296923 324.517364ZM299.718157 324.12636 300.514176 325.961122C298.955136 326.637519 297.472485 327.340934 296.057887 328.073092L295.138577 326.296897C296.593889 325.543667 298.117662 324.820742 299.718157 324.12636ZM309.181425 320.609808 309.817706 322.505895C309.034009 322.768884 308.236974 323.037508 307.424868 323.312346 306.637667 323.578766 305.867107 323.850261 305.112642 324.126885L304.424161 322.249122C305.194414 321.966709 305.98075 321.689657 306.783724 321.417898 307.597443 321.142514 308.396094 320.873346 309.181425 320.609808ZM223.644463 317.747719 225.611827 318.107552C225.311426 319.749972 224.979256 321.397008 224.616082 323.043391L222.663035 322.612571C223.021008 320.98976 223.348406 319.366391 223.644463 317.747719ZM318.691906 317.484263 319.302504 319.388776C317.778178 319.877484 316.19777 320.391004 314.556457 320.930873L313.931544 319.031008C315.577531 318.489602 317.162703 317.974535 318.691906 317.484263ZM173.770513 314.561355 175.769579 314.622485C175.720142 316.239165 175.653178 317.892846 175.568296 319.635412L173.570664 319.538106C173.654984 317.807086 173.721464 316.165357 173.770513 314.561355ZM328.265389 314.520325 328.834273 316.437711C327.306094 316.891118 325.71699 317.373684 324.060416 317.887382L323.468049 315.97712C325.132277 315.461048 326.729194 314.97611 328.265389 314.520325ZM337.93055 311.82717 338.429063 313.764045C336.892033 314.159646 335.292843 314.589643 333.621646 315.056756L333.083265 313.130582C334.767445 312.65984 336.379899 312.226277 337.93055 311.82717ZM225.059826 307.928924 227.049036 308.136391C226.877168 309.784276 226.669309 311.453098 226.426066 313.13627L224.446629 312.850213C224.686115 311.193043 224.89071 309.550419 225.059826 307.928924ZM347.743498 309.591971 348.123748 311.555491C346.558712 311.858571 344.944827 312.200474 343.265468 312.585114L342.81895 310.635596C344.519978 310.245993 346.15593 309.899414 347.743498 309.591971ZM357.714977 308.086214 357.926543 310.074992C356.294208 310.24864 354.666049 310.458386 353.011847 310.709297L352.711917 308.731914C354.395577 308.476535 356.053198 308.262993 357.714977 308.086214ZM367.768972 307.427073 367.830978 309.426112C366.084774 309.480275 364.450852 309.555624 362.868968 309.656807L362.741301 307.660886C364.346028 307.558242 366.00169 307.481891 367.768972 307.427073ZM173.96849 304.515337 175.965704 304.620869C175.902626 305.814637 175.870678 307.033717 175.870297 308.27762 175.870294 308.728981 175.868799 309.162188 175.865778 309.599989L173.865826 309.58619C173.868815 309.152985 173.870294 308.724373 173.870297 308.277306 173.870688 306.998343 173.903553 305.744282 173.96849 304.515337ZM377.799774 307.301938 377.802615 309.301938C375.837387 309.304728 374.273318 309.312328 372.812042 309.32777L372.790908 307.327882C374.259188 307.312365 375.828955 307.304738 377.799774 307.301938ZM225.650174 298.038007 227.650046 298.060577C227.631545 299.699943 227.57 301.384456 227.465643 303.10563L225.469309 302.98459C225.571702 301.295817 225.632048 299.644117 225.650174 298.038007ZM175.346739 294.405268 177.295652 294.85442C176.938407 296.404542 176.646693 298.014403 176.422337 299.683174L174.440171 299.416683C174.672707 297.687073 174.975464 296.016269 175.346739 294.405268ZM227.14152 287.962207C227.339112 289.563475 227.480145 291.253338 227.564007 293.020275L225.566255 293.115091C225.484721 291.397177 225.347858 289.757278 225.156575 288.207145L227.14152 287.962207ZM178.745172 284.714743 180.538551 285.600063C179.837272 287.020633 179.209963 288.52117 178.660082 290.10014L176.771338 289.44238C177.348106 287.786204 178.007192 286.209657 178.745172 284.714743ZM224.690247 277.97483C225.307746 279.424258 225.831485 281.073378 226.259319 282.904123L224.311792 283.359248C223.909075 281.63598 223.420017 280.096063 222.850268 278.758714L224.690247 277.97483ZM184.579621 276.216248 186.036877 277.586068C184.950318 278.741982 183.937658 280.003042 183.005783 281.36649L181.354598 280.237956C182.344624 278.789427 183.422084 277.447671 184.579621 276.216248ZM217.776593 270.079596C219.322592 271.017627 220.698827 272.14085 221.86886 273.42724L220.389316 274.772955C219.350527 273.630861 218.123588 272.629487 216.739131 271.789471L217.776593 270.079596ZM192.722678 270.034256 193.641288 271.810813C192.224903 272.543188 190.862088 273.405919 189.566514 274.395114L188.352805 272.805488C189.741258 271.745378 191.202833 270.820128 192.722678 270.034256ZM202.676092 267.013291 202.892885 269.001507C201.310452 269.174054 199.730121 269.496527 198.176594 269.967184L197.596703 268.053097C199.268771 267.546528 200.970658 267.19925 202.676092 267.013291ZM207.868198 266.950332C209.635076 267.103493 211.353525 267.436533 212.986257 267.941898L212.394894 269.852471C210.899619 269.389652 209.321524 269.083813 207.695477 268.94286L207.868198 266.950332Z"/><g transform="rotate(-8 2275.433 -89.627)"><rect width="162" height="43" fill="#F4F4FA"/><g fill="#F64C72" fill-rule="nonzero" transform="translate(12.16 16.384)"><path d="M7.2 9.616 9.776 9.616 6.336.192 3.408.192 0 9.616 2.512 9.616 3.104 7.856 6.576 7.856 7.2 9.616ZM4.032 5.12C4.56 3.584 4.8 2.384 4.8 2.384L4.864 2.384C4.864 2.384 5.056 3.568 5.616 5.136L5.872 5.856 3.776 5.856 4.032 5.12ZM13.76.192 11.536.192 11.536 9.616 13.936 9.616 13.936 6.272C13.936 4.88 13.84 4.176 13.84 4.176L13.904 4.176C13.904 4.176 14.128 4.656 14.736 5.44L17.936 9.616 20.08 9.616 20.08.192 17.68.192 17.68 3.632C17.68 4.832 17.728 5.568 17.728 5.568L17.664 5.568C17.664 5.568 17.472 5.152 16.96 4.464L13.76.192Z"/><polygon points="25.28 9.616 25.28 6.32 28.736 6.32 28.736 4.32 25.28 4.32 25.28 2.272 29.232 2.272 29.232 .192 22.88 .192 22.88 9.616"/><path d="M35.296 9.808C38.144 9.808 39.84 8.064 39.84 4.912 39.84 1.744 38.144 0 35.296 0 32.448 0 30.752 1.744 30.752 4.912 30.752 8.064 32.448 9.808 35.296 9.808ZM35.296 2.144C36.672 2.144 37.344 3.216 37.344 4.944 37.344 6.672 36.688 7.728 35.296 7.728 33.904 7.728 33.248 6.672 33.248 4.944 33.248 3.216 33.92 2.144 35.296 2.144ZM49.968 9.616C49.648 9.28 49.536 8.976 49.424 8.592L48.944 6.864C48.72 6.048 48.272 5.696 47.408 5.552L47.408 5.504C48.64 5.36 49.44 4.592 49.44 3.136 49.44.912 48.032.192 45.936.192L42.08.192 42.08 9.616 44.48 9.616 44.48 6.464 45.312 6.464C45.968 6.464 46.256 6.576 46.432 7.28L46.768 8.608C46.864 9.008 46.992 9.392 47.296 9.616L49.968 9.616ZM44.48 2.224 45.776 2.224C46.56 2.224 46.992 2.624 46.992 3.36 46.992 4.192 46.528 4.464 45.76 4.464L44.48 4.464 44.48 2.224ZM54.368 7.584 54.368 2.224 55.344 2.224C56.864 2.224 57.728 2.832 57.728 4.944 57.728 6.976 56.848 7.584 55.216 7.584L54.368 7.584ZM55.44 9.616C58.208 9.616 60.224 8.288 60.224 4.8 60.224 1.488 58.208.192 55.616.192L51.968.192 51.968 9.616 55.44 9.616Z"/><polygon points="68.96 7.536 64.864 7.536 64.864 5.84 68.464 5.84 68.464 3.84 64.864 3.84 64.864 2.272 68.96 2.272 68.96 .192 62.464 .192 62.464 9.616 68.96 9.616"/><path d="M79.248 9.616C78.928 9.28 78.816 8.976 78.704 8.592L78.224 6.864C78 6.048 77.552 5.696 76.688 5.552L76.688 5.504C77.92 5.36 78.72 4.592 78.72 3.136 78.72.912 77.312.192 75.216.192L71.36.192 71.36 9.616 73.76 9.616 73.76 6.464 74.592 6.464C75.248 6.464 75.536 6.576 75.712 7.28L76.048 8.608C76.144 9.008 76.272 9.392 76.576 9.616L79.248 9.616ZM73.76 2.224 75.056 2.224C75.84 2.224 76.272 2.624 76.272 3.36 76.272 4.192 75.808 4.464 75.04 4.464L73.76 4.464 73.76 2.224ZM86.48.192 86.48 5.728C86.48 6.976 86.272 7.808 84.912 7.808 83.536 7.808 83.328 6.976 83.328 5.76L83.328.192 80.928.192 80.928 6.448C80.928 9.008 82.736 9.808 84.912 9.808 87.088 9.808 88.88 9.008 88.88 6.448L88.88.192 86.48.192ZM93.664.192 91.44.192 91.44 9.616 93.84 9.616 93.84 6.272C93.84 4.88 93.744 4.176 93.744 4.176L93.808 4.176C93.808 4.176 94.032 4.656 94.64 5.44L97.84 9.616 99.984 9.616 99.984.192 97.584.192 97.584 3.632C97.584 4.832 97.632 5.568 97.632 5.568L97.568 5.568C97.568 5.568 97.376 5.152 96.864 4.464L93.664.192ZM106.704 4.528 106.704 6.416 108.576 6.416 108.576 6.608C108.576 7.248 108.16 7.856 106.896 7.856 105.232 7.856 104.688 6.528 104.688 4.992 104.688 2.624 106.032 2.128 106.832 2.128 107.664 2.128 108.224 2.608 108.496 3.568L110.832 2.432C110.208.912 108.832-2.27373675e-13 106.896-2.27373675e-13 103.936-2.27373675e-13 102.224 1.792 102.224 4.944 102.224 8.304 104.016 9.808 106.464 9.808 107.632 9.808 108.544 9.44 109.056 8.608L109.456 9.616 110.864 9.616 110.864 4.528 106.704 4.528Z"/><polygon points="119.84 7.536 115.744 7.536 115.744 5.84 119.344 5.84 119.344 3.84 115.744 3.84 115.744 2.272 119.84 2.272 119.84 .192 113.344 .192 113.344 9.616 119.84 9.616"/><path d="M124.464,0.192 L122.24,0.192 L122.24,9.616 L124.64,9.616 L124.64,6.272 C124.64,4.88 124.544,4.176 124.544,4.176 L124.608,4.176 C124.608,4.176 124.832,4.656 125.44,5.44 L128.64,9.616 L130.784,9.616 L130.784,0.192 L128.384,0.192 L128.384,3.632 C128.384,4.832 128.432,5.568 128.432,5.568 L128.368,5.568 C128.368,5.568 128.176,5.152 127.664,4.464 L124.464,0.192 Z"/></g></g><g transform="rotate(6 -2689.096 3504.332)"><rect width="80" height="43" fill="#F4F4FA"/><g fill="#F64C72" fill-rule="nonzero" transform="translate(13.2 16.368)"><path d="M2.4,7.6 L2.4,2.24 L3.376,2.24 C4.896,2.24 5.76,2.848 5.76,4.96 C5.76,6.992 4.88,7.6 3.248,7.6 L2.4,7.6 Z M3.472,9.632 C6.24,9.632 8.256,8.304 8.256,4.816 C8.256,1.504 6.24,0.208 3.648,0.208 L0,0.208 L0,9.632 L3.472,9.632 Z"/><polygon points="16.992 7.552 12.896 7.552 12.896 5.856 16.496 5.856 16.496 3.856 12.896 3.856 12.896 2.288 16.992 2.288 16.992 .208 10.496 .208 10.496 9.632 16.992 9.632"/><path d="M18.512,7.568 C19.056,9.248 20.352,9.824 22.192,9.824 C24.272,9.824 25.984,9.088 25.984,6.976 C25.984,5.152 25.04,4.464 22.896,3.808 C21.856,3.52 21.424,3.264 21.424,2.72 C21.424,2.192 21.856,2 22.352,2 C22.928,2 23.52,2.304 23.6,3.072 L26,2.432 C25.792,0.64 24.304,0 22.304,0 C20.592,0 18.88,0.704 18.88,2.896 C18.88,4.448 19.648,5.344 22.048,6.08 C23.168,6.416 23.488,6.656 23.488,7.2 C23.488,7.744 23.008,7.984 22.384,7.984 C21.536,7.984 20.864,7.376 20.688,6.528 L18.512,7.568 Z"/><polygon points="28.24 .208 28.24 9.632 30.64 9.632 30.64 .208"/><path d="M37.36 4.544 37.36 6.432 39.232 6.432 39.232 6.624C39.232 7.264 38.816 7.872 37.552 7.872 35.888 7.872 35.344 6.544 35.344 5.008 35.344 2.64 36.688 2.144 37.488 2.144 38.32 2.144 38.88 2.624 39.152 3.584L41.488 2.448C40.864.928 39.488.016 37.552.016 34.592.016 32.88 1.808 32.88 4.96 32.88 8.32 34.672 9.824 37.12 9.824 38.288 9.824 39.2 9.456 39.712 8.624L40.112 9.632 41.52 9.632 41.52 4.544 37.36 4.544ZM46.224.208 44 .208 44 9.632 46.4 9.632 46.4 6.288C46.4 4.896 46.304 4.192 46.304 4.192L46.368 4.192C46.368 4.192 46.592 4.672 47.2 5.456L50.4 9.632 52.544 9.632 52.544.208 50.144.208 50.144 3.648C50.144 4.848 50.192 5.584 50.192 5.584L50.128 5.584C50.128 5.584 49.936 5.168 49.424 4.48L46.224.208Z"/></g></g><polygon fill="#FFF" fill-rule="nonzero" points="710.679 278.087 710.679 288.087 708.679 288.087 708.679 280.087 700.679 280.087 700.679 278.087" transform="rotate(-157 705.679 283.087)"/><polygon fill="#FFF" fill-rule="nonzero" points="623.384 166.117 623.384 176.117 621.384 176.117 621.384 168.117 613.384 168.117 613.384 166.117" transform="rotate(-41 618.384 171.117)"/><polygon fill="#FFF" fill-rule="nonzero" points="300.843 261.314 300.843 271.314 298.843 271.314 298.843 263.314 290.843 263.314 290.843 261.314" transform="rotate(89 295.843 266.314)"/></g></svg>