<svg xmlns="http://www.w3.org/2000/svg" width="215" height="44" viewBox="0 0 215 44"><g fill="#FFF" transform="translate(1)"><path d="M67.1875 24.5784091C65.8193182 26.9727273 64.0113636 28.1454545 60.5420455 28.1454545 56.3886364 28.1454545 53.5056818 25.2625 53.5056818 20.2295455 53.5056818 15.1965909 56.2420455 12.4113636 60.9818182 12.4113636 64.2068182 12.4113636 66.2102273 13.8772727 67.2852273 16.3204545L63.5227273 18.1284091C63.1318182 16.7113636 62.4965909 15.8318182 60.8352273 15.8318182 58.6852273 15.8318182 57.4147727 17.5420455 57.4147727 20.3272727 57.4147727 23.1125 58.5875 24.725 60.9329545 24.725 62.1545455 24.725 63.2295455 24.0409091 63.7670455 22.6727273L67.1875 24.5784091 67.1875 24.5784091ZM71.1454545 10.3102273C72.4647727 10.3102273 73.4909091 10.9943182 73.4909091 12.4602273 73.4909091 13.9261364 72.4647727 14.5613636 71.1454545 14.5613636 69.9238636 14.5613636 68.8977273 13.8284091 68.8977273 12.4602273 68.8977273 11.0920455 69.9238636 10.3102273 71.1454545 10.3102273ZM73.0511364 15.9784091 73.0511364 27.8522727 69.2397727 27.8522727 69.2397727 15.9784091 73.0511364 15.9784091ZM84.5340909 27.3636364C83.4590909 27.9011364 82.1886364 28.1454545 80.625 28.1454545 78.2306818 28.1454545 76.5693182 27.0215909 76.5693182 24.1875L76.5693182 18.9102273 74.8590909 18.9102273 74.8590909 15.9784091 76.6181818 15.9784091 76.6181818 13.4863636 80.4295455 13.0465909 80.4295455 15.9784091 83.9477273 15.9784091 83.9477273 18.9102273 80.4295455 18.9102273 80.4295455 23.3079545C80.4295455 24.5295455 80.9181818 24.9204545 81.8465909 24.9204545 82.5795455 24.9204545 83.2636364 24.6272727 83.9477273 24.1386364L84.5340909 27.3636364 84.5340909 27.3636364ZM90.4465909 21.0113636C91.0818182 23.3079545 91.2284091 24.8715909 91.2284091 24.8715909L91.3261364 24.8715909C91.3261364 24.8715909 91.4727273 23.3079545 92.1568182 21.0113636L93.6715909 15.9784091 97.6784091 15.9784091 92.8897727 28.9272727C91.5215909 32.6409091 89.8602273 33.1784091 87.2704545 33.1784091 86.5375 33.1784091 85.7068182 33.0318182 85.0227273 32.8852273L85.6090909 29.5136364C86.0488636 29.8068182 86.6352273 29.9534091 87.1727273 29.9534091 88.1988636 29.9534091 88.8829545 29.5625 89.2738636 28.5363636L84.8761364 16.0272727 89.0295455 16.0272727 90.4465909 21.0113636 90.4465909 21.0113636Z"/><polygon points="103.444 12.753 103.444 24.53 109.112 24.53 109.112 27.852 99.584 27.852 99.584 12.705"/><path d="M120.644318 25.0181818 115.073864 25.0181818 114.145455 27.8522727 110.138636 27.8522727 115.611364 12.7534091 120.302273 12.7534091 125.823864 27.8522727 121.719318 27.8522727 120.644318 25.0181818 120.644318 25.0181818ZM116.197727 21.7931818 119.569318 21.7931818 119.178409 20.6204545C118.298864 18.0795455 117.956818 16.2227273 117.956818 16.2227273L117.859091 16.2227273C117.859091 16.2227273 117.468182 18.1284091 116.6375 20.6204545L116.197727 21.7931818 116.197727 21.7931818ZM136.622727 20.1318182C138.870455 20.4738636 139.945455 21.9397727 139.945455 23.6988636 139.945455 26.1420455 138.284091 27.8034091 134.570455 27.8034091L127.973864 27.8034091 127.973864 12.7045455 134.619318 12.7045455C137.648864 12.7045455 139.310227 14.1215909 139.310227 16.5159091 139.310227 18.3727273 138.284091 19.5943182 136.622727 20.0340909L136.622727 20.1318182 136.622727 20.1318182ZM133.739773 18.9590909C134.765909 18.9590909 135.45 18.5681818 135.45 17.5420455 135.45 16.4181818 134.814773 16.0272727 133.642045 16.0272727L131.834091 16.0272727 131.834091 18.9590909C131.834091 18.9590909 133.739773 18.9590909 133.739773 18.9590909ZM131.834091 24.5784091 134.228409 24.5784091C135.352273 24.5784091 136.036364 24.2852273 136.036364 23.1125 136.036364 22.1840909 135.352273 21.6954545 134.228409 21.6954545L131.834091 21.6954545 131.834091 24.5784091ZM157.438636 20.1318182C159.6375 20.4738636 160.419318 21.8420455 160.419318 23.3079545 160.419318 26.3863636 157.976136 27.8522727 154.311364 27.8522727L147.714773 27.8522727 150.353409 12.7534091 156.607955 12.7534091C159.735227 12.7534091 160.956818 14.1704545 160.956818 16.125 160.956818 18.4215909 159.344318 19.7897727 157.4875 20.0340909L157.438636 20.1318182 157.438636 20.1318182ZM152.161364 24.5784091 154.555682 24.5784091C155.777273 24.5784091 156.607955 24.0897727 156.607955 22.9170455 156.607955 22.1352273 156.217045 21.6954545 155.093182 21.6954545L152.698864 21.6954545 152.161364 24.5784091 152.161364 24.5784091ZM154.995455 18.9590909C156.021591 18.9590909 156.95 18.5681818 156.95 17.2977273 156.95 16.3693182 156.4125 15.9784091 155.435227 15.9784091L153.676136 15.9784091 153.1875 18.9102273 154.995455 18.9102273 154.995455 18.9590909ZM169.85 23.7477273 173.514773 24.6272727C172.830682 27.0215909 171.169318 28.1454545 167.846591 28.1454545 164.523864 28.1454545 162.471591 26.1420455 162.471591 23.0147727 162.471591 18.3238636 165.598864 15.7340909 169.019318 15.7340909 172.439773 15.7340909 174.052273 17.7863636 174.052273 20.0340909 174.052273 20.9625 173.856818 21.8909091 173.563636 22.575L166.576136 22.575C166.282955 24.1386364 166.918182 25.2625 168.188636 25.2625 169.019318 25.2136364 169.605682 24.8715909 169.85 23.7477273L169.85 23.7477273ZM170.143182 20.5715909C170.143182 20.425 170.192045 20.2295455 170.192045 20.0340909 170.192045 19.2034091 169.898864 18.5193182 168.921591 18.5193182 167.944318 18.5193182 167.260227 19.4477273 167.015909 20.5715909 166.967045 20.5715909 170.143182 20.5715909 170.143182 20.5715909ZM184.655682 20.2784091C182.945455 19.3988636 180.648864 19.6431818 180.209091 22.1352273L179.231818 27.8522727 175.371591 27.8522727 177.423864 15.9784091 180.795455 15.9784091 180.697727 19.2522727C181.528409 16.8090909 183.482955 15.2943182 185.535227 15.8318182L184.655682 20.2784091 184.655682 20.2784091ZM189.932955 23.7965909C189.835227 24.3829545 189.884091 24.8715909 190.665909 24.8715909 190.910227 24.8715909 191.154545 24.8227273 191.447727 24.725L190.8125 27.6079545C190.177273 27.8034091 189.444318 27.95 188.809091 27.95 186.463636 27.95 185.535227 26.7772727 185.926136 24.4806818L188.369318 10.7011364 192.229545 10.7011364 189.932955 23.7965909 189.932955 23.7965909ZM197.555682 23.7965909C197.457955 24.3829545 197.506818 24.8715909 198.288636 24.8715909 198.532955 24.8715909 198.777273 24.8227273 199.070455 24.725L198.435227 27.6079545C197.8 27.8034091 197.067045 27.95 196.431818 27.95 194.086364 27.95 193.157955 26.7772727 193.548864 24.4806818L195.063636 15.9784091 198.923864 15.9784091 197.555682 23.7965909 197.555682 23.7965909ZM197.457955 10.3102273C198.777273 10.3102273 199.803409 10.9943182 199.803409 12.4602273 199.803409 13.9261364 198.826136 14.5613636 197.457955 14.5613636 196.236364 14.5613636 195.210227 13.8284091 195.210227 12.4602273 195.210227 11.0920455 196.236364 10.3102273 197.457955 10.3102273ZM212.410227 23.7965909C212.3125 24.3829545 212.361364 24.8715909 213.143182 24.8715909 213.3875 24.8715909 213.631818 24.8227273 213.925 24.725L213.289773 27.6079545C212.654545 27.8034091 211.921591 27.95 211.286364 27.95 208.940909 27.95 208.0125 26.7772727 208.403409 24.4806818L209.038636 20.7670455C209.234091 19.6920455 209.038636 18.8125 207.817045 18.8125 206.888636 18.8125 206.106818 19.6431818 205.813636 21.5L204.689773 27.8034091 200.829545 27.8034091 202.881818 15.9295455 206.253409 15.9295455 206.302273 18.3238636C207.035227 16.5647727 208.110227 15.6363636 210.064773 15.6363636 211.921591 15.6363636 213.094318 16.8579545 213.094318 18.6659091 213.094318 19.0568182 213.094318 19.35 212.996591 19.6431818L212.410227 23.7965909 212.410227 23.7965909ZM30.7840909 1.66136364 36.1102273 4.73977273 36.0613636 21.2068182 23.3568182 28.6340909 17.7863636 25.4579545 17.8840909 9.1375 30.7840909 1.66136364M30.7840909 1.73598509e-15 16.4670455 8.25795455 16.3204545 26.2886364 23.3568182 30.3443182 37.5761364 22.0863636 37.625 3.95795455 30.7840909 1.73598509e-15 30.7840909 1.73598509e-15 30.7840909 1.73598509e-15Z"/><polygon points="14.512 3.65 14.878 3.86 17.174 5.179 16.444 6.45 14.512 5.341 .876 13.18 .736 30.359 6.47 33.616 5.746 34.891 -.362 31.421 -.736 31.209 -.733 30.778 -.586 12.747 -.583 12.327 -.219 12.118 14.147 3.86"/><polygon points="13.998 16.81 14.734 18.078 9.036 21.387 8.896 38.569 15.193 42.155 28.732 34.319 28.732 29.172 30.198 29.172 30.198 35.165 29.832 35.376 15.564 43.634 15.2 43.845 14.834 43.637 7.798 39.63 7.424 39.417 7.427 38.987 7.574 20.957 7.577 20.539 7.939 20.329"/></g></svg>