<svg xmlns="http://www.w3.org/2000/svg" width="30" height="32" viewBox="0 0 30 32"><g fill="#FFF" transform="translate(.977)"><path d="M23.0327626,0 L28.0403111,2.87947166 L28.0045429,16.0681628 L17.5959956,22.0759494 L12.4453743,19.1253796 L12.5526789,6.00778654 L23.0327626,0 Z M22.939754,1.21518987 L13.5293237,6.66042928 L13.4580326,18.5474225 L17.5216275,20.8607595 L26.7894756,15.4511099 L26.8251212,3.45734728 L22.939754,1.21518987 Z"/><polygon points="11.135 2.664 11.401 2.817 13.077 3.78 12.545 4.707 11.135 3.898 1.177 9.618 1.075 22.156 5.262 24.534 4.734 25.464 .274 22.932 0 22.778 .003 22.463 .11 9.304 .113 8.997 .378 8.844 10.868 2.817"/><polygon points="10.759 12.269 11.296 13.194 7.136 15.608 7.033 28.148 11.631 30.766 21.517 25.047 21.517 21.291 22.587 21.291 22.587 25.665 22.32 25.819 11.902 31.846 11.636 32 11.369 31.848 6.232 28.924 5.958 28.768 5.961 28.454 6.068 15.295 6.07 14.99 6.334 14.836"/></g></svg>