<svg xmlns="http://www.w3.org/2000/svg" width="93" height="62" style="background:#fff" viewBox="0 0 93 62"><g fill="none" fill-rule="evenodd"><rect width="93" height="62" fill="#FFF"/><g fill-rule="nonzero"><rect width="92.691" height="61.689" x=".155" y=".155" fill="#FFF"/><path fill="#000" d="M0,0 L0,62 L93,62 L93,0 L0,0 Z M0.620080198,0.620076553 L62.0003645,0.620076553 L62.0003645,30.3804703 L0.620080198,30.3804703 L0.620080198,0.620076553 Z M92.3799198,61.3799234 L0.620080198,61.3799234 L0.620080198,30.9994532 L92.3799198,30.9994532 L92.3799198,61.3799234 Z M92.3799198,30.3804703 L62.6204447,30.3804703 L62.6204447,0.620076553 L92.3799198,0.620076553 L92.3799198,30.3804703 Z"/><path fill="#E40422" d="M53.1005186,10.4986506 L53.1005186,17.327148 C53.1005186,17.4157303 53.0414633,17.4452578 52.9966251,17.3566754 L49.1033526,10.4406893 C49.0551699,10.3667994 48.9728411,10.3223421 48.8846294,10.3225795 L47.2113971,10.3225795 C47.1640591,10.3207319 47.1180844,10.3386509 47.0844823,10.3720453 C47.0508803,10.4054397 47.0326769,10.4513024 47.0342314,10.4986506 L47.0342314,20.4679943 C47.0323651,20.5155289 47.0504307,20.5616839 47.0840688,20.5953219 C47.1177069,20.6289598 47.1638622,20.6470253 47.2113971,20.645159 L48.6571573,20.645159 C48.7046922,20.6470253 48.7508475,20.6289598 48.7844856,20.5953219 C48.8181238,20.5616839 48.8361894,20.5155289 48.8343231,20.4679943 L48.8343231,13.6548075 C48.8343231,13.5662251 48.8933783,13.5366977 48.9382166,13.62528 L52.8347699,20.5270492 C52.8829526,20.6009391 52.9652814,20.6453964 53.0534931,20.645159 L54.7245382,20.645159 C54.7719798,20.6466956 54.8179409,20.6285239 54.8515048,20.5949602 C54.8850687,20.5613965 54.9032405,20.5154357 54.9017039,20.4679943 L54.9017039,10.4986506 C54.9032405,10.4512092 54.8850687,10.4052484 54.8515048,10.3716847 C54.8179409,10.338121 54.7719798,10.3199494 54.7245382,10.3214859 L53.2776844,10.3214859 C53.2301495,10.3196196 53.1839942,10.3376851 53.150356,10.371323 C53.1167179,10.404961 53.0986523,10.451116 53.1005186,10.4986506 M42.6717976,20.645159 L44.1328684,20.645159 C44.1804033,20.6470253 44.2265586,20.6289598 44.2601968,20.5953219 C44.2938349,20.5616839 44.3119005,20.5155289 44.3100342,20.4679943 L44.3100342,10.4986506 C44.3119005,10.451116 44.2938349,10.404961 44.2601968,10.371323 C44.2265586,10.3376851 44.1804033,10.3196196 44.1328684,10.3214859 L42.6717976,10.3214859 C42.624356,10.3199494 42.5783949,10.338121 42.544831,10.3716847 C42.5112671,10.4052484 42.4930953,10.4512092 42.4946319,10.4986506 L42.4946319,20.4679943 C42.4930953,20.5154357 42.5112671,20.5613965 42.544831,20.5949602 C42.5783949,20.6285239 42.624356,20.6466956 42.6717976,20.645159 M36.8450123,18.8461715 L36.8450123,10.4986506 C36.8465488,10.4512092 36.8283771,10.4052484 36.7948132,10.3716847 C36.7612493,10.338121 36.7152882,10.3199494 36.6678465,10.3214859 L35.2067757,10.3214859 C35.1592408,10.3196196 35.1130855,10.3376851 35.0794474,10.371323 C35.0458092,10.404961 35.0277436,10.451116 35.0296099,10.4986506 L35.0296099,20.4679943 C35.0277436,20.5155289 35.0458092,20.5616839 35.0794474,20.5953219 C35.1130855,20.6289598 35.1592408,20.6470253 35.2067757,20.645159 L40.2374087,20.645159 C40.2849436,20.6470253 40.3310989,20.6289598 40.3647371,20.5953219 C40.3983752,20.5616839 40.4164408,20.5155289 40.4145745,20.4679943 L40.4145745,19.1119186 C40.4164408,19.064384 40.3983752,19.0182289 40.3647371,18.984591 C40.3310989,18.9509531 40.2849436,18.9328876 40.2374087,18.9347538 L36.9335952,18.9347538 C36.9099324,18.9360041 36.8868379,18.9272268 36.8699788,18.9105759 C36.8531196,18.8939249 36.8440561,18.8709414 36.8450123,18.8472651 M27.2977457,12.0297038 L28.6417996,12.0297038 C29.8371218,12.0297038 30.7962229,12.6639973 30.7962229,13.9763286 C30.7962229,15.28866 29.8371218,15.9229832 28.626489,15.9229832 L27.2977457,15.9229832 C27.274165,15.9235761 27.2513791,15.9144062 27.2348031,15.8976231 C27.2182271,15.88084 27.209341,15.8579421 27.2102565,15.8343711 L27.2102565,12.116099 C27.2069513,12.092033 27.2150996,12.0678072 27.2322766,12.0506302 C27.2494536,12.0334533 27.2736796,12.0253051 27.2977457,12.0286102 M30.7229506,20.6407846 L32.5820976,20.6407846 C32.7297358,20.6407846 32.774574,20.5368917 32.6859911,20.4220627 L30.471419,17.4288537 C30.4543117,17.4085019 30.447672,17.3813375 30.4534622,17.355389 C30.4592523,17.3294406 30.4768103,17.3076756 30.5009466,17.2965269 C31.8132857,16.7650327 32.6881784,15.6003387 32.6881784,13.9785159 C32.6881784,11.681936 30.9460483,10.3203009 28.7325698,10.3203009 L25.5709263,10.3203009 C25.5232878,10.3188385 25.4771472,10.3371572 25.4435477,10.370964 C25.4099481,10.4047707 25.3919136,10.4510229 25.3937605,10.4986506 L25.3937605,20.4679943 C25.392224,20.5154357 25.4103957,20.5613965 25.4439596,20.5949602 C25.4775235,20.6285239 25.5234846,20.6466956 25.5709263,20.645159 L27.0330907,20.645159 C27.0805324,20.6466956 27.1264935,20.6285239 27.1600574,20.5949602 C27.1936213,20.5613965 27.211793,20.5154357 27.2102565,20.4679943 L27.2102565,17.7263154 C27.2090062,17.7026528 27.2177835,17.6795585 27.2344346,17.6626994 C27.2510856,17.6458403 27.2740693,17.6367768 27.2977457,17.6377331 L28.4197956,17.6377331 C28.4651832,17.6418936 28.5073451,17.6629745 28.5379061,17.696788 L30.5118828,20.5281428 C30.5544561,20.6018894 30.6334261,20.6470149 30.7185762,20.6462621 M22.7067463,11.8569136 L22.7067463,10.4986506 C22.7082829,10.4512092 22.6901111,10.4052484 22.6565472,10.3716847 C22.6229833,10.338121 22.5770222,10.3199494 22.5295805,10.3213958 L17.1610202,10.3213958 C17.1135786,10.3199494 17.0676175,10.338121 17.0340536,10.3716847 C17.0004897,10.4052484 16.9823179,10.4512092 16.9838545,10.4986506 L16.9838545,20.4679943 C16.9823179,20.5154357 17.0004897,20.5613965 17.0340536,20.5949602 C17.0676175,20.6285239 17.1135786,20.6466956 17.1610202,20.6452491 L22.533955,20.6452491 C22.5813967,20.6466956 22.6273578,20.6285239 22.6609217,20.5949602 C22.6944856,20.5613965 22.7126573,20.5154357 22.7111208,20.4679943 L22.7111208,19.1119186 C22.7126573,19.0644772 22.6944856,19.0185164 22.6609217,18.9849527 C22.6273578,18.9513889 22.5813967,18.9332173 22.533955,18.9347538 L18.8736227,18.9347538 C18.8499599,18.9360041 18.8268655,18.9272268 18.8100063,18.9105759 C18.7931471,18.8939249 18.7840836,18.8709414 18.7850398,18.8472651 L18.7850398,16.3691461 C18.7841067,16.3453788 18.7931395,16.3223013 18.8099585,16.3054823 C18.8267776,16.2886633 18.8498553,16.2796306 18.8736227,16.2805637 L22.533955,16.2805637 C22.5814899,16.28243 22.6276452,16.2643645 22.6612833,16.2307266 C22.6949215,16.1970887 22.7129871,16.1509336 22.7111208,16.103399 L22.7111208,14.7637274 C22.7126573,14.7162861 22.6944856,14.6703252 22.6609217,14.6367615 C22.6273578,14.6031978 22.5813967,14.5850262 22.533955,14.5865627 L18.8736227,14.5865627 C18.8493827,14.5902512 18.8248246,14.5822737 18.8073797,14.5650442 C18.7899347,14.5478147 18.7816527,14.5233578 18.7850398,14.499074 L18.7850398,12.121567 C18.7840836,12.0978907 18.7931471,12.0749072 18.8100063,12.0582562 C18.8268655,12.0416053 18.8499599,12.032828 18.8736227,12.0340783 L22.533955,12.0340783 C22.5813967,12.0356148 22.6273578,12.0174432 22.6609217,11.9838795 C22.6944856,11.9503158 22.7126573,11.9043549 22.7111208,11.8569136 M11.2040946,18.9347538 L9.63913028,18.9347538 C9.61546752,18.9360041 9.59237305,18.9272268 9.57551386,18.9105759 C9.55865468,18.8939249 9.54959118,18.8709414 9.5505474,18.8472651 L9.5505474,16.3691461 C9.54725352,16.3447908 9.55552086,16.3202943 9.57289955,16.3029158 C9.59027823,16.2855372 9.61477483,16.2772699 9.63913028,16.2805637 L11.2040946,16.2805637 C12.1631957,16.2805637 12.694693,16.8273685 12.694693,17.6082056 C12.694693,18.3890427 12.1631957,18.9347538 11.2040946,18.9347538 M11.0564564,12.0297038 C11.9860299,12.0297038 12.5022166,12.530577 12.5022166,13.2971972 C12.5022166,14.0638174 11.9860299,14.5800011 11.0564564,14.5800011 L9.63475582,14.5800011 C9.61051578,14.5836895 9.58595773,14.575712 9.56851278,14.5584825 C9.55106784,14.5412531 9.54278586,14.5167961 9.54617293,14.4925123 L9.54617293,12.121567 C9.54278586,12.0972832 9.55106784,12.0728263 9.56851278,12.0555968 C9.58595773,12.0383673 9.61051578,12.0303898 9.63475582,12.0340783 L11.0564564,12.0297038 Z M13.2108797,15.2733494 C13.9635351,14.8137191 14.4137785,13.9874439 14.3919849,13.1058155 C14.3919849,11.5277371 13.298369,10.3181077 11.2926775,10.3181077 L7.92652783,10.3181077 C7.87858083,10.3165859 7.83216787,10.3352291 7.79866365,10.3695655 C7.76515944,10.4039019 7.74766059,10.4507581 7.75045567,10.4986506 L7.75045567,20.4679943 C7.74860809,20.515332 7.76652712,20.5613065 7.79992175,20.5949083 C7.83331638,20.6285102 7.87917931,20.6467134 7.92652783,20.645251 L11.4260986,20.645251 C13.4930326,20.645251 14.5844612,19.390789 14.5844612,17.7394387 C14.5844612,16.663327 14.0682746,15.8518688 13.2119733,15.3947401 C13.1529181,15.3509957 13.1529181,15.3061577 13.2119733,15.2766303"/><path fill="#000" d="M82.0550924 24.2956273C82.0550924 24.2956273 81.5137525 20.7009331 81.2567528 19.1851904L81.3661144 19.1622246C81.4708515 19.1396415 81.5584424 19.0682729 81.6017167 18.9702572 81.644991 18.8722414 81.6387158 18.7594311 81.5848375 18.6668195 80.9767871 17.607112 80.7569703 16.2947807 80.7569703 14.9824493 80.7582511 14.2006093 80.8898294 13.4244495 81.1462976 12.6858695 81.1605146 12.6443123 81.1747316 12.6038488 81.1900422 12.5622916L81.2206635 12.4737093C81.5059251 11.834138 81.6903818 11.1542345 81.7674714 10.4581871 81.8490266 9.51373606 81.6949628 8.56380639 81.3190889 7.69354241 81.3026847 7.66401496 81.2862804 7.6344875 81.2687826 7.60605366 81.496297 7.37014406 81.5350082 7.01004202 81.3628335 6.73116611 81.1627018 6.38558552 80.7515023 6.24779073 80.4441962 6.42495546 80.4124813 6.44354682 80.3348346 6.49713368 80.3020261 6.5222867 80.2462517 6.48072954 80.2134432 6.45995096 80.2134432 6.45995096 80.2134432 6.45995096 80.1270476 6.40308327 80.0526817 6.36480694 80.0526817 6.36480694 80.0242477 6.35059002 80.0242477 6.34949641 79.7015282 6.20696792 79.3523166 6.13429357 78.9995296 6.13620438 78.823183 6.13620438 78.6472916 6.15414087 78.474594 6.18982943 78.1145166 6.26489323 77.7749903 6.41711953 77.4794036 6.63602208 77.376897 6.66738816 77.2712936 6.68755536 77.1644422 6.6961706L76.7488682 6.71585557C76.5531109 6.72351084 76.3300133 6.71585557 76.3300133 6.71585557 76.2330092 6.71524018 76.1535484 6.79275064 76.1517539 6.88973947 76.1517539 6.89848835 76.2162772 7.46935248 76.2162772 7.4715397 76.2239573 7.61365478 76.2960287 7.74450979 76.4120345 7.82696276L76.4262515 7.83680525C76.4546269 7.85205392 76.477558 7.87574925 76.4918684 7.90460903 76.5310988 8.01691761 76.6007654 8.1161161 76.6930938 8.19113471 76.7215278 8.20863246 76.766366 8.19988358 76.7740213 8.16816891 76.8538553 7.85649022 77.03977 8.19222832 77.3930079 8.00084667 77.483778 7.95163424 77.5318971 8.17254335 77.4936206 8.26878098L77.4608121 8.3518953C77.3877776 8.5377765 77.2209287 8.67042056 77.0233657 8.6996631 76.8669787 8.7226289 76.7773022 8.73793943 76.7794894 8.75981162 76.7980809 8.93588274 76.7794894 9.08789445 76.9566552 9.19725539 76.9813608 9.21107937 77.0073688 9.22243488 77.0343019 9.23115729 77.3087995 9.30333551 78.1104199 9.61063976 77.0911699 10.8125165 77.0305544 10.8824218 76.9736097 10.9554273 76.9205659 11.0312384 76.8988418 11.0617838 76.8801612 11.0943831 76.8647914 11.1285697L76.8429191 11.1712204 73.7807947 10.0262113C73.6749391 9.97679282 73.5831864 9.90158615 73.5139524 9.80748946L73.2121144 9.28911859C73.0689896 9.05226204 72.8129977 8.90686944 72.5362598 8.90526167 72.3943081 8.89411979 72.2517014 8.89411979 72.1097496 8.90526167 72.0189795 8.90526167 71.966486 8.9315083 71.9468009 8.98509516 71.92187 9.11690445 71.9455712 9.25328268 72.0135114 9.36895208L72.2759793 9.85123384C72.2989452 9.88513573 72.6303108 10.6266029 72.6303108 10.6266029 72.6638166 10.7177787 72.7207777 10.7985046 72.7954468 10.8606354L75.9363116 13.2326742 72.6237491 14.8851181C72.5282551 14.9368729 72.4160301 14.9482923 72.3120686 14.9168328L72.0156987 14.8271568C71.4688907 14.5854691 71.0653465 14.753885 70.8258446 14.9540155L70.7328873 15.0425979C70.6927256 15.0787327 70.6738902 15.1329322 70.6829877 15.1861854 70.6920851 15.2394385 70.7278455 15.2843113 70.7777255 15.3050641 70.7777255 15.3050641 71.3004739 15.6123684 71.4163972 15.6911082L72.2300474 16.17339C72.3566214 16.2466055 72.5056936 16.2707372 72.6489023 16.2411938L75.8652265 15.5926834C75.9164688 16.3556604 76.0462007 17.1113259 76.2523666 17.8477061 75.4016264 18.6822566 74.8288128 19.758758 74.6119428 20.9305911 74.4566493 21.798917 74.5025812 22.5852222 74.7442703 23.5104157 74.2947942 23.5355688 73.8617223 23.6011853 73.5019226 23.8516219 73.142123 24.1020585 73.0885358 24.5143492 73.0863486 24.7265094L75.6016651 24.7319775 75.8138266 24.7319775C75.969437 24.7234697 76.1018804 24.6157497 76.1419114 24.4651368 76.1643504 24.3797363 76.1800736 24.292711 76.1889368 24.2048577 76.2684526 23.5331255 76.4681163 22.8811664 76.7783958 22.2801051 77.0482915 21.7761112 77.384873 21.3107854 77.7790543 20.8966892 78.5453754 21.952715 79.5114162 22.8481552 80.6224556 23.5322879 80.2589801 23.5570029 79.9038319 23.6524763 79.5769588 23.8133456 79.2526473 24.0085827 79.0549221 24.3599997 79.0563977 24.73854L81.6581098 24.73854C81.8305311 24.7389006 81.9840262 24.6293875 82.0397817 24.4662304 82.0451751 24.4497442 82.0495577 24.4329443 82.0529051 24.4159244 82.0529051 24.4038947 82.0529051 24.3907713 82.0529051 24.3787416 82.0569979 24.3512277 82.0577324 24.3233184 82.0550924 24.2956273ZM8.10041275 40.2448274C7.87887357 40.0908748 7.71464393 39.8678008 7.63343878 39.6105339L7.63343878 39.5886617C7.63401955 39.5656368 7.64954171 39.5456799 7.67171533 39.5394493L7.95058738 39.4246203C7.95959249 39.4226329 7.96892266 39.4226329 7.97792777 39.4246203 7.9880913 39.4247026 7.99785164 39.4286067 8.00526817 39.4355564 8.01223521 39.4436822 8.01778114 39.4529254 8.02167241 39.4628967 8.0711594 39.6471744 8.18184081 39.8091462 8.33554016 39.9222126 8.49292554 40.0334803 8.68200605 40.0910095 8.87469279 40.086254 9.0920356 40.1003609 9.30640614 40.0298189 9.47290067 39.8894043 9.74577135 39.6128639 9.75536799 39.1714211 9.49477299 38.8832837 9.35119876 38.7504908 9.17164473 38.6629967 8.9785863 38.6317535L8.69971425 38.577073C8.43668464 38.5377508 8.19364895 38.4137381 8.0074554 38.2238372 7.83429081 38.0341924 7.74309417 37.7837962 7.75373652 37.5272079 7.75221039 37.3393701 7.80335716 37.1548639 7.90137466 36.9946201 7.99997941 36.8318406 8.14047801 36.6985188 8.30819977 36.608576 8.72419408 36.3969121 9.22149597 36.4231735 9.6128835 36.6774734 9.81438712 36.8201421 9.9671125 37.0213566 10.0503298 37.2538056 10.054679 37.2602215 10.0566162 37.26797 10.0557979 37.2756778 10.0548768 37.2985796 10.039492 37.31836 10.0175214 37.3248902L9.73318125 37.4451872C9.72470992 37.4493904 9.71527715 37.451277 9.70584085 37.4506553 9.69556256 37.451208 9.68556214 37.4472079 9.67850045 37.4397192 9.67058399 37.4323185 9.66490087 37.4228467 9.66209621 37.412379 9.60336088 37.2502073 9.4974866 37.1092963 9.358071 37.0077435 9.2249622 36.907911 9.06295128 36.8541637 8.89656511 36.8546381 8.70283996 36.8443515 8.51292375 36.9111953 8.36834864 37.0405517 8.23929146 37.1645061 8.16893075 37.3374254 8.17477863 37.5162719 8.16895144 37.672858 8.22379977 37.8256489 8.32788485 37.9427795 8.45015736 38.0648049 8.61010713 38.1418887 8.78173544 38.1615014L9.06060749 38.2161819C9.3403582 38.2670792 9.60003921 38.3959712 9.80973436 38.5880091 10.0119365 38.7854784 10.1194923 39.0603415 10.1050106 39.3425996 10.1083915 39.5469156 10.055418 39.7482138 9.95190442 39.9243998 9.84842824 40.0988569 9.69643822 40.2394469 9.51445807 40.3290353 9.31104321 40.4310093 9.08577746 40.4816938 8.85828855 40.4766726 8.58774446 40.4797741 8.32291738 40.3987596 8.10041275 40.2448274ZM11.2390903 40.2798229C11.0454509 40.171107 10.8871505 40.0090114 10.7830525 39.8128517 10.5664608 39.3740693 10.5664608 38.8594693 10.7830525 38.4206869 10.8845178 38.2275294 11.0379196 38.0665532 11.2259669 37.9559028 11.4181491 37.8455318 11.636476 37.7888729 11.8580769 37.7918614 12.0775701 37.7891359 12.2937155 37.845817 12.4836252 37.9559028 12.6677361 38.0634727 12.8189885 38.2192618 12.9210715 38.4064699 13.0286727 38.6054631 13.0832803 38.828788 13.0796458 39.0549803 13.0818773 39.0968723 13.0818773 39.1388534 13.0796458 39.1807454 13.0752282 39.2071299 13.0516758 39.2259717 13.024965 39.2244898L11.0892649 39.2244898C11.0455203 39.2244898 11.0291161 39.2485492 11.0400522 39.2955744 11.0588727 39.5141472 11.1568764 39.7183205 11.3156434 39.8697194 11.4786472 40.0147789 11.6914282 40.0911915 11.9094768 40.0829732 12.1823909 40.0834806 12.4427168 39.9682225 12.6257952 39.7658265 12.666259 39.7253629 12.6968803 39.7188013 12.7187526 39.7439543L12.8991992 39.940804C12.9111121 39.9487061 12.918274 39.9620508 12.918274 39.9763463 12.918274 39.9906417 12.9111121 40.0039865 12.8991992 40.0118886 12.771524 40.1477539 12.6179555 40.2567013 12.4475358 40.3323162 12.2777916 40.4059559 12.0945001 40.44321 11.9094768 40.4416771 11.675768 40.4466978 11.4447628 40.3909252 11.2390903 40.2798229ZM12.6531356 38.8417265C12.6241223 38.6484876 12.5281245 38.4715895 12.3819189 38.341947 12.2360825 38.2151333 12.0479898 38.1476233 11.854796 38.1527525 11.6588409 38.1487606 11.4684771 38.2181962 11.3211115 38.347415 11.1737901 38.4760172 11.077866 38.6534951 11.0509884 38.8471945L11.0509884 38.8745348C11.0509884 38.896407 11.0684862 38.9073431 11.1056692 38.9073431L12.609391 38.9073431C12.6494902 38.9073431 12.6640718 38.8854709 12.6531356 38.8417265L12.6531356 38.8417265ZM14.0529639 40.3837158 13.7631557 40.3837158C13.7480761 40.385961 13.7328245 40.3809272 13.722044 40.3701468 13.7112636 40.3593664 13.7062297 40.3441149 13.7084749 40.3290353L13.7084749 37.9012224C13.7062297 37.8861428 13.7112636 37.8708913 13.722044 37.8601109 13.7328245 37.8493305 13.7480761 37.8442967 13.7631557 37.8465419L14.0256235 37.8465419C14.0407032 37.8442967 14.0559547 37.8493305 14.0667352 37.8601109 14.0775157 37.8708913 14.0825495 37.8861428 14.0803043 37.9012224L14.0803043 38.0816679C14.0803043 38.0969785 14.0803043 38.1057273 14.0934277 38.1090082 14.1065511 38.112289 14.1131128 38.1090082 14.124049 38.092604 14.2048212 37.9993872 14.3033374 37.923177 14.4138572 37.8684141 14.5304882 37.8153265 14.65757 37.7891628 14.7856866 37.7918614 15.019054 37.7781924 15.247367 37.8635611 15.4145157 38.0269875 15.5658338 38.1899547 15.646443 38.4062219 15.6387069 38.6284727L15.6387069 40.3290353C15.6409522 40.3441149 15.6359183 40.3593664 15.6251378 40.3701468 15.6143574 40.3809272 15.5991058 40.385961 15.5840262 40.3837158L15.2942179 40.3837158C15.2791383 40.385961 15.2638867 40.3809272 15.2531063 40.3701468 15.2423258 40.3593664 15.2372919 40.3441149 15.2395372 40.3290353L15.2395372 38.6940892C15.2498121 38.5457077 15.2006275 38.3993353 15.1028352 38.2872665 14.9964883 38.1883634 14.8540475 38.1377181 14.7091335 38.1472845 14.5930861 38.1459099 14.4791275 38.178198 14.3810487 38.2402413 14.2780209 38.307699 14.1934469 38.3997902 14.1349851 38.5081756 14.116731 38.543682 14.10735 38.5830819 14.1076447 38.6230046L14.1076447 40.3290353C14.1098899 40.3441149 14.1048561 40.3593664 14.0940756 40.3701468 14.0832951 40.3809272 14.0680436 40.385961 14.0529639 40.3837158ZM16.8744929 40.271074C16.6847448 40.1598501 16.5295386 39.9982095 16.4261104 39.8041028 16.2077371 39.3707419 16.2077371 38.8595158 16.4261104 38.4261549 16.5298172 38.2322503 16.6849581 38.0706777 16.8744929 37.9591837 17.0668218 37.8468784 17.2860906 37.7890372 17.5087901 37.7918614 17.8213336 37.7729318 18.1254085 37.897783 18.3344701 38.1308804 18.3394586 38.137783 18.3486924 38.1400914 18.3563424 38.1363484 18.3639977 38.1363484 18.3672785 38.1254123 18.3672785 38.1144762L18.3672785 37.9012224C18.3650333 37.8861428 18.3700672 37.8708913 18.3808476 37.8601109 18.3916281 37.8493305 18.4068797 37.8442967 18.4219593 37.8465419L18.6898952 37.8465419C18.7049749 37.8442967 18.7202264 37.8493305 18.7310069 37.8601109 18.7417874 37.8708913 18.7468212 37.8861428 18.744576 37.9012224L18.744576 40.3290353C18.7468212 40.3441149 18.7417874 40.3593664 18.7310069 40.3701468 18.7202264 40.3809272 18.7049749 40.385961 18.6898952 40.3837158L18.4219593 40.3837158C18.4068797 40.385961 18.3916281 40.3809272 18.3808476 40.3701468 18.3700672 40.3593664 18.3650333 40.3441149 18.3672785 40.3290353L18.3672785 40.1157815C18.3672785 40.1048454 18.3672785 40.0971901 18.3563424 40.0939093 18.3486521 40.0905991 18.3396979 40.0928376 18.3344701 40.0993773 18.1178172 40.3214783 17.819007 40.4441678 17.5087901 40.4383963 17.2860906 40.4412205 17.0668218 40.3833793 16.8744929 40.271074L16.8744929 40.271074ZM18.0282576 39.9681442C18.1551629 39.9030514 18.2584407 39.7997742 18.3235339 39.6728697 18.3383904 39.6422125 18.3458801 39.6085088 18.3454062 39.5744448L18.3454062 38.6558129C18.3458801 38.621749 18.3383904 38.5880453 18.3235339 38.557388 18.2525297 38.4319031 18.1470136 38.329424 18.0195087 38.2621135 17.8809497 38.1882329 17.7259498 38.1506118 17.568939 38.1527525 17.3220727 38.1422527 17.0827564 38.2391752 16.9127694 38.4184996 16.5819089 38.8244029 16.5819089 39.4069485 16.9127694 39.8128517 17.082952 39.9917736 17.3222422 40.0882868 17.568939 40.0775052 17.7288226 40.0804131 17.8868394 40.0427903 18.0282576 39.9681442L18.0282576 39.9681442ZM19.7452345 36.8546381 20.0405108 36.6960648C20.0487596 36.69236 20.0577156 36.6904941 20.0667576 36.6905927 20.0930044 36.6905927 20.1050342 36.7059073 20.1050342 36.7343411L20.1050342 37.8170144C20.1050342 37.8356058 20.1148767 37.8443547 20.1334682 37.8443547L20.4342125 37.8443547C20.4492922 37.8421095 20.4645437 37.8471433 20.4753242 37.8579237 20.4861047 37.8687041 20.4911385 37.8839556 20.4888933 37.8990352L20.4888933 38.1341612C20.4911385 38.1492408 20.4861047 38.1644922 20.4753242 38.1752726 20.4645437 38.186053 20.4492922 38.1910869 20.4342125 38.1888417L20.1334682 38.1888417C20.1148767 38.1888417 20.1050342 38.1975905 20.1050342 38.2161819L20.1050342 40.3268481C20.1072794 40.3419277 20.1022455 40.3571791 20.0914651 40.3679596 20.0806846 40.37874 20.065433 40.3837738 20.0503534 40.3815286L19.7616388 40.3815286C19.7465591 40.3837738 19.7313076 40.37874 19.7205271 40.3679596 19.7097466 40.3571791 19.7047128 40.3419277 19.706958 40.3268481L19.706958 38.2161819C19.706958 38.1975905 19.6971154 38.1888417 19.678524 38.1888417L19.3788732 38.1888417C19.3637935 38.1910869 19.348542 38.186053 19.3377615 38.1752726 19.3269811 38.1644922 19.3219472 38.1492408 19.3241924 38.1341612L19.3241924 37.8990352C19.3219472 37.8839556 19.3269811 37.8687041 19.3377615 37.8579237 19.348542 37.8471433 19.3637935 37.8421095 19.3788732 37.8443547L19.678524 37.8443547C19.6971154 37.8443547 19.706958 37.8356058 19.706958 37.8170144L19.706958 36.9202547C19.7037607 36.8923159 19.7193408 36.8656073 19.7452345 36.8546381L19.7452345 36.8546381ZM21.1745905 40.2798229C21.0272962 40.1710912 20.9191139 40.0176421 20.8661908 39.8423791L20.8607199 39.8205069C20.8604761 39.7986941 20.8763379 39.7800333 20.8979057 39.7767626L21.1614671 39.6838058 21.1833394 39.6783377C21.2052117 39.6783377 21.221616 39.6925546 21.2314585 39.7220821 21.2605573 39.8325615 21.327515 39.9293207 21.4206541 39.9954845 21.5072801 40.0590014 21.6117946 40.0934565 21.7192112 40.0939093 21.8455312 40.1033277 21.970688 40.0642164 22.0691683 39.9845484 22.1487357 39.9104165 22.1925612 39.8056345 22.189466 39.6969291 22.1948826 39.5923636 22.1512046 39.4912576 22.0713555 39.4235267 21.9755534 39.3505318 21.86256 39.3034515 21.7432707 39.2868255L21.5245476 39.2430812C21.3524507 39.2145887 21.1957538 39.1267615 21.0816331 38.9948318 20.9720449 38.8639073 20.9140925 38.6974409 20.9186844 38.526767 20.9172937 38.3954722 20.9533309 38.2664976 21.0225779 38.1549398 21.0931388 38.0407911 21.1943021 37.9487217 21.3145733 37.8891927 21.4464745 37.8242963 21.5919136 37.7916852 21.7388963 37.7940486 21.9216723 37.788812 22.1011085 37.8437568 22.2496149 37.9504348 22.3948064 38.0612088 22.4978213 38.2182381 22.5416103 38.3955338L22.548172 38.417406C22.548172 38.4392782 22.5328614 38.4556824 22.5033338 38.4666185L22.246334 38.532235 22.2255553 38.5377031C22.203683 38.5377031 22.1883724 38.5234861 22.1818107 38.4939587 22.1582745 38.3938679 22.1035039 38.3038608 22.0254236 38.2369605 21.9442561 38.1724238 21.8424921 38.139409 21.7388963 38.1440037 21.6256841 38.1404607 21.5152558 38.1794811 21.429403 38.2533646 21.3527769 38.3187038 21.3097716 38.4151637 21.3123861 38.5158309 21.3061282 38.6090877 21.3399432 38.7005864 21.4053434 38.767361 21.4847309 38.8345045 21.5813368 38.8780717 21.6842155 38.8931261L21.8974706 38.9368705C22.0844358 38.9685285 22.2570683 39.0571358 22.3917849 39.1905879 22.5206517 39.3274708 22.5895439 39.5101325 22.5831677 39.6980227 22.589057 39.9030251 22.5037433 40.1000864 22.3502275 40.2360785 22.1745716 40.384454 21.9487889 40.4599753 21.7192112 40.4471452 21.5242317 40.4526212 21.3328619 40.3938272 21.1745905 40.2798229L21.1745905 40.2798229ZM24.7529016 37.8465419 25.0602077 37.8465419C25.0995778 37.8465419 25.1148885 37.8662269 25.1028587 37.9066904L24.299051 40.3399714C24.2889605 40.3692376 24.2597881 40.3874703 24.2290596 40.3837158L23.8080175 40.3837158C23.7767971 40.3873017 23.7471064 40.3693074 23.7358389 40.3399714L22.9320312 37.9066904 22.9265631 37.8848182C22.9265631 37.8596652 22.9429673 37.8465419 22.9768694 37.8465419L23.2819883 37.8465419C23.3113688 37.8441024 23.3385568 37.8622277 23.3476052 37.8902863L23.9983067 39.9079957C23.9983067 39.9189318 24.0081492 39.9243998 24.0179917 39.9243998 24.0272866 39.9240118 24.0350408 39.9171698 24.0365832 39.9079957L24.6927527 37.8902863C24.7012536 37.864247 24.7255097 37.8466062 24.7529016 37.8465419ZM26.0739896 40.2798229C25.8803502 40.171107 25.7220498 40.0090114 25.6179518 39.8128517 25.4013601 39.3740693 25.4013601 38.8594693 25.6179518 38.4206869 25.7187404 38.2270448 25.8723022 38.0659006 26.0608662 37.9559028 26.4515519 37.7371632 26.9278388 37.7371632 27.3185244 37.9559028 27.5026354 38.0634727 27.6538878 38.2192618 27.7559708 38.4064699 27.8627341 38.6057404 27.9169344 38.8289386 27.9134515 39.0549803 27.9155729 39.0968752 27.9155729 39.1388506 27.9134515 39.1807454 27.9090339 39.2071299 27.8854815 39.2259717 27.8587707 39.2244898L25.9186961 39.2244898C25.8749515 39.2244898 25.8585473 39.2485492 25.870577 39.2955744 25.8883947 39.5144199 25.9865612 39.7189324 26.1461682 39.8697194 26.309172 40.0147789 26.521953 40.0911915 26.7400016 40.0829732 27.0129157 40.0834806 27.2732416 39.9682225 27.45632 39.7658265 27.4956902 39.7253629 27.5263115 39.7188013 27.5492774 39.7439543L27.7286304 39.940804C27.7548772 39.9626762 27.7548772 39.9867356 27.7286304 40.0118886 27.601354 40.1477243 27.448148 40.2566784 27.2780607 40.3323162 27.1083164 40.4059559 26.925025 40.44321 26.7400016 40.4416771 26.5077407 40.4461883 26.2782757 40.3904238 26.0739896 40.2798229L26.0739896 40.2798229ZM27.4869413 38.8417265C27.4588517 38.6484264 27.3631415 38.4713443 27.2168182 38.341947 27.0708182 38.2154126 26.8828377 38.1479428 26.6896953 38.1527525 26.4937402 38.1487606 26.3033764 38.2181962 26.1560108 38.347415 26.0083617 38.4759055 25.9120547 38.6533733 25.884794 38.8471945L25.879326 38.8745348C25.879326 38.896407 25.8979174 38.9073431 25.9340067 38.9073431L27.4377286 38.9073431C27.4829314 38.9073431 27.4993356 38.8854709 27.4869413 38.8417265L27.4869413 38.8417265ZM29.7233857 37.7973295C29.7572878 37.7973295 29.7736921 37.8159208 29.7736921 37.8520099L29.7736921 38.1418165C29.7736921 38.1746247 29.7605687 38.1910289 29.7354155 38.1910289 29.7085505 38.1913068 29.6817487 38.1883697 29.6555816 38.18228 29.6310315 38.1777859 29.6061665 38.1752263 29.5812157 38.1746247 29.3386178 38.1682405 29.1105521 38.2899579 28.9808206 38.4950523 28.9538758 38.5354018 28.9404701 38.5832788 28.942544 38.6317535L28.942544 40.3268481C28.9447892 40.3419277 28.9397554 40.3571791 28.9289749 40.3679596 28.9181944 40.37874 28.9029429 40.3837738 28.8878632 40.3815286L28.5969614 40.3815286C28.5818817 40.3837738 28.5666302 40.37874 28.5558497 40.3679596 28.5450692 40.3571791 28.5400354 40.3419277 28.5422806 40.3268481L28.5422806 37.8990352C28.5400354 37.8839556 28.5450692 37.8687041 28.5558497 37.8579237 28.5666302 37.8471433 28.5818817 37.8421095 28.5969614 37.8443547L28.8594292 37.8443547C28.8745089 37.8421095 28.8897604 37.8471433 28.9005409 37.8579237 28.9113214 37.8687041 28.9163552 37.8839556 28.91411 37.8990352L28.91411 38.0958849C28.91411 38.1111954 28.91411 38.1199443 28.9261398 38.1232251 28.9381695 38.1265059 28.942544 38.1232251 28.9523866 38.112289 29.1192793 37.9027249 29.3746322 37.7833451 29.6424582 37.7896742 29.6696041 37.7898907 29.6966807 37.792452 29.7233857 37.7973295L29.7233857 37.7973295ZM32.8795611 37.8465419 33.1748374 37.8465419C33.190093 37.8457248 33.2049214 37.8517363 33.2153012 37.862946 33.2245766 37.8755014 33.2277831 37.8915334 33.2240501 37.9066904L32.6105316 40.3345034C32.6105316 40.3673117 32.5875657 40.3837158 32.5503828 40.3837158L32.1676172 40.3837158C32.1321365 40.3850852 32.1016083 40.3588502 32.0976258 40.3235673L31.6481497 38.5737922C31.6466073 38.564618 31.638853 38.5577761 31.6295582 38.557388 31.6208093 38.557388 31.6142476 38.5628561 31.6098731 38.5737922L31.1625842 40.3235673C31.1570925 40.3589255 31.1261746 40.3846902 31.0904056 40.3837158L30.70764 40.3837158C30.6777603 40.3857071 30.6514561 40.3641856 30.6474912 40.3345034L30.0361599 37.9066904 30.0361599 37.8902863C30.0361599 37.8607588 30.0536577 37.8465419 30.0908407 37.8465419L30.386117 37.8465419C30.4254871 37.8465419 30.4473594 37.862946 30.4506403 37.8957543L30.9055845 39.8150389C30.9055845 39.8303494 30.9143334 39.8369111 30.9219887 39.8369111 30.929644 39.8369111 30.9340185 39.8303494 30.9372994 39.8150389L31.4294265 37.8957543C31.4355453 37.8673301 31.4605022 37.846911 31.4895754 37.8465419L31.7793836 37.8465419C31.8087621 37.8460529 31.8341942 37.8668609 31.8395324 37.8957543L32.3327532 39.8150389C32.3327532 39.8303494 32.3415021 39.8369111 32.3491574 39.8369111 32.3568128 39.8369111 32.3611872 39.8303494 32.3655617 39.8150389L32.8084761 37.8957543C32.811126 37.879674 32.8201877 37.8653572 32.8335872 37.8560806 32.8469868 37.8468041 32.8635771 37.8433619 32.8795611 37.8465419L32.8795611 37.8465419ZM34.246581 40.271074C34.0565812 40.1601695 33.9012974 39.998448 33.7981985 39.8041028 33.5798252 39.3707419 33.5798252 38.8595158 33.7981985 38.4261549 33.90158 38.2320143 34.0567971 38.0703623 34.246581 37.9591837 34.4388672 37.8467756 34.6581651 37.7889266 34.8808782 37.7918614 35.1933946 37.7730948 35.4974013 37.897918 35.7065582 38.1308804 35.7115467 38.137783 35.7207805 38.1400914 35.7284305 38.1363484 35.7359771 38.1317659 35.7402286 38.123263 35.7393666 38.1144762L35.7393666 37.9012224C35.7371214 37.8861428 35.7421553 37.8708913 35.7529357 37.8601109 35.7637162 37.8493305 35.7789678 37.8442967 35.7940474 37.8465419L36.0619833 37.8465419C36.077063 37.8442967 36.0923145 37.8493305 36.103095 37.8601109 36.1138755 37.8708913 36.1189093 37.8861428 36.1166641 37.9012224L36.1166641 40.3290353C36.1189093 40.3441149 36.1138755 40.3593664 36.103095 40.3701468 36.0923145 40.3809272 36.077063 40.385961 36.0619833 40.3837158L35.7940474 40.3837158C35.7789678 40.385961 35.7637162 40.3809272 35.7529357 40.3701468 35.7421553 40.3593664 35.7371214 40.3441149 35.7393666 40.3290353L35.7393666 40.1157815C35.7402286 40.1069947 35.7359771 40.0984918 35.7284305 40.0939093 35.7207402 40.0905991 35.711786 40.0928376 35.7065582 40.0993773 35.4899053 40.3214783 35.1910951 40.4441678 34.8808782 40.4383963 34.6581651 40.4413311 34.4388672 40.3834821 34.246581 40.271074L34.246581 40.271074ZM35.3992521 39.9681442C35.5266492 39.9037284 35.6301122 39.800266 35.6945284 39.6728697 35.7099193 39.642401 35.7174386 39.6085643 35.7164007 39.5744448L35.7164007 38.6558129C35.7172121 38.6217151 35.7097049 38.587933 35.6945284 38.557388 35.6239169 38.4319803 35.5187712 38.3294923 35.3915968 38.2621135 35.2526783 38.1881429 35.0973027 38.1505219 34.9399334 38.1527525 34.6930672 38.1422527 34.4537508 38.2391752 34.2837639 38.4184996 33.9529034 38.8244029 33.9529034 39.4069485 34.2837639 39.8128517 34.4538636 39.9918956 34.6932118 40.0884321 34.9399334 40.0775052 35.0998325 40.0805566 35.2578847 40.0429253 35.3992521 39.9681442ZM37.6313221 40.1048454 37.6313221 40.3541883C37.6335673 40.3692679 37.6285335 40.3845194 37.617753 40.3952998 37.6069725 40.4060802 37.591721 40.411114 37.5766413 40.4088688L37.4782159 40.4088688C37.3344097 40.4174764 37.192315 40.3739941 37.0779525 40.2863846 36.9768475 40.1867034 36.925174 40.0473058 36.936876 39.9058085L36.936876 36.4828109C36.9347117 36.4679472 36.9396124 36.4529255 36.9501257 36.4421977 36.960639 36.43147 36.9755587 36.4262668 36.9904632 36.4281305L37.2802714 36.4281305C37.2954251 36.4259771 37.3107179 36.430997 37.3216474 36.4417122 37.332577 36.4524273 37.3378987 36.4676177 37.3360458 36.4828109L37.3360458 39.8565961C37.3360458 39.9878292 37.3907266 40.0534458 37.5000882 40.0534458L37.5766413 40.0534458C37.5910877 40.051412 37.6056768 40.056042 37.6163067 40.066034 37.6269365 40.076026 37.6324593 40.090301 37.6313221 40.1048454L37.6313221 40.1048454ZM38.4066958 36.8546381 38.701972 36.6960648C38.710992 36.6923689 38.7206587 36.6905099 38.730406 36.6905938 38.7555592 36.6905938 38.7686826 36.7059073 38.7686826 36.7343411L38.7686826 37.8170144C38.7686826 37.8356058 38.7774315 37.8443547 38.7949294 37.8443547L39.0956737 37.8443547C39.1107534 37.8421095 39.126005 37.8471433 39.1367854 37.8579237 39.1475659 37.8687041 39.1525998 37.8839556 39.1503545 37.8990352L39.1503545 38.1341612C39.1525998 38.1492408 39.1475659 38.1644922 39.1367854 38.1752726 39.126005 38.186053 39.1107534 38.1910869 39.0956737 38.1888417L38.7949294 38.1888417C38.7774315 38.1888417 38.7686826 38.1975905 38.7686826 38.2161819L38.7686826 40.3268481C38.7709278 40.3419277 38.765894 40.3571791 38.7551135 40.3679596 38.744333 40.37874 38.7290815 40.3837738 38.7140018 40.3815286L38.4231 40.3815286C38.4080203 40.3837738 38.3927688 40.37874 38.3819883 40.3679596 38.3712078 40.3571791 38.366174 40.3419277 38.3684192 40.3268481L38.3684192 38.2161819C38.3684192 38.1975905 38.3596703 38.1888417 38.3421724 38.1888417L38.0403344 38.1888417C38.0252548 38.1910869 38.0100032 38.186053 37.9992227 38.1752726 37.9884423 38.1644922 37.9834084 38.1492408 37.9856536 38.1341612L37.9856536 37.8990352C37.9834084 37.8839556 37.9884423 37.8687041 37.9992227 37.8579237 38.0100032 37.8471433 38.0252548 37.8421095 38.0403344 37.8443547L38.3421724 37.8443547C38.3596703 37.8443547 38.3684192 37.8356058 38.3684192 37.8170144L38.3684192 36.9202547C38.3655863 36.8923937 38.3810491 36.8658862 38.4066958 36.8546381L38.4066958 36.8546381ZM41.2839991 37.8465419 41.5738073 37.8465419C41.5887118 37.8446783 41.6036315 37.8498814 41.6141448 37.8606092 41.6246581 37.871337 41.6295588 37.8863587 41.6273945 37.9012224L41.6273945 40.3290353C41.6273945 40.3662181 41.6098966 40.3837158 41.5738073 40.3837158L41.3102459 40.3837158C41.2951662 40.385961 41.2799147 40.3809272 41.2691342 40.3701468 41.2583537 40.3593664 41.2533199 40.3441149 41.2555651 40.3290353L41.2555651 40.1485898C41.2571092 40.137663 41.251933 40.1268793 41.2424417 40.1212495 41.2336928 40.1212495 41.221663 40.1212495 41.207446 40.1376537 41.0445362 40.333859 40.8007539 40.4446684 40.5458084 40.4383963 40.3129972 40.4526869 40.0851128 40.3671811 39.9191665 40.2032702 39.7697307 40.0395005 39.691108 39.8232894 39.7004433 39.6017851L39.7004433 37.9012224C39.6981981 37.8861428 39.7032319 37.8708913 39.7140124 37.8601109 39.7247929 37.8493305 39.7400444 37.8442967 39.7551241 37.8465419L40.0449323 37.8465419C40.060012 37.8442967 40.0752635 37.8493305 40.086044 37.8601109 40.0968245 37.8708913 40.1018583 37.8861428 40.0996131 37.9012224L40.0996131 39.5361685C40.0887954 39.6849504 40.1380299 39.8318653 40.2363151 39.9440848 40.3424369 40.0425326 40.4845017 40.0927892 40.6289232 40.0829732 40.7450124 40.0846645 40.8590596 40.0523513 40.957008 39.9900164 41.0605282 39.9231406 41.1452314 39.8309087 41.2030715 39.7220821 41.2216642 39.6866562 41.2314191 39.6472614 41.2315055 39.6072531L41.2315055 37.9012224C41.2294115 37.8865697 41.2341776 37.8717686 41.2444282 37.861091 41.2546787 37.8504134 41.2692731 37.8450474 41.2839991 37.8465419L41.2839991 37.8465419ZM42.8030316 40.3837158 42.5132233 40.3837158C42.4981437 40.385961 42.4828921 40.3809272 42.4721117 40.3701468 42.4613312 40.3593664 42.4562973 40.3441149 42.4585426 40.3290353L42.4585426 37.9012224C42.4562973 37.8861428 42.4613312 37.8708913 42.4721117 37.8601109 42.4828921 37.8493305 42.4981437 37.8442967 42.5132233 37.8465419L42.7767848 37.8465419C42.7918644 37.8442967 42.807116 37.8493305 42.8178965 37.8601109 42.8286769 37.8708913 42.8337108 37.8861428 42.8314656 37.9012224L42.8314656 38.0816679C42.8314656 38.0969785 42.8314656 38.1057273 42.844589 38.1090082 42.8577123 38.112289 42.8631804 38.1090082 42.8741166 38.092604 42.9555067 37.9995876 43.0543362 37.9234225 43.1650184 37.8684141 43.2812685 37.8153441 43.4079914 37.7891773 43.5357542 37.7918614 43.7642608 37.7733556 43.9895501 37.8549391 44.1532239 38.0154644 44.3168977 38.1759896 44.4028404 38.3996511 44.3887746 38.6284727L44.3887746 40.3290353C44.3910198 40.3441149 44.3859859 40.3593664 44.3752055 40.3701468 44.364425 40.3809272 44.3491734 40.385961 44.3340938 40.3837158L44.0442856 40.3837158C44.0292059 40.385961 44.0139544 40.3809272 44.0031739 40.3701468 43.9923934 40.3593664 43.9873596 40.3441149 43.9896048 40.3290353L43.9896048 38.6940892C44.0001793 38.5458593 43.9513945 38.3995057 43.8539964 38.2872665 43.7480546 38.1884218 43.6059683 38.1377618 43.4613883 38.1472845 43.3453493 38.1459725 43.2314081 38.1782556 43.1333035 38.2402413 43.0306158 38.3077679 42.9464128 38.3998644 42.8883336 38.5081756 42.8697409 38.5436015 42.859986 38.5829963 42.8598996 38.6230046L42.8598996 40.3290353C42.8623414 40.344562 42.8570462 40.3603025 42.8457165 40.3711964 42.8343867 40.3820903 42.8184506 40.3867644 42.8030316 40.3837158L42.8030316 40.3837158ZM45.6847094 41.3974918C45.5230051 41.3273002 45.377736 41.2241225 45.2581992 41.0945619 45.2476264 41.0846393 45.2416289 41.0707853 45.2416289 41.0562856 45.2416289 41.0417859 45.2476264 41.027932 45.2581992 41.0180093L45.4441139 40.8156915C45.4538472 40.8040589 45.4674268 40.7962991 45.4823904 40.7938193 45.497422 40.7961059 45.5110656 40.8039022 45.520667 40.8156915 45.8699707 41.1873636 46.4371064 41.2512528 46.8603464 40.9666096 47.0104445 40.8291702 47.0890711 40.6303874 47.0736015 40.4274602L47.0736015 40.0501649C47.0753456 40.0383072 47.0684808 40.0268659 47.0571973 40.0228247 47.0462611 40.0228247 47.0342314 40.0228247 47.0189207 40.0392288 46.8062798 40.2373561 46.5229707 40.3417741 46.2326109 40.3290353 46.0158985 40.3317701 45.802328 40.2770572 45.6136243 40.170462 45.428087 40.0657066 45.2763216 39.910148 45.176178 39.7220821 45.0665263 39.5171252 45.0115359 39.2873721 45.0165101 39.0549803 45.0122482 38.8256057 45.0688503 38.5991985 45.1805525 38.3988147 45.2851177 38.2116515 45.4395835 38.0571867 45.6267477 37.952622 45.8177708 37.845875 46.0334885 37.7911916 46.252296 37.7940486 46.5481359 37.7785387 46.8365504 37.8899257 47.0451675 38.1002593 47.0604781 38.1155698 47.0714143 38.1199443 47.0812568 38.1166634 47.0910994 38.1133826 47.0943802 38.1024465 47.0943802 38.0838551L47.0943802 37.9034096C47.094962 37.8734547 47.119106 37.8493109 47.149061 37.8487291L47.4169969 37.8487291C47.4320766 37.8464839 47.4473281 37.8515177 47.4581086 37.8622981 47.4688891 37.8730786 47.4739229 37.88833 47.4716777 37.9034096L47.4716777 40.4635493C47.4849355 40.7572916 47.3603683 41.0403971 47.134844 41.2290759 46.8850086 41.4216705 46.5750974 41.5196794 46.2599513 41.5057591 46.0626927 41.5109102 45.866598 41.4740029 45.6847094 41.3974918ZM46.7509848 39.8587833C46.8743223 39.7943291 46.9781627 39.6980413 47.0517292 39.5799129 47.0707537 39.5506483 47.0806508 39.5163894 47.0801632 39.481488L47.0801632 38.6339407C47.081436 38.5989382 47.0714719 38.5644472 47.0517292 38.5355158 46.9781627 38.4173874 46.8743223 38.3210996 46.7509848 38.2566454 46.6144257 38.1853381 46.4620941 38.1496062 46.3080704 38.1527525 46.0699846 38.1434029 45.8389596 38.2347009 45.671586 38.4042827 45.3464353 38.7792308 45.3464353 39.3361979 45.671586 39.711146 45.8389596 39.8807279 46.0699846 39.9720258 46.3080704 39.9626762 46.4620941 39.9658225 46.6144257 39.9300907 46.7509848 39.8587833L46.7509848 39.8587833ZM7.89590658 47.405782 7.89590658 45.2951158C7.89694485 45.2874991 7.89444316 45.2798258 7.88911514 45.2742847 7.88378711 45.2687436 7.87621774 45.2659431 7.86856619 45.266682L7.65531109 45.266682C7.64139001 45.2670477 7.62780259 45.2623892 7.61703454 45.2535586 7.60629151 45.2451825 7.60019589 45.2321786 7.6006303 45.2185631L7.6006303 44.9779691C7.59838508 44.9628895 7.60341892 44.947638 7.6141994 44.9368576 7.62497989 44.9260772 7.64023142 44.9210434 7.65531109 44.9232886L7.87403427 44.9232886C7.8815741 44.9244112 7.88919987 44.9218943 7.89459011 44.9165041 7.89998035 44.9111139 7.90249727 44.9034881 7.90137466 44.8959484L7.90137466 44.0855838C7.89126112 43.9144638 7.94591934 43.7458051 8.05448089 43.6131445 8.16745876 43.4936352 8.32782065 43.4306936 8.49192723 43.4414478 8.59588879 43.4441084 8.69821821 43.4679231 8.7926716 43.5114388 8.82548007 43.5311238 8.83750985 43.5519024 8.83094815 43.578149L8.75439504 43.8351472C8.74345888 43.8679555 8.71939933 43.8745171 8.68331001 43.8570194 8.63459989 43.8302385 8.58028729 43.8152558 8.52473571 43.813275 8.46079418 43.8102692 8.39946154 43.838891 8.36069333 43.8898277 8.31636636 43.9537793 8.29515118 44.030925 8.30054446 44.1085496L8.30054446 44.8959484C8.29942185 44.9034881 8.30193877 44.9111139 8.30732901 44.9165041 8.31271925 44.9218943 8.32034501 44.9244112 8.32788485 44.9232886L8.66690577 44.9232886C8.68198545 44.9210434 8.69723698 44.9260772 8.70801746 44.9368576 8.71879794 44.947638 8.72383178 44.9628895 8.72158657 44.9779691L8.72158657 45.2185631C8.72202097 45.2321786 8.71592535 45.2451825 8.70518233 45.2535586 8.69432191 45.2622222 8.68079732 45.2668592 8.66690577 45.266682L8.32241677 45.266682C8.3038253 45.266682 8.29507638 45.2765244 8.29507638 45.2951158L8.29507638 47.405782C8.2953459 47.4198792 8.29026618 47.4335553 8.28085937 47.4440583 8.27248322 47.4548013 8.25947923 47.4608969 8.24586366 47.4604625L7.95058738 47.4604625C7.9355077 47.4627077 7.92025617 47.4576739 7.90947569 47.4468935 7.89869521 47.436113 7.89366137 47.4208616 7.89590658 47.405782L7.89590658 47.405782ZM10.8267971 44.9232886 11.1166053 44.9232886C11.131685 44.9210434 11.1469365 44.9260772 11.157717 44.9368576 11.1684975 44.947638 11.1735313 44.9628895 11.1712861 44.9779691L11.1712861 47.405782C11.1735313 47.4208616 11.1684975 47.436113 11.157717 47.4468935 11.1469365 47.4576739 11.131685 47.4627077 11.1166053 47.4604625L10.8486694 47.4604625C10.8335898 47.4627077 10.8183382 47.4576739 10.8075577 47.4468935 10.7967773 47.436113 10.7917434 47.4208616 10.7939886 47.405782L10.7939886 47.2242429C10.7955141 47.2133237 10.7897508 47.2026838 10.7797716 47.1979962 10.7710227 47.1979962 10.7589929 47.1979962 10.7447759 47.2144004 10.5830688 47.4090862 10.3416501 47.5197358 10.0886064 47.515143 9.85579524 47.5294336 9.62791086 47.4439277 9.46196451 47.2800169 9.31283864 47.1160598 9.23426392 46.8999806 9.24324134 46.6785317L9.24324134 44.9779691C9.24099612 44.9628895 9.24602996 44.947638 9.25681044 44.9368576 9.26759092 44.9260772 9.28284245 44.9210434 9.29792213 44.9232886L9.58007502 44.9232886C9.5951547 44.9210434 9.61040623 44.9260772 9.62118671 44.9368576 9.6319672 44.947638 9.63700103 44.9628895 9.63475582 44.9779691L9.63475582 46.6183832C9.62386438 46.7668431 9.67312671 46.9134469 9.7714578 47.0252059 9.8777356 47.1242228 10.0202272 47.1748862 10.1651595 47.1651879 10.2812069 47.1665625 10.3951654 47.1342745 10.4932443 47.0722311 10.596272 47.0047734 10.680846 46.9126822 10.7393078 46.8042968 10.7570582 46.768606 10.7664102 46.7293282 10.7666482 46.6894678L10.7666482 44.9834371C10.761402 44.9663993 10.7660054 44.9478573 10.7786112 44.9352515 10.791217 44.9226458 10.8097592 44.9180424 10.8267971 44.9232886L10.8267971 44.9232886ZM9.45977728 44.2419699C9.40321668 44.1868272 9.37161613 44.1109863 9.37228801 44.0319969 9.37406233 43.8696619 9.50522833 43.7384967 9.66756429 43.7367223 9.82990026 43.7384967 9.96106626 43.8696619 9.96284127 44.0319969 9.96301173 44.1108876 9.9314892 44.1865412 9.87535131 44.2419699 9.82182864 44.2999504 9.74647204 44.3328691 9.66756429 44.3327395 9.58857213 44.3332775 9.51305767 44.3002898 9.45977728 44.2419699L9.45977728 44.2419699ZM10.5369889 44.2419699C10.4804283 44.1868272 10.4488278 44.1109863 10.4494996 44.0319969 10.451274 43.8696619 10.58244 43.7384967 10.7447759 43.7367223 10.9071119 43.7384967 11.0382779 43.8696619 11.0400529 44.0319969 11.0402234 44.1108876 11.0087008 44.1865412 10.9525629 44.2419699 10.8990403 44.2999504 10.8236837 44.3328691 10.7447759 44.3327395 10.6657838 44.3332775 10.5902693 44.3002898 10.5369889 44.2419699L10.5369889 44.2419699ZM13.1769776 44.8740762C13.2108797 44.8740762 13.227284 44.8926675 13.227284 44.9287566L13.227284 45.2185631C13.227284 45.2513714 13.2141606 45.266682 13.1879138 45.266682 13.1614783 45.2667438 13.135102 45.2641795 13.1091734 45.2590267 13.0850554 45.2541046 13.0605157 45.2515408 13.0359012 45.2513714 12.7912756 45.2457754 12.5621481 45.3707533 12.4344124 45.5794543 12.4070439 45.6191969 12.3935864 45.6668746 12.3961359 45.7150618L12.3961359 47.4112501C12.3983811 47.4263297 12.3933473 47.4415811 12.3825668 47.4523615 12.3717863 47.4631419 12.3565348 47.4681757 12.3414551 47.4659305L12.0505533 47.4659305C12.0354736 47.4681757 12.0202221 47.4631419 12.0094416 47.4523615 11.9986611 47.4415811 11.9936273 47.4263297 11.9958725 47.4112501L11.9958725 44.9834371C11.9936273 44.9683575 11.9986611 44.9531061 12.0094416 44.9423257 12.0202221 44.9315452 12.0354736 44.9265114 12.0505533 44.9287566L12.3141147 44.9287566C12.3291944 44.9265114 12.3444459 44.9315452 12.3552264 44.9423257 12.3660069 44.9531061 12.3710407 44.9683575 12.3687955 44.9834371L12.3687955 45.1791932C12.3687955 45.1945037 12.3687955 45.2032526 12.3797317 45.207627 12.3906678 45.2120015 12.3961359 45.207627 12.407072 45.1966909 12.5719402 44.9851482 12.8268012 44.8635936 13.0949564 44.8686081 13.1224135 44.8675064 13.1499098 44.8693395 13.1769776 44.8740762ZM15.5391879 47.4101565 14.6752314 43.6918844 14.6697633 43.6700122C14.6697633 43.6437655 14.6883548 43.6317358 14.7255377 43.6317358L15.0372182 43.6317358C15.06687 43.629789 15.0928414 43.6514316 15.0962735 43.6809483L15.8016557 46.7867991C15.8016557 46.801016 15.8114983 46.8086713 15.8180599 46.8086713 15.8246216 46.8086713 15.8311833 46.801016 15.8344642 46.7867991L16.5518762 43.6809483C16.5546984 43.6661652 16.5633752 43.6531501 16.5759357 43.6448592 16.590027 43.6363046 16.606622 43.6328312 16.6229612 43.6350167L16.9116758 43.6350167C16.9265496 43.6350048 16.9410638 43.6395882 16.9532332 43.64814 16.9655404 43.6566825 16.9741409 43.6695831 16.9772928 43.6842291L17.6947048 46.7900799C17.6947048 46.8042968 17.7034537 46.8119521 17.7100154 46.8119521 17.7165771 46.8119521 17.7231388 46.8042968 17.7264196 46.7900799L18.4328955 43.6842291C18.4357974 43.6583468 18.4562258 43.6379186 18.4821082 43.6350167L18.7948823 43.6350167C18.838627 43.6350167 18.8539376 43.6547016 18.8430014 43.6951652L17.9801385 47.4134373C17.9801385 47.4473392 17.9538917 47.4637611 17.9145216 47.4637611L17.5197262 47.4637611C17.5049967 47.4638464 17.4906905 47.4588199 17.4792625 47.4495264 17.4667019 47.4412355 17.4580251 47.4282204 17.4552029 47.4134373L16.7760675 44.4891256C16.7760675 44.4749087 16.7662249 44.4672535 16.757476 44.4672535 16.7487271 44.4672535 16.7421654 44.4749087 16.7377909 44.4891256L16.0608427 47.4134373C16.0572172 47.428167 16.0482541 47.441027 16.0356895 47.4495264 16.0241748 47.458664 16.0099254 47.4636705 15.9952257 47.4637611L15.6004304 47.4637611C15.5691972 47.4644968 15.5425871 47.441213 15.5391879 47.4101565L15.5391879 47.4101565ZM19.4412093 44.2419699C19.3833327 44.187462 19.3504949 44.1115002 19.3504356 44.0319969 19.3500386 43.9530335 19.3830032 43.8775728 19.4412093 43.8242111 19.4966384 43.7680735 19.5722924 43.7365512 19.6511836 43.7367217 19.8113804 43.7414098 19.9392992 43.8717414 19.9409918 44.0319969 19.9416637 44.1109863 19.9100631 44.1868272 19.8535025 44.2419699 19.8019109 44.2994447 19.7284168 44.3324175 19.6511836 44.3327395 19.5716798 44.3326838 19.4957176 44.2998462 19.4412093 44.2419699L19.4412093 44.2419699ZM19.4412093 47.405782 19.4412093 44.9779691C19.4389641 44.9628895 19.4439979 44.947638 19.4547784 44.9368576 19.4655589 44.9260772 19.4808104 44.9210434 19.4958901 44.9232886L19.7856983 44.9232886C19.800778 44.9210434 19.8160295 44.9260772 19.82681 44.9368576 19.8375905 44.947638 19.8426243 44.9628895 19.8403791 44.9779691L19.8403791 47.405782C19.8426243 47.4208616 19.8375905 47.436113 19.82681 47.4468935 19.8160295 47.4576739 19.800778 47.4627077 19.7856983 47.4604625L19.4958901 47.4604625C19.4811641 47.461957 19.4665698 47.456591 19.4563192 47.4459134 19.4460686 47.4352358 19.4413025 47.4204347 19.4433966 47.405782L19.4412093 47.405782ZM21.8548196 44.8740762C21.887628 44.8740762 21.9040323 44.8926675 21.9040323 44.9287566L21.9040323 45.2185631C21.9040323 45.2513714 21.8920025 45.266682 21.8657557 45.266682 21.8393202 45.2667438 21.8129439 45.2641795 21.7870154 45.2590267 21.7625297 45.2540954 21.7376263 45.2515318 21.7126495 45.2513714 21.4680786 45.2460005 21.239056 45.3709212 21.1111608 45.5794543 21.0845751 45.6195604 21.0711921 45.6669741 21.0728842 45.7150618L21.0728842 47.4112501C21.0751294 47.4263297 21.0700956 47.4415811 21.0593151 47.4523615 21.0485346 47.4631419 21.0332831 47.4681757 21.0182034 47.4659305L20.7283952 47.4659305C20.7133155 47.4681757 20.698064 47.4631419 20.6872835 47.4523615 20.676503 47.4415811 20.6714692 47.4263297 20.6737144 47.4112501L20.6737144 44.9834371C20.6714692 44.9683575 20.676503 44.9531061 20.6872835 44.9423257 20.698064 44.9315452 20.7133155 44.9265114 20.7283952 44.9287566L20.990863 44.9287566C21.0059427 44.9265114 21.0211942 44.9315452 21.0319747 44.9423257 21.0427552 44.9531061 21.047789 44.9683575 21.0455438 44.9834371L21.0455438 45.1791932C21.0455438 45.1945037 21.0455438 45.2032526 21.05648 45.207627 21.0674161 45.2120015 21.0728842 45.207627 21.0838204 45.1966909 21.2491423 44.9851126 21.5043359 44.8635925 21.7727984 44.8686081 21.8002548 44.8675557 21.8277458 44.8693884 21.8548196 44.8740762ZM22.576606 43.933572 22.8718823 43.7749987C22.8809012 43.7731422 22.8902038 43.7731422 22.8992227 43.7749987 22.9254695 43.7749987 22.9374993 43.7892156 22.9374993 43.8187431L22.9374993 44.9014164C22.9363767 44.9089562 22.9388936 44.9165819 22.9442838 44.9219721 22.9496741 44.9273623 22.9572998 44.9298792 22.9648397 44.9287566L23.2666776 44.9287566C23.302767 44.9287566 23.3202648 44.9462544 23.3202648 44.9834371L23.3202648 45.2174695C23.3202648 45.2546522 23.302767 45.27215 23.2666776 45.27215L22.9659333 45.27215C22.9582817 45.2714111 22.9507124 45.2742117 22.9453843 45.2797528 22.9400563 45.2852939 22.9375546 45.2929672 22.9385929 45.3005838L22.9385929 47.4112501C22.9408381 47.4263297 22.9358043 47.4415811 22.9250238 47.4523615 22.9142433 47.4631419 22.8989918 47.4681757 22.8839121 47.4659305L22.5941039 47.4659305C22.5790242 47.4681757 22.5637727 47.4631419 22.5529922 47.4523615 22.5422117 47.4415811 22.5371779 47.4263297 22.5394231 47.4112501L22.5394231 45.3005838C22.5394231 45.2819925 22.5306742 45.27215 22.5120827 45.27215L22.2113383 45.27215C22.1962587 45.2743952 22.1810071 45.2693614 22.1702266 45.258581 22.1594462 45.2478006 22.1544123 45.2325491 22.1566575 45.2174695L22.1566575 44.9834371C22.1544123 44.9683575 22.1594462 44.9531061 22.1702266 44.9423257 22.1810071 44.9315452 22.1962587 44.9265114 22.2113383 44.9287566L22.5120827 44.9287566C22.5196225 44.9298792 22.5272483 44.9273623 22.5326385 44.9219721 22.5380288 44.9165819 22.5405457 44.9089562 22.5394231 44.9014164L22.5394231 44.0046567C22.5337911 43.9752 22.5491977 43.9457462 22.576606 43.933572ZM24.0070556 47.3532888C23.8595804 47.2445042 23.7510595 47.0911186 23.6975623 46.915845L23.6975623 46.8939728C23.6968182 46.8719834 23.7129231 46.8530366 23.7347452 46.8502284L23.997213 46.7572716 24.0190854 46.7518036C24.0409577 46.7518036 24.0573619 46.7660205 24.0682981 46.795548 24.0973109 46.9060668 24.1642874 47.002853 24.2574936 47.0689503 24.3438813 47.1319935 24.448012 47.1660655 24.5549571 47.1662816 24.6813542 47.1763798 24.8067576 47.1371914 24.9049142 47.0569206 24.9854429 46.9838382 25.0298235 46.8790847 25.0263056 46.7703949 25.0312165 46.665921 24.9876308 46.5650289 24.9081951 46.4969926 24.8128017 46.4232914 24.6996132 46.3761298 24.5801103 46.3602914L24.3613871 46.316547C24.1890144 46.2881216 24.032183 46.1998318 23.9184727 46.0672041 23.7243109 45.8279604 23.7002846 45.4929048 23.8583238 45.2284056 23.9295853 45.1144412 24.0310359 45.0224548 24.1514129 44.9626585 24.2829277 44.8977725 24.4280106 44.8651571 24.5746422 44.8675145 24.7576428 44.8618814 24.9374387 44.9164345 25.0864545 45.022807 25.2311946 45.1340007 25.3340962 45.2908573 25.3784499 45.4679061L25.383918 45.4908719C25.383918 45.5127441 25.369701 45.5291482 25.3401733 45.5400843L25.0831736 45.6057009 25.0623949 45.6111689C25.039429 45.6111689 25.025212 45.596952 25.0175567 45.5674245 24.9939668 45.4676164 24.9396505 45.3777273 24.8622632 45.3104263 24.7804807 45.2462493 24.6785157 45.213295 24.5746422 45.2174695 24.4626318 45.2121657 24.3526686 45.2488199 24.2662425 45.3202688 24.189294 45.3859302 24.1459293 45.4826973 24.148132 45.5838287 24.1418742 45.6770855 24.1756891 45.7685842 24.2410894 45.8353589 24.3211351 45.9014521 24.4174341 45.9448808 24.5199614 45.9611239L24.7332165 46.0037747C24.9206784 46.0355915 25.0937169 46.1245932 25.2286245 46.2585857 25.3576118 46.3969452 25.4254166 46.5814364 25.4167264 46.7703949 25.4225878 46.9751639 25.33774 47.1720736 25.1848799 47.3084508 25.00867 47.456502 24.7825422 47.5316166 24.5527699 47.5184238 24.3576587 47.5248584 24.1658641 47.4668207 24.0070556 47.3532888ZM26.0575853 45.5029016C26.1601396 45.3071582 26.316458 45.1447702 26.5081551 45.0348368 26.7083675 44.9224709 26.9347618 44.865118 27.1643246 44.8686081 27.372036 44.865744 27.5773312 44.9134082 27.7625325 45.0074965 27.9392791 45.0961607 28.0866327 45.234019 28.1868554 45.4044767 28.1910586 45.412948 28.1929452 45.4223807 28.1923235 45.431817 28.192765 45.4519545 28.1823144 45.4707656 28.1649831 45.4810294L27.9298557 45.6122625 27.9025153 45.6231986C27.8886628 45.6231986 27.8722586 45.6122625 27.8533026 45.5903903 27.7853519 45.4776903 27.6867305 45.3866557 27.5689625 45.3279241 27.443629 45.2645507 27.3047501 45.2326463 27.1643246 45.2349673 26.9257608 45.2251334 26.6952305 45.322156 26.5354955 45.4996208 26.2220443 45.9074943 26.2220443 46.4751632 26.5354955 46.8830367 26.6948427 47.0611629 26.9255287 47.1586522 27.1643246 47.1487838 27.301871 47.1503403 27.4377344 47.1184389 27.5602135 47.055827 27.6783559 46.9942739 27.7791379 46.9040219 27.8533026 46.7933607 27.8751749 46.7605524 27.9003281 46.7528972 27.9298557 46.7714885L28.1649831 46.9027217C28.1783721 46.9096425 28.1883107 46.9217827 28.1924513 46.9362746 28.1965918 46.9507665 28.1945553 46.9663248 28.1868554 46.9792743 28.0996034 47.1540094 27.9563922 47.2945249 27.7800303 47.3784418 27.5881498 47.4710719 27.3773766 47.5178685 27.1643246 47.515143 26.9346065 47.5187731 26.708084 47.4610103 26.5081551 47.3478207 26.3165352 47.2382789 26.1602082 47.0762614 26.0575853 46.8808495 25.8417992 46.4468773 25.8417992 45.9368738 26.0575853 45.5029016L26.0575853 45.5029016ZM29.1547055 47.4626497 28.8648973 47.4626497C28.8498176 47.4648949 28.8345661 47.4598611 28.8237856 47.4490807 28.8130051 47.4383003 28.8079713 47.4230488 28.8102165 47.4079692L28.8102165 43.558464C28.8079713 43.5433844 28.8130051 43.528133 28.8237856 43.5173526 28.8345661 43.5065721 28.8498176 43.5015383 28.8648973 43.5037835L29.1547055 43.5037835C29.1697852 43.5015383 29.1850367 43.5065721 29.1958172 43.5173526 29.2065977 43.528133 29.2116315 43.5433844 29.2093863 43.558464L29.2093863 45.1332616C29.2093863 45.1507594 29.2093863 45.1616954 29.2203224 45.1627891 29.2312586 45.1638827 29.2367267 45.1627891 29.2476628 45.1441977 29.3263813 45.0599423 29.4217079 44.9929161 29.5276285 44.947348 29.6413654 44.8975965 29.7643879 44.8726193 29.8885217 44.8740762 30.1170284 44.8555703 30.3423177 44.9371538 30.5059914 45.0976791 30.6696652 45.2582043 30.755608 45.4818658 30.7415421 45.7106874L30.7415421 47.4112501C30.7437873 47.4263297 30.7387535 47.4415811 30.727973 47.4523615 30.7171925 47.4631419 30.701941 47.4681757 30.6868613 47.4659305L30.3970531 47.4659305C30.3819734 47.4681757 30.3667219 47.4631419 30.3559414 47.4523615 30.3451609 47.4415811 30.3401271 47.4263297 30.3423723 47.4112501L30.3423723 45.7708359C30.3534386 45.6220227 30.3041727 45.4750142 30.2056703 45.3629196 30.0992816 45.2641853 29.9567604 45.2139072 29.8119686 45.2240312 29.6960445 45.2235702 29.582337 45.2557871 29.4838839 45.316988 29.3805464 45.3830932 29.2967326 45.4755899 29.2411011 45.5849223 29.222847 45.6204287 29.2134661 45.6598286 29.2137607 45.6997513L29.2137607 47.405782C29.2173327 47.4221134 29.2121723 47.4391284 29.2001303 47.4507244 29.1880883 47.4623203 29.1708906 47.4668352 29.1547055 47.4626497L29.1547055 47.4626497ZM31.9762344 47.3532888C31.7866996 47.2417947 31.6315587 47.0802221 31.5278519 46.8863175 31.3094787 46.4529566 31.3094787 45.9417305 31.5278519 45.5083696 31.6316727 45.3142629 31.7867636 45.1523641 31.9762344 45.0403048 32.1689236 44.9289908 32.3880146 44.8715742 32.6105316 44.8740762 32.9230751 44.8551465 33.22715 44.9799977 33.4362116 45.2130951 33.4438669 45.2196567 33.4504286 45.221844 33.4580839 45.2130951 33.4657392 45.2043462 33.4690201 45.2032526 33.4690201 45.1923165L33.4690201 44.9735946C33.4667749 44.958515 33.4718087 44.9432636 33.4825892 44.9324832 33.4933697 44.9217028 33.5086212 44.9166689 33.5237009 44.9189142L33.7927304 44.9189142C33.8078101 44.9166689 33.8230616 44.9217028 33.8338421 44.9324832 33.8446226 44.9432636 33.8496564 44.958515 33.8474112 44.9735946L33.8474112 47.4014076C33.8496564 47.4164872 33.8446226 47.4317386 33.8338421 47.442519 33.8230616 47.4532994 33.8078101 47.4583333 33.7927304 47.4560881L33.5247945 47.4560881C33.5097148 47.4583333 33.4944633 47.4532994 33.4836828 47.442519 33.4729023 47.4317386 33.4678685 47.4164872 33.4701137 47.4014076L33.4701137 47.1826857C33.4711439 47.1735717 33.4669025 47.1646648 33.4591776 47.1597199 33.4512334 47.1570229 33.4424529 47.159657 33.4373052 47.1662816 33.2205036 47.388162 32.9217931 47.5108106 32.6116253 47.5053005 32.3899992 47.5128172 32.1704616 47.4602947 31.9762344 47.3532888ZM33.1299992 47.050359C33.2569045 46.9852661 33.3601822 46.881989 33.4252755 46.7550844 33.440452 46.7245395 33.4479592 46.6907573 33.4471478 46.6566596L33.4471478 45.7380276C33.4481857 45.7039081 33.4406664 45.6700715 33.4252755 45.6396028 33.3545684 45.5138887 33.2489755 45.411335 33.1212502 45.3443282 32.9829169 45.2698572 32.8277615 45.2321984 32.6706805 45.2349673 32.4239339 45.2238946 32.1845275 45.3204546 32.014511 45.4996208 31.6819483 45.9049166 31.6819483 46.488677 32.014511 46.8939728 32.1843312 47.0735415 32.423764 47.1705112 32.6706805 47.1597199 32.8309882 47.1605336 32.9889286 47.1210371 33.1299992 47.0448909L33.1299992 47.050359ZM34.7769847 47.405782 34.7769847 45.2951158C34.7769847 45.2765244 34.7682358 45.266682 34.7496443 45.266682L34.5309211 45.266682C34.5170296 45.2668592 34.503505 45.2622222 34.4926446 45.2535586 34.4819015 45.2451825 34.4758059 45.2321786 34.4762403 45.2185631L34.4762403 44.9779691C34.4739951 44.9628895 34.4790289 44.947638 34.4898094 44.9368576 34.5005899 44.9260772 34.5158414 44.9210434 34.5309211 44.9232886L34.7496443 44.9232886C34.7571841 44.9244112 34.7648099 44.9218943 34.7702001 44.9165041 34.7755904 44.9111139 34.7781073 44.9034881 34.7769847 44.8959484L34.7769847 44.0855838C34.7674078 43.9145329 34.8220045 43.746064 34.9300909 43.6131445 35.0430688 43.4936352 35.2034307 43.4306936 35.3675372 43.4414478 35.4714988 43.4441084 35.5738282 43.4679231 35.6682816 43.5114388 35.7010901 43.5311238 35.7131199 43.5519024 35.7065582 43.578149L35.6300051 43.8351472C35.6190689 43.8679555 35.5950093 43.8745171 35.55892 43.8570194 35.5102099 43.8302385 35.4558973 43.8152558 35.4003457 43.813275 35.336479 43.8106456 35.2753119 43.8391901 35.2363033 43.8898277 35.1919764 43.9537793 35.1707612 44.030925 35.1761545 44.1085496L35.1761545 44.8959484C35.1750319 44.9034881 35.1775488 44.9111139 35.182939 44.9165041 35.1883293 44.9218943 35.195955 44.9244112 35.2034949 44.9232886L35.5425158 44.9232886C35.5575955 44.9210434 35.572847 44.9260772 35.5836275 44.9368576 35.594408 44.947638 35.5994418 44.9628895 35.5971966 44.9779691L35.5971966 45.2185631C35.597631 45.2321786 35.5915354 45.2451825 35.5807923 45.2535586 35.5699319 45.2622222 35.5564073 45.2668592 35.5425158 45.266682L35.2034949 45.266682C35.1849034 45.266682 35.1761545 45.2765244 35.1761545 45.2951158L35.1761545 47.405782C35.1763317 47.4196735 35.1716947 47.433198 35.1630311 47.4440583 35.1540065 47.4545775 35.1408011 47.4605799 35.1269418 47.4604625L34.8316655 47.4604625C34.8165858 47.4627077 34.8013343 47.4576739 34.7905538 47.4468935 34.7797733 47.436113 34.7747395 47.4208616 34.7769847 47.405782L34.7769847 47.405782ZM36.3080469 43.933572 36.6033232 43.7749987C36.6123283 43.7730112 36.6216585 43.7730112 36.6306636 43.7749987 36.6558167 43.7749987 36.6689401 43.7892156 36.6689401 43.8187431L36.6689401 44.9014164C36.6678175 44.9089562 36.6703344 44.9165819 36.6757247 44.9219721 36.6811149 44.9273623 36.6887407 44.9298792 36.6962805 44.9287566L36.9970249 44.9287566C37.0121046 44.9265114 37.0273561 44.9315452 37.0381366 44.9423257 37.0489171 44.9531061 37.0539509 44.9683575 37.0517057 44.9834371L37.0517057 45.2174695C37.0539509 45.2325491 37.0489171 45.2478006 37.0381366 45.258581 37.0273561 45.2693614 37.0121046 45.2743952 36.9970249 45.27215L36.6962805 45.27215C36.6776891 45.27215 36.6689401 45.2819925 36.6689401 45.3005838L36.6689401 47.4112501C36.6711853 47.4263297 36.6661515 47.4415811 36.655371 47.4523615 36.6445905 47.4631419 36.629339 47.4681757 36.6142593 47.4659305L36.3244511 47.4659305C36.3093715 47.4681757 36.2941199 47.4631419 36.2833394 47.4523615 36.272559 47.4415811 36.2675251 47.4263297 36.2697703 47.4112501L36.2697703 45.3005838C36.2708086 45.2929672 36.2683069 45.2852939 36.2629789 45.2797528 36.2576509 45.2742117 36.2500815 45.2714111 36.2424299 45.27215L35.9416856 45.27215C35.9266059 45.2743952 35.9113544 45.2693614 35.9005739 45.258581 35.8897934 45.2478006 35.8847596 45.2325491 35.8870048 45.2174695L35.8870048 44.9834371C35.8847596 44.9683575 35.8897934 44.9531061 35.9005739 44.9423257 35.9113544 44.9315452 35.9266059 44.9265114 35.9416856 44.9287566L36.2424299 44.9287566C36.2499698 44.9298792 36.2575955 44.9273623 36.2629858 44.9219721 36.268376 44.9165819 36.2708929 44.9089562 36.2697703 44.9014164L36.2697703 44.0046567C36.2642979 43.9749203 36.2802087 43.9453719 36.3080469 43.933572L36.3080469 43.933572ZM38.0764238 46.9245939C38.1459535 47.0003263 38.1821975 47.1007847 38.1770364 47.2034643 38.1780954 47.2955344 38.1625355 47.3870403 38.1311046 47.4735858 38.0907341 47.5730007 38.0420792 47.6688466 37.9856536 47.7601115L37.5755477 48.4665832C37.5569562 48.5026723 37.5318031 48.5103276 37.4989946 48.4884554L37.3130799 48.3681583C37.2996798 48.3623283 37.2898536 48.3504698 37.286615 48.3362198 37.2833763 48.3219699 37.2871118 48.3070292 37.2966756 48.2959801L37.7177178 47.5752915C37.7247738 47.5637636 37.7285546 47.5505307 37.7286539 47.5370152 37.7286539 47.5260791 37.7177178 47.515143 37.6958454 47.5031133 37.627726 47.4825791 37.5686821 47.4393577 37.5285222 47.380629 37.4862748 47.3184796 37.4644825 47.2446921 37.4661861 47.1695624 37.4660636 47.0760525 37.505849 46.9869337 37.5755477 46.9245939 37.6426374 46.857344 37.733727 46.8195499 37.8287198 46.8195499 37.9237125 46.8195499 38.0148021 46.857344 38.0818918 46.9245939L38.0764238 46.9245939ZM40.3314597 43.6350167 42.1906067 43.6350167C42.2056863 43.6327715 42.2209379 43.6378053 42.2317184 43.6485857 42.2424988 43.6593661 42.2475327 43.6746176 42.2452875 43.6896971L42.2452875 43.9630995C42.2475327 43.9781791 42.2424988 43.9934305 42.2317184 44.0042109 42.2209379 44.0149914 42.2056863 44.0200252 42.1906067 44.01778L40.7076635 44.01778C40.700413 44.0166429 40.6930556 44.0190396 40.687866 44.0242292 40.6826764 44.0294188 40.6802797 44.0367761 40.6814168 44.0440266L40.6814168 45.2863669C40.6803697 45.2936932 40.6827528 45.3010938 40.6878781 45.3064326 40.6930034 45.3117714 40.7003006 45.3144544 40.7076635 45.3137072L42.1960747 45.3137072C42.2111544 45.311462 42.2264059 45.3164958 42.2371864 45.3272762 42.2479669 45.3380566 42.2530008 45.353308 42.2507555 45.3683876L42.2507555 45.647258C42.2530008 45.6623376 42.2479669 45.6775891 42.2371864 45.6883695 42.2264059 45.6991499 42.2111544 45.7041837 42.1960747 45.7019385L40.7076635 45.7019385C40.6901657 45.7019385 40.6814168 45.7106874 40.6814168 45.7292787L40.6814168 47.0416101C40.6803697 47.0489364 40.6827528 47.0563369 40.6878781 47.0616758 40.6930034 47.0670146 40.7003006 47.0696975 40.7076635 47.0689503L42.1960747 47.0689503C42.2111544 47.0667051 42.2264059 47.0717389 42.2371864 47.0825193 42.2479669 47.0932998 42.2530008 47.1085512 42.2507555 47.1236308L42.2507555 47.4025012C42.2530008 47.4175808 42.2479669 47.4328322 42.2371864 47.4436126 42.2264059 47.4543931 42.2111544 47.4594269 42.1960747 47.4571817L40.3369278 47.4571817C40.3218481 47.4594269 40.3065966 47.4543931 40.2958161 47.4436126 40.2850356 47.4328322 40.2800018 47.4175808 40.282247 47.4025012L40.282247 43.6842291C40.2819447 43.6710868 40.2870325 43.6583931 40.296328 43.6490976 40.3056235 43.6398022 40.3183173 43.6347144 40.3314597 43.6350167ZM43.3389033 47.4626497 43.0490951 47.4626497C43.0340154 47.4648949 43.0187639 47.4598611 43.0079834 47.4490807 42.997203 47.4383003 42.9921691 47.4230488 42.9944143 47.4079692L42.9944143 44.9801563C42.9921691 44.9650767 42.997203 44.9498253 43.0079834 44.9390448 43.0187639 44.9282644 43.0340154 44.9232306 43.0490951 44.9254758L43.3071885 44.9254758C43.3222681 44.9232306 43.3375197 44.9282644 43.3483002 44.9390448 43.3590806 44.9498253 43.3641145 44.9650767 43.3618693 44.9801563L43.3618693 45.1595082C43.3618693 45.1748188 43.3618693 45.1835676 43.3749927 45.1879421 43.388116 45.1923165 43.3946777 45.1879421 43.4056139 45.1715379 43.4866024 45.0799672 43.5851528 45.0055899 43.6954221 44.952816 43.8119226 44.8993291 43.9390971 44.8731463 44.0672515 44.8762634 44.300723 44.8619007 44.5293084 44.9473713 44.6960806 45.1113894 44.8477109 45.274164 44.92837 45.4905652 44.9202719 45.7128746L44.9202719 47.4134373C44.9225171 47.4285169 44.9174833 47.4437683 44.9067028 47.4545487 44.8959223 47.4653292 44.8806708 47.470363 44.8655911 47.4681178L44.5757829 47.4681178C44.5607032 47.470363 44.5454517 47.4653292 44.5346712 47.4545487 44.5238907 47.4437683 44.5188569 47.4285169 44.5211021 47.4134373L44.5211021 45.7730231C44.5316735 45.6242723 44.4824699 45.4774499 44.3844001 45.3651068 44.2777375 45.2668265 44.1354185 45.2166198 43.9906984 45.2262184 43.874651 45.2248438 43.7606925 45.2571319 43.6626136 45.3191752 43.5593425 45.3863458 43.4747051 45.478506 43.4165501 45.5871095 43.398296 45.6226159 43.388915 45.6620158 43.3892097 45.7019385L43.3892097 47.4079692C43.3911926 47.4222139 43.3867 47.4365987 43.3769625 47.4471829 43.367225 47.4577671 43.3532636 47.4634408 43.3389033 47.4626497L43.3389033 47.4626497ZM46.1680876 47.3532888C45.9739498 47.2452237 45.8154854 47.0829601 45.7120498 46.8863175 45.4954662 46.4474433 45.4958706 45.9326861 45.7131434 45.4941527 45.8136358 45.3002991 45.9672682 45.1390808 46.1560578 45.0293687 46.3481783 44.9188467 46.5665474 44.8621769 46.7881678 44.8653273 47.007641 44.8627646 47.2237439 44.9194346 47.4137161 45.0293687 47.5980699 45.1366281 47.7493969 45.292494 47.8511624 45.4799358 47.9583967 45.6790701 48.0129806 45.902298 48.0097367 46.1284462 48.0101489 46.1704352 48.0083236 46.2124164 48.0042686 46.2542113 47.999407 46.2803322 47.976139 46.2989465 47.9495878 46.2979557L46.0182622 46.2979557C45.9745176 46.2979557 45.9581133 46.3209215 45.9690495 46.3690403 45.9873721 46.5877487 46.0854564 46.79209 46.2446407 46.9431852 46.4068012 47.0902265 46.619677 47.1686333 46.8384741 47.1619071 47.1113013 47.1620025 47.3714674 47.0468152 47.5547925 46.8447604 47.5952563 46.8042968 47.6258775 46.7977352 47.6477499 46.8217946L47.8281965 47.0197379C47.8533496 47.0416101 47.8533496 47.0645759 47.8281965 47.0908225 47.7004783 47.2263614 47.5469024 47.3349423 47.3765331 47.4101565 47.2068976 47.4841409 47.0235319 47.5214102 46.8384741 47.5195174 46.6043757 47.523198 46.3733469 47.4659122 46.1680876 47.3532888L46.1680876 47.3532888ZM47.5821329 45.916286C47.5533858 45.7228936 47.4578123 45.5456774 47.3120098 45.4154128 47.0024059 45.1627062 46.5570938 45.1649993 46.2501088 45.4208809 46.1029469 45.5500679 46.0070856 45.7278178 45.9799857 45.921754L45.9745176 45.9480006C45.9745176 45.9709664 45.9920154 45.9819025 46.0281048 45.9819025L47.5329202 45.9819025C47.5766648 45.9833607 47.5930691 45.9622176 47.5821329 45.9184732L47.5821329 45.916286ZM49.8185774 44.8740762C49.8513858 44.8740762 49.8677901 44.8926675 49.8677901 44.9287566L49.8677901 45.2185631C49.8677901 45.2513714 49.8546667 45.266682 49.8295135 45.266682 49.8030731 45.2668489 49.7766862 45.2642835 49.7507732 45.2590267 49.7262875 45.2540954 49.7013841 45.2515318 49.6764073 45.2513714 49.4318364 45.2460005 49.2028138 45.3709212 49.0749186 45.5794543 49.04755 45.6191969 49.0340925 45.6668746 49.036642 45.7150618L49.036642 47.4112501C49.0388872 47.4263297 49.0338534 47.4415811 49.0230729 47.4523615 49.0122924 47.4631419 48.9970409 47.4681757 48.9819612 47.4659305L48.692153 47.4659305C48.6770733 47.4681757 48.6618218 47.4631419 48.6510413 47.4523615 48.6402608 47.4415811 48.635227 47.4263297 48.6374722 47.4112501L48.6374722 44.9834371C48.635227 44.9683575 48.6402608 44.9531061 48.6510413 44.9423257 48.6618218 44.9315452 48.6770733 44.9265114 48.692153 44.9287566L48.9546208 44.9287566C48.9697005 44.9265114 48.984952 44.9315452 48.9957325 44.9423257 49.006513 44.9531061 49.0115468 44.9683575 49.0093016 44.9834371L49.0093016 45.1791932C49.0093016 45.1945037 49.0093016 45.2032526 49.0202378 45.207627 49.0311739 45.2120015 49.036642 45.207627 49.0475782 45.1966909 49.2127895 44.9849748 49.4680564 44.8634199 49.7365562 44.8686081 49.764012 44.8675955 49.7914989 44.8694279 49.8185774 44.8740762L49.8185774 44.8740762ZM50.7864274 48.4742384C50.6247864 48.4039348 50.479539 48.3007725 50.3599172 48.1713086 50.3492853 48.1611934 50.3432669 48.1471605 50.3432669 48.1324855 50.3432669 48.1178105 50.3492853 48.1037776 50.3599172 48.0936624L50.5458319 47.8913446C50.5543419 47.8785154 50.5687133 47.8708027 50.5841085 47.8708027 50.5995036 47.8708027 50.613875 47.8785154 50.622385 47.8913446 50.9708127 48.264762 51.5392902 48.3288023 51.9620645 48.0422627 52.1130003 47.9054017 52.1917958 47.7061917 52.1753196 47.5031133L52.1753196 47.1269116C52.1770636 47.1150539 52.1701988 47.1036126 52.1589153 47.0995714 52.1442906 47.0970532 52.1294924 47.1029725 52.1206388 47.1148819 51.9078382 47.3135763 51.6241044 47.4183996 51.3332353 47.405782 51.1168739 47.4084798 50.9036655 47.3537629 50.7153424 47.2472087 50.5303583 47.1417358 50.3787705 46.9863593 50.277896 46.7988288 50.1691299 46.593579 50.1145493 46.3639653 50.1193217 46.131727 50.1154234 45.9023938 50.1720023 45.6760797 50.2833641 45.4755614 50.3885661 45.2888806 50.5428775 45.1345701 50.7295594 45.0293687 50.9208195 44.9233366 51.1364405 44.8690547 51.3551077 44.8718889 51.6507153 44.8565136 51.9389397 44.9674296 52.1479792 45.177006 52.1621962 45.1923165 52.1742259 45.1977846 52.1829749 45.1945037 52.1917238 45.1912229 52.1971919 45.1791932 52.1971919 45.1606018L52.1971919 44.9812499C52.1970151 44.9667482 52.2029729 44.9528467 52.2135961 44.9429736 52.2236216 44.9325688 52.237424 44.9266536 52.2518727 44.9265694L52.5198086 44.9265694C52.5348882 44.9243242 52.5501398 44.929358 52.5609202 44.9401384 52.5717007 44.9509189 52.5767346 44.9661703 52.5744894 44.9812499L52.5744894 47.540296C52.5898393 47.8366142 52.4651055 48.1229332 52.2376557 48.3134779 51.9876876 48.5058184 51.6778715 48.6037971 51.362763 48.590161 51.1646145 48.5927171 50.9681782 48.5532064 50.7864274 48.4742384L50.7864274 48.4742384ZM51.8527029 46.93553C51.9751481 46.869819 52.0786947 46.7738035 52.1534472 46.6566596 52.1713612 46.6269564 52.1808153 46.5929216 52.1807876 46.5582347L52.1807876 45.7128746C52.1819282 45.6783879 52.1723787 45.6443919 52.1534472 45.6155434 52.0793137 45.4978843 51.9756151 45.401728 51.8527029 45.336673 51.7160943 45.2654986 51.5637973 45.2297748 51.4097885 45.2327801 51.1712578 45.2227054 50.9396129 45.3140914 50.7722104 45.4843102 50.6070598 45.6597284 50.5195446 45.8942835 50.5294277 46.1350078 50.5194229 46.3773843 50.6068531 46.6136807 50.7722104 46.7911735 50.9399208 46.9609267 51.1713508 47.0522279 51.4097885 47.0427037 51.5640794 47.0446985 51.7163926 47.0078427 51.8527029 46.93553ZM53.3968885 44.2419699C53.3397366 44.1870511 53.3073665 44.1112582 53.3072102 44.0319969 53.3069334 43.9532833 53.3394227 43.8780037 53.3968885 43.8242111 53.4527234 43.7680105 53.5287349 43.7365034 53.6079563 43.7367212 53.684549 43.7368644 53.7577118 43.7685021 53.8102753 43.8242111 53.8667157 43.8785332 53.89835 43.953664 53.8977646 44.0319969 53.8979357 44.1108876 53.8664132 44.1865412 53.8102753 44.2419699 53.7586837 44.2994447 53.6851896 44.3324175 53.6079563 44.3327395 53.528126 44.3327255 53.4518094 44.2999056 53.3968885 44.2419699L53.3968885 44.2419699ZM53.3968885 47.405782 53.3968885 44.9779691C53.3946433 44.9628895 53.3996771 44.947638 53.4104576 44.9368576 53.4212381 44.9260772 53.4364896 44.9210434 53.4515693 44.9232886L53.7413775 44.9232886C53.7564572 44.9210434 53.7717087 44.9260772 53.7824892 44.9368576 53.7932697 44.947638 53.7983035 44.9628895 53.7960583 44.9779691L53.7960583 47.405782C53.7983035 47.4208616 53.7932697 47.436113 53.7824892 47.4468935 53.7717087 47.4576739 53.7564572 47.4627077 53.7413775 47.4604625L53.4515693 47.4604625C53.4370248 47.4615996 53.4227497 47.4560769 53.4127577 47.4454471 53.4027656 47.4348173 53.3981356 47.4202284 53.4001693 47.405782L53.3968885 47.405782ZM55.0712144 47.3532888C54.8765164 47.2455969 54.7176041 47.083264 54.614083 46.8863175 54.3968401 46.4480719 54.3968401 45.933492 54.614083 45.4952463 54.7145753 45.3013927 54.8682078 45.1401744 55.0569974 45.0304623 55.4476831 44.8117227 55.92397 44.8117227 56.3146556 45.0304623 56.4988703 45.1378997 56.6501545 45.2937215 56.752102 45.4810294 56.8599816 45.6799152 56.9146073 45.9033143 56.9106763 46.1295398 56.9129077 46.1714318 56.9129077 46.2134129 56.9106763 46.2553049 56.9058146 46.2814258 56.8825467 46.3000401 56.8559955 46.2990493L54.9202954 46.2990493C54.8765508 46.2990493 54.8601465 46.3220151 54.8710827 46.3701339 54.8897966 46.5889658 54.9882638 46.7932938 55.1477675 46.9442788 55.3094105 47.091453 55.5220094 47.1699023 55.7405073 47.1630007 56.0133345 47.1630961 56.2735006 47.0479088 56.4568257 46.845854 56.4972895 46.8053904 56.5279107 46.7988288 56.549783 46.8228882L56.7302297 47.0208315C56.7553828 47.0427037 56.7553828 47.0656695 56.7302297 47.0919161 56.602697 47.2271805 56.4495363 47.3357307 56.2796599 47.4112501 56.1096873 47.4853859 55.9259329 47.5226584 55.7405073 47.520611 55.5066456 47.5240695 55.2759354 47.4663923 55.0712144 47.3532888L55.0712144 47.3532888ZM56.4841661 45.916286C56.4551599 45.7231075 56.3586891 45.5464391 56.2118557 45.4176001 56.066188 45.2906155 55.8778841 45.2234203 55.6847329 45.2294992 55.4889051 45.2250994 55.2985215 45.294152 55.1510483 45.4230681 55.0038865 45.5522551 54.9080251 45.730005 54.8809252 45.9239412L54.8809252 45.9501879C54.8809252 45.9731537 54.8995167 45.9840897 54.935606 45.9840897L56.4305789 45.9840897C56.4772399 45.9840897 56.4951022 45.9622176 56.4841661 45.9184732L56.4841661 45.916286ZM9.35588377 51.9989417 9.64569198 51.9989417C9.66077165 51.9966965 9.67602318 52.0017303 9.68680366 52.0125107 9.69758415 52.0232911 9.70261799 52.0385426 9.70037277 52.0536221L9.70037277 54.4814351C9.70261799 54.4965147 9.69758415 54.5117661 9.68680366 54.5225465 9.67602318 54.533327 9.66077165 54.5383608 9.64569198 54.5361156L9.38322417 54.5361156C9.36814449 54.5383608 9.35289296 54.533327 9.34211248 54.5225465 9.331332 54.5117661 9.32629816 54.4965147 9.32854337 54.4814351L9.32854337 54.3009895C9.3298809 54.2898191 9.32423917 54.2789696 9.31432637 54.2736493 9.30557744 54.2736493 9.29354767 54.2736493 9.27933066 54.2900534 9.11812571 54.4853936 8.87637272 54.5961964 8.62316114 54.590796 8.38799329 54.605819 8.15772422 54.5189706 7.99105116 54.3523892 7.84175704 54.1880965 7.76317853 53.971614 7.77232799 53.7498104L7.77232799 52.0558094C7.77008277 52.0407298 7.77511661 52.0254783 7.7858971 52.0146979 7.79667758 52.0039175 7.81192911 51.9988837 7.82700878 52.0011289L8.11462976 52.0011289C8.12970943 51.9988837 8.14496096 52.0039175 8.15574145 52.0146979 8.16652193 52.0254783 8.17155577 52.0407298 8.16931055 52.0558094L8.16931055 53.6962235C8.1616901 53.8432261 8.21283775 53.9872256 8.31148061 54.0964846 8.41786934 54.1952189 8.56039059 54.2454969 8.70518233 54.235373 8.82122967 54.2367476 8.93518826 54.2044595 9.03326709 54.1424162 9.13624904 54.0753707 9.22083483 53.9836427 9.27933066 53.8755755 9.29699061 53.8394626 9.306333 53.7998511 9.30667106 53.7596529L9.30667106 52.0558094C9.30399897 52.0414219 9.30801913 52.0266004 9.31759499 52.015535 9.32717084 52.0044697 9.34126167 51.9983631 9.35588377 51.9989417L9.35588377 51.9989417ZM10.8760098 54.5361156 10.5862016 54.5361156C10.5711219 54.5383608 10.5558704 54.533327 10.5450899 54.5225465 10.5343095 54.5117661 10.5292756 54.4965147 10.5315208 54.4814351L10.5315208 52.0558094C10.5292756 52.0407298 10.5343095 52.0254783 10.5450899 52.0146979 10.5558704 52.0039175 10.5711219 51.9988837 10.5862016 52.0011289L10.8486694 52.0011289C10.8637491 51.9988837 10.8790006 52.0039175 10.8897811 52.0146979 10.9005616 52.0254783 10.9055954 52.0407298 10.9033502 52.0558094L10.9033502 52.2362549C10.9033502 52.2515654 10.9033502 52.2603143 10.9164736 52.2635952 10.929597 52.266876 10.9361587 52.2635952 10.9470949 52.247191 11.0278671 52.1539741 11.1263833 52.077764 11.2369031 52.0230011 11.3531882 51.9700385 11.4798864 51.9438768 11.6076388 51.9464484 11.8410686 51.9323645 12.0695444 52.0177941 12.236468 52.1815744 12.388496 52.3441742 12.4695563 52.560596 12.4617528 52.7830596L12.4617528 54.4836223C12.4639981 54.4987019 12.4589642 54.5139533 12.4481837 54.5247338 12.4374033 54.5355142 12.4221517 54.540548 12.407072 54.5383028L12.1161702 54.5383028C12.1010906 54.540548 12.085839 54.5355142 12.0750585 54.5247338 12.0642781 54.5139533 12.0592442 54.4987019 12.0614894 54.4836223L12.0614894 52.846489C12.072186 52.6982438 12.0233859 52.5518446 11.9258811 52.4396663 11.8193971 52.3409893 11.677057 52.2903797 11.5321794 52.2996843 11.4161982 52.2988035 11.3023762 52.3310529 11.2040946 52.3926411 11.1010668 52.4600988 11.0164928 52.55219 10.958031 52.6605754 10.9397769 52.6960817 10.9303959 52.7354817 10.9306906 52.7754044L10.9306906 54.4814351C10.9329358 54.4965147 10.927902 54.5117661 10.9171215 54.5225465 10.906341 54.533327 10.8910895 54.5383608 10.8760098 54.5361156L10.8760098 54.5361156ZM15.2231329 50.5772494 15.5129411 50.5772494C15.5280208 50.5750042 15.5432723 50.580038 15.5540528 50.5908184 15.5648333 50.6015988 15.5698671 50.6168503 15.5676219 50.6319299L15.5676219 54.4814351C15.5698671 54.4965147 15.5648333 54.5117661 15.5540528 54.5225465 15.5432723 54.533327 15.5280208 54.5383608 15.5129411 54.5361156L15.2450052 54.5361156C15.2299256 54.5383608 15.214674 54.533327 15.2038935 54.5225465 15.1931131 54.5117661 15.1880792 54.4965147 15.1903244 54.4814351L15.1903244 54.2900534C15.1903244 54.2725557 15.1848564 54.2616196 15.1761074 54.260526 15.1673585 54.2594324 15.1553287 54.260526 15.1411117 54.2791174 14.955197 54.4869031 14.6854384 54.590796 14.331836 54.590796 14.1092857 54.5935686 13.8901242 54.5361335 13.6975388 54.4245674 13.5077137 54.3129555 13.3525149 54.150944 13.2491563 53.9565026 13.030783 53.5231417 13.030783 53.0119156 13.2491563 52.5785547 13.3525378 52.3844141 13.5077549 52.222762 13.6975388 52.1115834 13.889825 51.9991753 14.1091229 51.9413264 14.331836 51.9442612 14.6220226 51.932626 14.9049204 52.0368923 15.1181458 52.2340677 15.1334564 52.2493782 15.1454862 52.2537527 15.1542351 52.2504718 15.162984 52.247191 15.1684521 52.2362549 15.1684521 52.2176636L15.1684521 50.6341171C15.1654036 50.6186981 15.1700776 50.6027621 15.1809716 50.5914324 15.1918656 50.5801028 15.2076062 50.5748076 15.2231329 50.5772494L15.2231329 50.5772494ZM14.8403674 54.120544C14.9672601 54.0520069 15.0728262 53.9498468 15.1454862 53.8252694 15.1603129 53.7984761 15.1682074 53.7684018 15.1684521 53.7377807L15.1684521 52.7972766C15.168072 52.7670204 15.1601803 52.7373326 15.1454862 52.7108814 15.0728262 52.5863041 14.9672601 52.4841439 14.8403674 52.4156069 14.7028794 52.3409901 14.5483883 52.3033096 14.3919849 52.3062459 14.1452881 52.2954643 13.9059979 52.3919774 13.7358153 52.5708994 13.4049548 52.9768026 13.4049548 53.5593482 13.7358153 53.9652514 13.9059979 54.1441734 14.1452881 54.2406865 14.3919849 54.2299049 14.5483883 54.2328412 14.7028794 54.1951607 14.8403674 54.120544ZM19.6599325 50.8397157C19.8182159 50.9206245 19.9493692 51.0460747 20.03723 51.2006068 20.1243111 51.3597404 20.1687654 51.5386867 20.1662766 51.7200713 20.1678911 51.8882481 20.1240619 52.0537401 20.0394172 52.1990722 19.9591021 52.3394029 19.84234 52.4554085 19.7014899 52.5348103 19.664307 52.5566825 19.664307 52.5774611 19.7014899 52.5949588 20.0399128 52.762835 20.2523896 53.109595 20.2482978 53.4873441 20.2573797 53.7702951 20.1465751 54.0439292 19.943179 54.240841 19.7383083 54.4376907 19.4499583 54.5361156 19.0781289 54.5361156L17.9735768 54.5361156C17.9374875 54.5361156 17.9199897 54.5186178 17.9199897 54.4814351L17.9199897 50.763163C17.9178253 50.7482993 17.922726 50.7332776 17.9332393 50.7225498 17.9437526 50.711822 17.9586724 50.7066189 17.9735768 50.7084825L19.0671927 50.7084825C19.2724777 50.7036528 19.4758714 50.7486844 19.6599325 50.8397157L19.6599325 50.8397157ZM18.3224403 51.1240541 18.3224403 52.3653008C18.3213177 52.3728406 18.3238346 52.3804663 18.3292248 52.3858566 18.3346151 52.3912468 18.3422409 52.3937637 18.3497807 52.3926411L19.01798 52.3926411C19.2130432 52.4067011 19.4061605 52.346108 19.5582262 52.2231316 19.6870232 52.0995354 19.7550035 51.925587 19.7441409 51.7474115 19.754466 51.5686768 19.6866205 51.3942751 19.5582262 51.2695042 19.4069121 51.1448572 19.2135438 51.083011 19.01798 51.0967139L18.3497807 51.0967139C18.3422409 51.0955913 18.3346151 51.0981082 18.3292248 51.1034984 18.3238346 51.1088886 18.3213177 51.1165143 18.3224403 51.1240541L18.3224403 51.1240541ZM18.3224403 52.8082127 18.3224403 54.120544C18.3213177 54.1280838 18.3238346 54.1357095 18.3292248 54.1410997 18.3346151 54.1464899 18.3422409 54.1490068 18.3497807 54.1478842L19.0398523 54.1478842C19.2510625 54.1628625 19.4603198 54.0989556 19.627124 53.9685323 19.8922833 53.6851479 19.8922833 53.2447023 19.627124 52.961318 19.4604752 52.8305044 19.2512028 52.7662032 19.0398523 52.7808724L18.3497807 52.7808724C18.3422409 52.7797498 18.3346151 52.7822667 18.3292248 52.7876569 18.3238346 52.7930471 18.3213177 52.8006729 18.3224403 52.8082127ZM21.4348711 54.4322227C21.2409648 54.3238549 21.0825769 54.1616697 20.9788332 53.9652514 20.7622416 53.526469 20.7622416 53.011869 20.9788332 52.5730866 21.0796218 52.3794445 21.2331836 52.2183004 21.4217477 52.1083026 21.8124333 51.889563 22.2887202 51.889563 22.6794059 52.1083026 22.8638366 52.2159496 23.0151564 52.3721863 23.1168523 52.5599633 23.2237534 52.7587868 23.2779684 52.9816695 23.274333 53.2073801 23.2764544 53.249275 23.2764544 53.2912503 23.274333 53.3331452 23.2704168 53.3599675 23.2467221 53.379397 23.2196522 53.3779832L21.2861393 53.3779832C21.2423947 53.3779832 21.2259904 53.400949 21.2380202 53.4479742 21.2558795 53.667124 21.3540173 53.8719659 21.5136114 54.0232127 21.6770166 54.1674811 21.889615 54.2434366 22.1074448 54.235373 22.3803589 54.2358804 22.6406848 54.1206223 22.8237632 53.9182262 22.8631334 53.8777627 22.8937546 53.871201 22.9167206 53.896354L23.0960736 54.0932037C23.1085036 54.1007349 23.1160962 54.1142125 23.1160962 54.1287461 23.1160962 54.1432796 23.1085036 54.1567572 23.0960736 54.1642884 22.9687972 54.3001241 22.8155912 54.4090782 22.6455038 54.4847159 22.4757596 54.5583556 22.2924681 54.5956098 22.1074448 54.5940769 21.8729716 54.5997323 21.6411001 54.5439327 21.4348711 54.4322227L21.4348711 54.4322227ZM22.8478228 52.9941263C22.8197332 52.8008262 22.724023 52.6237441 22.5776996 52.4943467 22.4315923 52.3681146 22.243592 52.3010278 22.0505768 52.3062459 21.854749 52.3018461 21.6643654 52.3708987 21.5168922 52.4998148 21.3694762 52.628492 21.2732197 52.8058667 21.2456755 52.9995943L21.2456755 53.0269345C21.2456755 53.0488067 21.264267 53.0597428 21.3003563 53.0597428L22.8040781 53.0597428C22.8470937 53.0597428 22.8624043 53.0378706 22.85001 52.9941263L22.8478228 52.9941263ZM24.0475194 51.0092251 24.3427957 50.8506518C24.3518259 50.84891 24.3611058 50.84891 24.3701361 50.8506518 24.3952892 50.8506518 24.4084126 50.8648687 24.4084126 50.8933025L24.4084126 51.9770695C24.4084126 51.9945672 24.4171615 52.0033161 24.435753 52.0033161L24.7364974 52.0033161C24.751577 52.0010709 24.7668286 52.0061047 24.7776091 52.0168851 24.7883895 52.0276656 24.7934234 52.042917 24.7911782 52.0579966L24.7911782 52.2931226C24.7934234 52.3082022 24.7883895 52.3234536 24.7776091 52.3342341 24.7668286 52.3450145 24.751577 52.3500483 24.7364974 52.3478031L24.435753 52.3478031C24.4282132 52.3466805 24.4205874 52.3491974 24.4151972 52.3545876 24.4098069 52.3599778 24.40729 52.3676035 24.4084126 52.3751433L24.4084126 54.4858095C24.4106578 54.5008891 24.405624 54.5161406 24.3948435 54.526921 24.384063 54.5377014 24.3688115 54.5427352 24.3537318 54.54049L24.0595491 54.54049C24.0444695 54.5427352 24.0292179 54.5377014 24.0184375 54.526921 24.007657 54.5161406 24.0026231 54.5008891 24.0048684 54.4858095L24.0048684 52.3751433C24.005991 52.3676035 24.003474 52.3599778 23.9980838 52.3545876 23.9926936 52.3491974 23.9850678 52.3466805 23.977528 52.3478031L23.6767836 52.3478031C23.6617039 52.3500483 23.6464524 52.3450145 23.6356719 52.3342341 23.6248914 52.3234536 23.6198576 52.3082022 23.6221028 52.2931226L23.6221028 52.0558094C23.6198576 52.0407298 23.6248914 52.0254783 23.6356719 52.0146979 23.6464524 52.0039175 23.6617039 51.9988837 23.6767836 52.0011289L23.977528 52.0011289C23.9961194 52.0011289 24.0048684 51.99238 24.0048684 51.9748823L24.0048684 51.0715609C24.0041678 51.0437626 24.0213554 51.0186424 24.0475194 51.0092251L24.0475194 51.0092251ZM26.5518997 51.9464484C26.5847082 51.9464484 26.6011124 51.9650398 26.6011124 52.0011289L26.6011124 52.2909354C26.6011124 52.3237437 26.5890827 52.3401478 26.5628359 52.3401478 26.5364004 52.3402097 26.5100241 52.3376453 26.4840955 52.3324925 26.4600035 52.327263 26.4354693 52.3243335 26.4108233 52.3237437 26.1671756 52.3177096 25.9383055 52.4402436 25.8082409 52.6463585 25.7818327 52.6869526 25.7684761 52.7346545 25.7699644 52.7830596L25.7699644 54.4781543C25.7722096 54.4932339 25.7671757 54.5084853 25.7563953 54.5192657 25.7456148 54.5300461 25.7303633 54.5350799 25.7152836 54.5328347L25.4254754 54.5328347C25.4103957 54.5350799 25.3951442 54.5300461 25.3843637 54.5192657 25.3735832 54.5084853 25.3685494 54.4932339 25.3707946 54.4781543L25.3707946 52.0558094C25.3685494 52.0407298 25.3735832 52.0254783 25.3843637 52.0146979 25.3951442 52.0039175 25.4103957 51.9988837 25.4254754 52.0011289L25.6890368 52.0011289C25.7041165 51.9988837 25.719368 52.0039175 25.7301485 52.0146979 25.740929 52.0254783 25.7459628 52.0407298 25.7437176 52.0558094L25.7437176 52.2526591C25.7437176 52.2679696 25.7437176 52.2767185 25.7535601 52.2799993 25.7634027 52.2832801 25.7699644 52.2799993 25.7819941 52.2701568 25.9465281 52.0581985 26.2016107 51.9365382 26.4698785 51.942074 26.4972939 51.9411702 26.524736 51.9426337 26.5518997 51.9464484ZM27.1074566 51.3187166C27.0495957 51.2638357 27.0171183 51.1873953 27.0177801 51.10765 27.0168568 51.0291224 27.0494798 50.9539309 27.1074566 50.9009578 27.1627509 50.8438275 27.2390193 50.8118186 27.3185244 50.8123683 27.4782385 50.8181624 27.6055317 50.9478566 27.6083377 51.10765 27.6087982 51.1869195 27.5772528 51.2630221 27.5208434 51.3187166 27.4688151 51.3754515 27.3955026 51.4079466 27.3185244 51.4083926 27.2387787 51.4090544 27.1623378 51.3765771 27.1074566 51.3187166ZM27.1074566 54.4814351 27.1074566 52.0558094C27.1052114 52.0407298 27.1102452 52.0254783 27.1210257 52.0146979 27.1318062 52.0039175 27.1470577 51.9988837 27.1621374 52.0011289L27.4497583 52.0011289C27.464838 51.9988837 27.4800896 52.0039175 27.49087 52.0146979 27.5016505 52.0254783 27.5066844 52.0407298 27.5044391 52.0558094L27.5044391 54.4836223C27.5066844 54.4987019 27.5016505 54.5139533 27.49087 54.5247338 27.4800896 54.5355142 27.464838 54.540548 27.4497583 54.5383028L27.1654182 54.5383028C27.1498915 54.5407446 27.1341509 54.5354494 27.1232569 54.5241198 27.1123629 54.5127901 27.1076889 54.4968541 27.1107374 54.4814351L27.1074566 54.4814351ZM28.7806889 54.4322227C28.5862243 54.3242244 28.4273898 54.1619711 28.3235574 53.9652514 28.1062917 53.5266266 28.1062917 53.0117115 28.3235574 52.5730866 28.4228629 52.3801748 28.5744578 52.2191062 28.7610038 52.1083026 29.1516895 51.889563 29.6279763 51.889563 30.018662 52.1083026 30.2034098 52.2155446 30.3548273 52.3718824 30.4561084 52.5599633 30.5641851 52.7584224 30.6191831 52.9814269 30.6157763 53.2073801 30.6164894 53.2494029 30.6142969 53.2914247 30.6092146 53.3331452 30.6057977 53.3602465 30.5817795 53.3799413 30.5545338 53.3779832L28.6308635 53.3779832C28.5871189 53.3779832 28.5707146 53.400949 28.5805572 53.4479742 28.5993102 53.667111 28.6977493 53.8717697 28.857242 54.0232127 29.0201368 54.1676102 29.2324552 54.2436057 29.4499818 54.235373 29.722954 54.236157 29.9833874 54.1208512 30.1663002 53.9182262 30.206764 53.8777627 30.2384788 53.871201 30.2592575 53.896354L30.4407978 54.0932037C30.4527107 54.1011058 30.4598725 54.1144506 30.4598725 54.1287461 30.4598725 54.1430415 30.4527107 54.1563863 30.4407978 54.1642884 30.3131225 54.3001536 30.1595541 54.4091011 29.9891344 54.4847159 29.8190332 54.5584433 29.6353668 54.595698 29.4499818 54.5940769 29.2166253 54.599058 28.9859831 54.5432821 28.7806889 54.4322227ZM30.1947342 52.9941263C30.1652761 52.8010366 30.0693556 52.6242808 29.9235174 52.4943467 29.6144174 52.2413752 29.1691858 52.2436702 28.8627101 52.4998148 28.7156222 52.6286035 28.6197486 52.8059881 28.5925869 52.9995943L28.5871189 53.0269345C28.5871189 53.0488067 28.6046167 53.0597428 28.640706 53.0597428L30.1455215 53.0597428C30.188537 53.0597428 30.2049413 53.0378706 30.1947342 52.9941263L30.1947342 52.9941263ZM31.6623667 52.2504718C31.6711156 52.2504718 31.6831454 52.2504718 31.6973624 52.2340677 31.9111305 52.0363445 32.1949259 51.9320375 32.4858594 51.9442612 32.7085385 51.9416019 32.927764 51.9994318 33.1201566 52.1115834 33.3093594 52.2231458 33.4641297 52.3847265 33.5674455 52.5785547 33.7858188 53.0119156 33.7858188 53.5231417 33.5674455 53.9565026 33.4639238 54.1504668 33.3092247 54.3123514 33.1201566 54.4245674 32.9274674 54.5358814 32.7083764 54.593298 32.4858594 54.590796 32.1315279 54.590796 31.8624984 54.4869031 31.6765837 54.2791174 31.6612731 54.2649004 31.6503369 54.2583388 31.6404944 54.260526 31.6306518 54.2627132 31.6262774 54.2725557 31.6262774 54.2900534L31.6262774 54.4814351C31.6285226 54.4965147 31.6234887 54.5117661 31.6127082 54.5225465 31.6019278 54.533327 31.5866762 54.5383608 31.5715966 54.5361156L31.3047543 54.5361156C31.2896746 54.5383608 31.2744231 54.533327 31.2636426 54.5225465 31.2528621 54.5117661 31.2478283 54.4965147 31.2500735 54.4814351L31.2500735 50.6341171C31.2478283 50.6190375 31.2528621 50.6037861 31.2636426 50.5930056 31.2744231 50.5822252 31.2896746 50.5771914 31.3047543 50.5794366L31.5934689 50.5794366C31.6085486 50.5771914 31.6238001 50.5822252 31.6345806 50.5930056 31.645361 50.6037861 31.6503949 50.6190375 31.6481497 50.6341171L31.6481497 52.2198508C31.6481497 52.2362549 31.6525241 52.247191 31.6623667 52.2504718ZM33.0840673 53.9652514C33.4149278 53.5593482 33.4149278 52.9768026 33.0840673 52.5708994 32.9138848 52.3919774 32.6745946 52.2954643 32.4278978 52.3062459 32.2714943 52.3033096 32.1170033 52.3409901 31.9795153 52.4156069 31.8522873 52.4840743 31.7463504 52.5862272 31.6733028 52.7108814 31.6594292 52.7376009 31.6519422 52.7671743 31.6514305 52.7972766L31.6514305 53.7377807C31.6518129 53.7682484 31.6593024 53.7982062 31.6733028 53.8252694 31.7463504 53.9499236 31.8522873 54.0520766 31.9795153 54.120544 32.1170033 54.1951607 32.2714943 54.2328412 32.4278978 54.2299049 32.6727165 54.2390917 32.9096932 54.1427085 33.0785992 53.9652514L33.0840673 53.9652514ZM34.8229165 54.4322227C34.628452 54.3242244 34.4696175 54.1619711 34.3657851 53.9652514 34.1500299 53.5262742 34.1500299 53.0120638 34.3657851 52.5730866 34.4650906 52.3801748 34.6166855 52.2191062 34.8032315 52.1083026 35.1939171 51.889563 35.670204 51.889563 36.0608897 52.1083026 36.2456374 52.2155446 36.397055 52.3718824 36.4983361 52.5599633 36.6064128 52.7584224 36.6614108 52.9814269 36.658004 53.2073801 36.658717 53.2494029 36.6565246 53.2914247 36.6514423 53.3331452 36.6480254 53.3602465 36.6240072 53.3799413 36.5967615 53.3779832L34.6730912 53.3779832C34.6293465 53.3779832 34.6129423 53.400949 34.6227848 53.4479742 34.6415379 53.667111 34.739977 53.8717697 34.8994697 54.0232127 35.0623645 54.1676102 35.2746829 54.2436057 35.4922095 54.235373 35.7651817 54.236157 36.0256151 54.1208512 36.2085279 53.9182262 36.2489916 53.8777627 36.2807065 53.871201 36.3014852 53.896354L36.4830254 54.0932037C36.4949384 54.1011058 36.5021002 54.1144506 36.5021002 54.1287461 36.5021002 54.1430415 36.4949384 54.1563863 36.4830254 54.1642884 36.3553502 54.3001536 36.2017818 54.4091011 36.0313621 54.4847159 35.8612609 54.5584433 35.6775944 54.595698 35.4922095 54.5940769 35.258853 54.599058 35.0282107 54.5432821 34.8229165 54.4322227ZM36.2369619 52.9941263C36.2079485 52.8008874 36.1119507 52.6239893 35.9657451 52.4943467 35.6566451 52.2413752 35.2114135 52.2436702 34.9049377 52.4998148 34.7578499 52.6286035 34.6619763 52.8059881 34.6348146 52.9995943L34.6293465 53.0269345C34.6293465 53.0488067 34.6468444 53.0597428 34.6840273 53.0597428L36.1877492 53.0597428C36.2307647 53.0597428 36.2471689 53.0378706 36.2369619 52.9941263L36.2369619 52.9941263Z"/></g></g></svg>