<svg xmlns="http://www.w3.org/2000/svg" width="149" height="30" viewBox="0 0 149 30"><g fill="none"><path fill="#2F2FA2" d="M46.7980666 17.1041693C45.8377307 18.7667657 44.6104654 19.589041 42.191503 19.589041 39.3104952 19.589041 37.3183486 17.5866389 37.3183486 14.0826906 37.3183486 10.5787422 39.2214058 8.63013699 42.511615 8.63013699 44.7527375 8.63013699 46.1222747 9.64921361 46.887156 11.3475611L44.2903534 12.6168955C44.0058095 11.6335699 43.5610402 11.0080959 42.4404789 11.0080959 40.9642377 11.0080959 40.0574231 12.1878823 40.0574231 14.1541928 40.0574231 16.0850927 40.875487 17.2110821 42.511615 17.2110821 43.3476323 17.2110821 44.0948989 16.7286125 44.4681934 15.7633328L46.7980666 17.1041693ZM48.2265969 19.4520549 50.8260554 19.4520549 50.8260554 11.2171542 48.2265969 11.2171542 48.2265969 19.4520549ZM49.5264934 7.26027398C50.4396991 7.26027398 51.1247706 7.74164462 51.1247706 8.74003041 51.1247706 9.70243222 50.4396991 10.2014554 49.5264934 10.2014554 48.6835343 10.2014554 47.9807339 9.70243222 47.9807339 8.74003041 47.9807339 7.74164462 48.6835343 7.26027398 49.5264934 7.26027398L49.5264934 7.26027398ZM58.7798165 19.0337784C58.0333576 19.4103202 57.1451191 19.589041 56.0792327 19.589041 54.4090057 19.589041 53.2720604 18.818904 53.2720604 16.8134097L53.2720604 13.1424682 52.0816514 13.1424682 52.0816514 11.1004794 53.2896559 11.1004794 53.2896559 9.34567181 55.9191806 9.04109589 55.9191806 11.1004794 58.3534619 11.1004794 58.3534619 13.1424682 55.9015851 13.1424682 55.9015851 16.2042578C55.9015851 17.0640964 56.2392848 17.33286 56.8788168 17.33286 57.3938259 17.33286 57.8560483 17.1357212 58.3355281 16.795674L58.7798165 19.0337784ZM63.0436801 14.6223093C63.4895093 16.2417686 63.5788791 17.3211797 63.5788791 17.3211797L63.6502388 17.3211797C63.6502388 17.3211797 63.7392687 16.2236071 64.2211176 14.6223093L65.2918554 11.0958904 68.0752294 11.0958904 64.7386466 20.1639717C63.7752886 22.7727197 62.615521 23.1506849 60.8311849 23.1506849 60.3316659 23.1506849 59.7427772 23.0605627 59.2789381 22.9529642L59.6894272 20.5779171C59.9925367 20.7756379 60.3853558 20.8835789 60.7778349 20.8835789 61.4914333 20.8835789 61.9552724 20.6135549 62.2407118 19.8761287L59.1899083 11.0958904 62.0803222 11.0958904 63.0436801 14.6223093Z"/><polygon fill="#2F2FA2" points="72.102 8.904 72.102 17.124 76.004 17.124 76.004 19.452 69.442 19.452 69.442 8.904"/><path fill="#2F2FA2" d="M80.9113442 15.2435863 83.2559187 15.2435863 82.9695793 14.4379779C82.3430413 12.6828293 82.1282867 11.3574295 82.1282867 11.3574295L82.0567019 11.3574295C82.0567019 11.3574295 81.7884292 12.7005649 81.1976836 14.4199012L80.9113442 15.2435863ZM84.0433521 17.4820318 80.1593624 17.4820318 79.4973729 19.4520549 76.687156 19.4520549 80.4995609 8.90410959 83.7750793 8.90410959 87.6229358 19.4520549 84.7414748 19.4520549 84.0433521 17.4820318ZM91.8108038 17.1777969 93.4926877 17.1777969C94.2802934 17.1777969 94.7454955 16.9629225 94.7454955 16.156973 94.7454955 15.4942731 94.2802934 15.1719615 93.4926877 15.1719615L91.8108038 15.1719615 91.8108038 17.1777969ZM93.152903 13.2377509C93.8863203 13.2377509 94.3518629 12.9693285 94.3518629 12.2350037 94.3518629 11.447131 93.9043829 11.1783675 93.0990554 11.1783675L91.8108038 11.1783675 91.8108038 13.2377509 93.152903 13.2377509ZM95.1391278 14.0795128C96.7136575 14.312464 97.4651376 15.3332879 97.4651376 16.5870629 97.4651376 18.3060581 96.3023032 19.4520549 93.7254592 19.4520549L89.1266055 19.4520549 89.1266055 8.90410959 93.7612438 8.90410959C95.890608 8.90410959 97.0179985 9.90719782 97.0179985 11.5545682 97.0179985 12.8618913 96.2842403 13.7033121 95.1391278 14.007888L95.1391278 14.0795128ZM107.973989 13.2377509C108.701805 13.2377509 109.340714 12.9693285 109.340714 12.0917542 109.340714 11.4290542 108.967848 11.1783675 108.275865 11.1783675L107.068698 11.1783675 106.713749 13.2377509 107.973989 13.2377509ZM106.021428 17.1777969 107.690029 17.1777969C108.523992 17.1777969 109.109828 16.8551443 109.109828 16.0314591 109.109828 15.4942731 108.825868 15.1719615 108.044979 15.1719615L106.376377 15.1719615 106.021428 17.1777969ZM109.660169 14.0617772C111.186452 14.2947283 111.736794 15.2616631 111.736794 16.2821459 111.736794 18.431231 110.050613 19.4520549 107.494638 19.4520549L102.933028 19.4520549 104.761525 8.90410959 109.092249 8.90410959C111.239864 8.90410959 112.091743 9.88912109 112.091743 11.268069 112.091743 12.8615502 110.991399 13.8110904 109.678085 13.9898113L109.660169 14.0617772ZM118.502494 14.3221666C118.520505 14.2154125 118.538177 14.0906966 118.538177 13.9480189 118.538177 13.3610408 118.341748 12.8984397 117.646091 12.8984397 116.932082 12.8984397 116.504221 13.5569261 116.307792 14.3221666L118.502494 14.3221666ZM118.324077 16.5287569 120.857941 17.1336968C120.376045 18.8061777 119.234174 19.589041 116.914411 19.589041 114.541292 19.589041 113.185321 18.2008989 113.185321 16.0122704 113.185321 12.7561009 115.362011 10.9589041 117.753141 10.9589041 120.144272 10.9589041 121.250459 12.4002539 121.250459 13.9480189 121.250459 14.6068442 121.125397 15.2470299 120.893624 15.7099699L116.022325 15.7099699C115.808224 16.7954727 116.254097 17.5607133 117.128511 17.5607133 117.73513 17.5607133 118.145659 17.3112814 118.324077 16.5287569L118.324077 16.5287569ZM128.553721 14.1750122C127.375134 13.5467033 125.76763 13.7265131 125.464224 15.4671817L124.767617 19.4520549 122.070642 19.4520549 123.51726 11.1596081 125.874774 11.1596081 125.821372 13.4393643C126.392468 11.7339057 127.767656 10.6570977 129.178899 11.0341514L128.553721 14.1750122ZM132.204429 16.6872389C132.132348 17.0812645 132.168388 17.4213888 132.708999 17.4213888 132.871011 17.4213888 133.033366 17.3859094 133.249611 17.332008L132.817122 19.3560372C132.366784 19.4993193 131.843678 19.589041 131.393341 19.589041 129.753316 19.589041 129.104582 18.7651694 129.37506 17.1706452L131.105015 7.53424658 133.826606 7.53424658 132.204429 16.6872389ZM137.411381 7.12328767C138.331125 7.12328767 139.021101 7.60652818 139.021101 8.60845137 139.021101 9.57459159 138.331125 10.075894 137.411381 10.075894 136.562051 10.075894 135.854892 9.57459159 135.854892 8.60845137 135.854892 7.60652818 136.562051 7.12328767 137.411381 7.12328767L137.411381 7.12328767ZM137.482131 16.5532933C137.411381 16.946906 137.446756 17.2866739 137.977714 17.2866739 138.136732 17.2866739 138.296087 17.2512317 138.508336 17.1973869L138.083502 19.2192951C137.641486 19.362427 137.128383 19.4520549 136.686367 19.4520549 135.076311 19.4520549 134.439902 18.6290465 134.705045 17.0361931L135.748431 11.0955383 138.41973 11.0955383 137.482131 16.5532933ZM147.958498 16.5736286C147.886671 16.9644801 147.922585 17.3018643 148.461292 17.3018643 148.622734 17.3018643 148.784517 17.2666707 149 17.2132037L148.569034 19.220928C148.120282 19.3630557 147.599018 19.4520549 147.150266 19.4520549 145.516015 19.4520549 144.869565 18.6348201 145.13909 17.0531407L145.587842 14.4945021C145.713712 13.7483312 145.570056 13.1442881 144.744038 13.1442881 144.097247 13.1442881 143.558539 13.7131377 143.324928 15.0098845L142.552609 19.3630557 139.841284 19.3630557 141.295966 11.1541606 143.66628 11.1541606 143.702194 12.8245006C144.223116 11.6164143 144.959179 10.9589041 146.342033 10.9589041 147.65306 10.9589041 148.479078 11.7940741 148.479078 13.0556274 148.479078 13.3395446 148.461292 13.5351395 148.425378 13.7483312L147.958498 16.5736286Z"/><polygon fill="#F64C72" points="16.265 21.096 11.346 18.29 11.44 5.75 21.48 0 26.246 2.728 26.226 15.348"/><polygon fill="#393A61" points="11.893 4.219 10.308 5.137 10.267 10.714 4.642 13.97 4.567 24.11 0 21.477 .093 8.912 10.046 3.151"/><polygon fill="#2F2FA2" points="10.333 12.055 10.282 19.028 16.291 22.484 20.505 20.032 20.498 24.252 10.619 30 5.741 27.194 5.834 14.653"/></g></svg>