<svg xmlns="http://www.w3.org/2000/svg" width="16.003" height="16.003" viewBox="0 0 16.003 16.003"><g fill="#F64C72" transform="translate(1.003 1.003)"><path d="M-0.923093016,0.38457676 C-1.26647515,-0.43963751 -0.43963751,-1.26647515 0.38457676,-0.923093016 L14.3845768,4.90955283 C15.2354077,5.26402393 15.1943546,6.48309197 14.3216041,6.77952007 L8.691,8.691 L6.77952007,14.3216041 C6.49656597,15.1546841 5.37294202,15.2299572 4.96308102,14.4950766 L4.90955283,14.3845768 L-0.923093016,0.38457676 Z M1.856,1.856 L5.737,11.171 L6.95648464,7.58175477 C7.04393574,7.32427923 7.23177876,7.11518315 7.4745028,6.99997744 L7.58175477,6.95648464 L11.171,5.737 L1.856,1.856 Z"/><path d="M7.29289322,7.29289322 C7.68341751,6.90236893 8.31658249,6.90236893 8.70710678,7.29289322 L13.7071068,12.2928932 C14.0976311,12.6834175 14.0976311,13.3165825 13.7071068,13.7071068 C13.3165825,14.0976311 12.6834175,14.0976311 12.2928932,13.7071068 L7.29289322,8.70710678 C6.90236893,8.31658249 6.90236893,7.68341751 7.29289322,7.29289322 Z"/></g></svg>