<svg xmlns="http://www.w3.org/2000/svg" width="151" height="46" viewBox="0 0 151 46"><path fill="#FFF" fill-rule="evenodd" d="M135.478814 6.99113399C135.245349 7.05942533 134.977925 7.08086207 134.688974 7.08086207 133.410978 7.08086207 132.966182 6.53177524 132.966182 4.34339014 132.966182 2.18593519 133.422197 1.60377453 134.910917 1.60377453 135.534603 1.60377453 136.210136 1.73821352 136.731947 1.95043727L136.909623.382798961C136.333236.146382323 135.534603 0 134.812073 0 132.245471 0 131.13454 1.35633328 131.13454 4.36543936 131.13454 7.30502914 132.123584 8.71771043 134.733847 8.71771043 135.579477 8.71771043 136.47847 8.52876086 137.042122 8.25804544L137.042122 4.00499585 135.478814 4.00499585 135.478814 6.99113399ZM128.758652 4.35349603C128.758652 7.53011493 127.781433 8.70668582 125.415853 8.70668582 123.093632 8.70668582 122.070326 7.46243607 122.070326 4.35349603 122.070326 1.24486222 123.049971.0113308493 125.415853.0113308493 127.781433.0113308493 128.758652 1.24486222 128.758652 4.35349603L128.758652 4.35349603ZM126.92701 4.35349603C126.92701 2.11948129 126.548615 1.64817921 125.415853 1.64817921 124.291885 1.64817921 123.901967 2.13081214 123.901967 4.35349603 123.901967 6.58628581 124.291885 7.08239327 125.425859 7.08239327 126.548615 7.08239327 126.92701 6.57556744 126.92701 4.35349603L126.92701 4.35349603ZM83.4218137 8.70668582C84.0782453 8.70668582 84.7992589 8.53886675 85.2886265 8.29234422L85.1118599 6.79942827C84.6998088 6.99113399 84.2222661 7.11454838 83.6792319 7.11454838 82.3111859 7.11454838 81.8333401 6.49808893 81.8333401 4.29684178 81.8333401 2.23248354 82.287233 1.63654212 83.6443637 1.63654212 84.1901268 1.63654212 84.7101177 1.75046309 85.087907 1.8943955L85.2674023.33533189C84.8438296.146382323 84.1103847 0 83.5236895 0 81.0895863 0 80.0010923 1.41115009 80.0010923 4.29684178 80.0010923 7.36229587 81.099592 8.70668582 83.4218137 8.70668582L83.4218137 8.70668582ZM140.007434 8.55999726 141.794505 8.55999726 141.794505.146382323 140.90097.146382323 140.007434.146382323 140.007434 8.55999726ZM109.280369 8.70668582C106.958451 8.70668582 105.937268 7.46151736 105.937268 4.35441475 105.937268 1.24486222 106.914487.0113308493 109.280369.0113308493 111.646555.0113308493 112.623774 1.24486222 112.623774 4.35441475 112.623774 7.53011493 111.646555 8.70668582 109.280369 8.70668582L109.280369 8.70668582ZM110.792133 4.35441475C110.792133 2.11948129 110.41495 1.64817921 109.280369 1.64817921 108.157613 1.64817921 107.768909 2.13081214 107.768909 4.35441475 107.768909 6.58628581 108.157613 7.08086207 109.290981 7.08086207 110.41495 7.08086207 110.792133 6.57556744 110.792133 4.35441475L110.792133 4.35441475ZM77.6294487 6.96847229 74.1953865 6.96847229 74.1953865 4.96995548 76.9408777 4.96995548 76.9408777 3.49082029 74.1953865 3.49082029 74.1953865 1.76026274 77.4632942 1.76026274 77.4287292.146382323 72.453796.146382323 72.453796 8.55999726 77.5845749 8.55999726 77.6294487 6.96847229ZM89.6486667 5.0710144 92.2264874 5.0710144 92.2264874 8.55999726 93.9705035 8.55999726 93.9705035.146382323 92.2264874.146382323 92.2264874 3.43447228 89.6486667 3.43447228 89.6486667.146382323 87.905257.146382323 87.905257 8.55999726 89.6486667 8.55999726 89.6486667 5.0710144ZM120.251116 6.92345514 117.184231 6.92345514 117.184231.144851127 115.431422.144851127 115.431422 8.55999726 120.207455 8.55999726 120.251116 6.92345514ZM146.671807 6.96847229 146.671807 4.96995548 149.417299 4.96995548 149.417299 3.49082029 146.671807 3.49082029 146.671807 1.76026274 149.937289 1.76026274 149.903937.146382323 144.928398.146382323 144.928398 8.55999726 150.060996 8.55999726 150.105263 6.96847229 146.671807 6.96847229ZM66.1820692 8.55999726 67.946703 8.55999726 67.946703 1.79425529 69.9681486 1.79425529 69.9363124.146382323 64.2024654.146382323 64.1578947 1.79425529 66.1820692 1.79425529 66.1820692 8.55999726ZM103.206633 8.55999726 103.206633.146382323 101.674858.146382323 101.674858 4.34185894 101.696082 5.23883347 101.674858 5.24985808 98.5855363.146382323 97.0865072.146382323 97.0865072 8.55999726 98.6288941 8.55999726 98.6288941 4.14035357 98.6179789 3.23174195 98.6398094 3.21979862 99.1058304 4.00499585 101.963809 8.55999726 103.206633 8.55999726ZM97.8060048 16.0735753 92.0736737 16.0735753 92.0287999 17.7220607 94.0514583 17.7220607 94.0514583 24.4890276 95.8160921 24.4890276 95.8160921 17.7220607 97.8399634 17.7220607 97.8060048 16.0735753ZM106.191351 21.6299788 106.191351 16.0735753 104.448547 16.0735753 104.448547 21.6057859C104.448547 22.5829951 104.070152 22.9860058 103.135684 22.9860058 102.201823 22.9860058 101.812815 22.5707455 101.812815 21.6057859L101.812815 16.0735753 100.060612 16.0735753 100.060612 21.6299788C100.060612 23.6480949 101.113329 24.634185 103.135684 24.634185 105.158039 24.634185 106.191351 23.6480949 106.191351 21.6299788L106.191351 21.6299788ZM89.6532147 19.5983881 86.932586 19.5983881 86.932586 17.7220607 90.1880625 17.7220607 90.1644127 16.0735753 85.1885699 16.0735753 85.1885699 24.4874964 86.932586 24.4874964 86.932586 21.156533 89.6313842 21.156533 89.6532147 19.5983881ZM113.768361 20.2708893 113.792314 21.1675576 113.768361 21.1791947 110.679039 16.0735753 109.180313 16.0735753 109.180313 24.4890276 110.723609 24.4890276 110.723609 20.0684652 110.711481 19.1580162 110.735434 19.1485228 111.202062 19.9340262 114.057615 24.4890276 115.299832 24.4890276 115.299832 16.0735753 113.768361 16.0735753 113.768361 20.2708893ZM67.2038588 23.0536847C66.4594987 23.0536847 65.781843 22.8396235 65.1375394 22.4929607L64.9046805 24.0409997C65.5489841 24.4225737 66.3718734 24.634185 67.2375142 24.634185 69.0376226 24.634185 70.0818492 23.6474824 70.0818492 21.9986907 70.0818492 19.2382508 66.6159508 19.7312959 66.6159508 18.3853748 66.6159508 17.9122352 66.8818587 17.5539354 67.8263319 17.5539354 68.3945319 17.5539354 68.993052 17.6657127 69.6158282 17.8779365L69.8156382 16.3556215C69.2383421 16.0849061 68.4724547 15.93883 67.7156633 15.93883 65.7915454 15.93883 64.9368199 17.0388411 64.9368199 18.4622408 64.9368199 21.2144122 68.4054471 20.7311668 68.4054471 22.1113867 68.4054471 22.7281524 68.0379667 23.0536847 67.2038588 23.0536847L67.2038588 23.0536847ZM74.000731 24.4890276 75.7653648 24.4890276 75.7653648 17.7220607 77.7895392 17.7220607 77.7558838 16.0735753 72.023856 16.0735753 71.9795886 17.7220607 74.000731 17.7220607 74.000731 24.4890276ZM82.007681 16.0735753 81.1135393 16.0735753 80.2197007 16.0735753 80.2197007 24.4890276 82.007681 24.4890276 82.007681 16.0735753ZM122.436897 22.9198581C122.202522 22.9872308 121.937827 23.0089737 121.647056 23.0089737 120.369061 23.0089737 119.923052 22.4595807 119.923052 20.2708893 119.923052 18.1149656 120.379673 17.53158 121.870819 17.53158 122.492686 17.53158 123.168219 17.6657127 123.689423 17.8779365L123.867099 16.3106044C123.291622 16.0735753 122.492686 15.9293366 121.768943 15.9293366 119.203554 15.9293366 118.092623 17.2850574 118.092623 20.293551 118.092623 23.2325283 119.078028 24.6455159 121.69193 24.6455159 122.53756 24.6455159 123.434127 24.4535039 124.001114 24.1861571L124.001114 19.9340262 122.436897 19.9340262 122.436897 22.9198581ZM106.752274 31.5328348 106.752274 37.0191095 106.774104 37.9166965 106.752274 37.9292523 106.296258 37.1434426 102.994695 31.5328348 102.032333 31.5328348 102.032333 39.9473684 102.974077 39.9473684 102.974077 34.2923559 102.961646 33.384663 102.986509 33.3730259 103.430093 34.1591419 106.907513 39.9473684 107.671884 39.9473684 107.671884 31.5328348 106.752274 31.5328348ZM97.2596353 39.9473684 98.3353949 39.9473684 98.3353949 31.5328348 97.7978183 31.5328348 97.2596353 31.5328348 97.2596353 39.9473684ZM69.168909 35.4937322C70.0457682 35.7178993 70.5675783 36.3576329 70.5675783 37.5577842 70.5675783 39.0739743 69.8577832 39.9473684 68.0785957 39.9473684L65.2566976 39.9473684 65.2566976 31.5334472 67.9794488 31.5334472C69.5021276 31.5334472 70.2692279 32.2160544 70.2692279 33.6210797 70.2692279 34.6515745 69.824431 35.2349601 69.168909 35.4701518L69.168909 35.4937322ZM66.2772745 35.1565629 67.9897576 35.1565629C68.8566112 35.1565629 69.2468318 34.7318091 69.2468318 33.8081918 69.2468318 32.834045 68.8469088 32.495957 67.9473094 32.495957L66.2772745 32.495957 66.2772745 35.1565629ZM68.0913302 39.0075204C69.0027544 39.0075204 69.5133461 38.6250277 69.5133461 37.4796932 69.5133461 36.4476672 69.0464155 36.0207698 68.0452435 36.0207698L66.2772745 36.0207698 66.2772745 39.0075204 68.0913302 39.0075204ZM85.1124663 36.1432655 87.1002565 39.9473684 85.8568264 39.9473684 84.1440401 36.3450771 82.6874592 36.3450771 82.6874592 39.9473684 81.6344398 39.9473684 81.6344398 31.5328348 84.1349441 31.5328348C85.8119526 31.5328348 86.5999737 32.2619902 86.5999737 33.9123131 86.5999737 35.2349601 86.0769508 35.9644218 85.1124663 36.1432655L85.1124663 36.1432655ZM85.5120861 33.9545741C85.5120861 32.8551755 85.0888166 32.4858511 84.1440401 32.4858511L82.6874592 32.4858511 82.6874592 35.4713767 84.1009855 35.4713767C85.0785077 35.4713767 85.5120861 35.090109 85.5120861 33.9545741L85.5120861 33.9545741ZM73.7854578 31.5328348 73.7854578 39.9473684 78.5502723 39.9473684 78.5842308 38.9514786 74.8409029 38.9514786 74.8409029 36.0308757 77.892931 36.0308757 77.892931 35.1014398 74.8409029 35.1014398 74.8409029 32.5421991 78.4062515 32.5421991 78.3838145 31.5328348 73.7854578 31.5328348ZM90.9833605 31.5328348 90.9833605 38.9291232 94.4274284 38.9291232 94.3919538 39.9473684 89.9179098 39.9473684 89.9179098 31.5328348 90.9833605 31.5328348ZM5.50216654 44.0223172 42.6307412 6.28314329 1.2655806 31.4877589 5.50216654 44.0223172ZM56.8947368 27.8566875 51.3364848 39.9459059 17.7266632 34.2901788 18.6252498 33.3714957 50.2547061 38.6944976 44.3130002 6.0856159 5.04525292 46 0 31.0707232 11.1991081 7.96573943 25.8060176 14.3242546 24.7038164 14.9957272 11.7145457 9.34150566 1.71274022 29.977397 44.9500579 3.63157895 51.1691429 37.7622647 55.4770549 28.392059 49.8685089 25.9500664 49.6405093 24.6992604 56.8947368 27.8566875ZM28.690761 15.7506071 28.14027 16.0860423 30.7153242 17.2070705 31.1115802 16.8041869 28.690761 15.7506071ZM33.7893561 17.9700803 33.3934049 18.3726628 46.7600332 24.1915909 46.6463382 23.5667901 33.7893561 17.9700803ZM2.46318807 31.7313559 3.16273226 31.3052869 15.0485825 33.1272965 14.594717 33.590703 2.46318807 31.7313559Z"/></svg>